<?xml version="1.0" encoding="utf-8"?>
<!-- Generator: Adobe Illustrator 27.4.0, SVG Export Plug-In . SVG Version: 6.00 Build 0)  -->
<svg version="1.1" id="Calque_1" xmlns="http://www.w3.org/2000/svg" xmlns:xlink="http://www.w3.org/1999/xlink" x="0px" y="0px"
	 viewBox="0 0 320 325" style="enable-background:new 0 0 320 325;" xml:space="preserve">
<style type="text/css">
	.st0{fill:none;stroke:#FF0019;stroke-width:1.2701;stroke-miterlimit:1;}
	.st1{fill:none;stroke:#FF0019;stroke-width:0.9419;stroke-linecap:round;stroke-linejoin:round;}
	.st2{fill:none;stroke:#FF0019;stroke-width:1.03;stroke-linecap:round;stroke-linejoin:round;}
	.st3{fill:none;stroke:#FF0019;stroke-width:1.1165;stroke-linecap:round;stroke-linejoin:round;}
</style>
<g>
	<g>
		<circle class="st0" cx="160" cy="162.6" r="122.6"/>
		<ellipse class="st0" cx="160" cy="162.6" rx="111" ry="122.6"/>
		<ellipse class="st0" cx="160.6" cy="162.6" rx="97.7" ry="122.6"/>
		<ellipse class="st0" cx="161.1" cy="162.6" rx="79.3" ry="122.6"/>
		<ellipse class="st0" cx="163.1" cy="162.6" rx="61.9" ry="122.6"/>
		<ellipse class="st0" cx="163.3" cy="162.6" rx="44.9" ry="122.6"/>
		<ellipse class="st0" cx="162.5" cy="162.6" rx="28.6" ry="122.6"/>
		<ellipse class="st0" cx="161.9" cy="162.4" rx="11.1" ry="122.6"/>
		<circle class="st0" cx="160.1" cy="162.5" r="122.6"/>
		<ellipse class="st0" cx="160.1" cy="162.5" rx="122.6" ry="111"/>
		<ellipse class="st0" cx="160.1" cy="161.9" rx="122.6" ry="97.7"/>
		<ellipse class="st0" cx="160.1" cy="161.4" rx="122.6" ry="79.3"/>
		<ellipse class="st0" cx="160.1" cy="159.4" rx="122.6" ry="61.9"/>
		<ellipse class="st0" cx="160.1" cy="159.2" rx="122.6" ry="44.9"/>
		<ellipse class="st0" cx="160.1" cy="160" rx="122.6" ry="28.6"/>
		<ellipse class="st0" cx="159.9" cy="160.6" rx="122.6" ry="11.1"/>
	</g>
	<g>
		<g>
			<g>
				<path class="st1" d="M28.5,155.3c0.4,0-0.4-14.3,0-14.3c0.2,0,1.9-5.8,2.1-5.8c0.2,0-0.2-8.8,0-8.8c0.1,0,2.4,2.4,2.5,2.4
					c0.2,0-0.1-6.6,0-6.6c0.1,0,1.6-2.7,1.7-2.7c0.1,0-0.1-1.1,0-1.1c0.1,0,1.8-5.6,1.9-5.6c0.1,0-0.1-4.3,0-4.3
					c0.1,0,1.8,1.7,1.9,1.7c0.1,0-0.1-6.1,0-6.1c0.1,0,2.3,2.4,2.4,2.4c0.1,0-0.1-2,0-2c0,0,1.5-1.3,1.6-1.3c0.1,0-0.1-5.5,0-5.5
					c0.1,0,2.4,0.1,2.5,0.1c0.1,0-0.1-2.9,0-2.9c0.1,0,2,2.2,2.1,2.2c0.1,0-0.1-7.1,0-7.1c0.1,0,2.5-1.3,2.6-1.3
					c0.1,0-0.1-2.6,0-2.6c0.1,0,2.6,0.2,2.7,0.2c0.1,0-0.1-3,0-3c0.1,0,2.9,2,3,2c0.1,0-0.1-6.7,0-6.7c0.1,0,2.9-2.4,3-2.4
					c0.1,0-0.1-2.7,0-2.7c0.1,0,1.7,4.6,1.9,4.6c0.1,0-0.1-3.7,0-3.7c0,0,1.7-0.2,1.7-0.2c0.1,0-0.1-2.6,0-2.6c0,0,2.1-0.6,2.2-0.6
					c0.1,0-0.1-1.7,0-1.7c0.1,0,1.8,0.2,1.9,0.2c0.1,0-0.1-3.4,0-3.4c0.1,0,2,1.9,2.1,1.9c0.1,0-0.1-5.6,0-5.6
					c0.1,0,1.8,3.6,1.9,3.6c0.1,0-0.1-1.1,0-1.1c0.1,0,2.9,0.1,2.9,0.1c0.1,0-0.1-5.9,0-5.9c0.1,0,2,1.7,2.1,1.7
					c0.1,0-0.1-1.3,0-1.3c0.1,0,3,1,3,1c0.1,0,0-6.1,0-6.1c0.1,0,2.7,2.3,2.8,2.3c0.1,0,0-2.2,0-2.2c0.1,0,1.9-2,2-2
					c0.1,0-0.1-2.1,0-2.1c0.1,0,2.6,2.8,2.7,2.8c0,0,0-3.4,0-3.4c0.1,0,1.8,4.7,1.9,4.7c0.1,0,0-2.2,0-2.2c0,0,1.6-0.6,1.6-0.6
					c0,0-0.1-0.4,0-0.4c0,0,1.6-0.7,1.6-0.7c0,0,0-1.9,0-1.9c0.1,0,2.8,1.4,2.9,1.4c0,0-0.1-4.6,0-4.6c0.1,0,3,1,3.1,1
					c0.1,0,0-2,0-2c0.1,0,1.7,2.5,1.8,2.5c0,0,0-4.3,0-4.3c0.1,0,1.9,3.2,2,3.2c0.1,0-0.1-6.2,0-6.2c0.2,0,2.5,6.1,2.6,6.1
					c0,0,0-2.7,0-2.7c0.1,0,2.6-0.3,2.7-0.3c0.1,0,0-2.1,0-2.1c0.1,0,2.8,2,2.9,2c0.1,0,0-2.9,0-2.9c0.1,0,2.4-0.2,2.5-0.2
					c0,0,0-1.9,0-1.9c0.1,0,2.4,2.3,2.5,2.3c0.1,0,0-1.9,0-1.9c0,0,1.8,0.3,1.9,0.3c0,0,0-4.6,0-4.6c0.1,0,1.9,2.4,2,2.4
					c0,0,0-3,0-3c0.1,0,2,3.1,2.1,3.1c0,0,0-0.3,0-0.3c0.1,0,2.9,1,2.9,1c0,0-0.1-4.7,0-4.7c0.1,0,1.8,1.6,1.9,1.6c0,0,0-2.6,0-2.6
					c0.1,0,3,5,3.1,5c0,0,0-1.7,0-1.7c0.1,0,2.8-2.1,2.9-2.1c0,0-0.1-0.2,0-0.2c0.1,0,2.8,0.5,2.8,0.5c0,0,0-3.3,0-3.3
					c0.1,0,2.1,2.4,2.2,2.4c0,0,0-0.7,0-0.7c0.1,0,2.5,3.4,2.5,3.4c0,0-0.1-5.7,0-5.7c0.1,0,1.7,5.6,1.9,5.6c0,0,0-5.3,0-5.3
					c0.1,0,2.4,3.2,2.5,3.2c0.1,0,0-1.2,0-1.2c0.1,0,2.1,2.6,2.2,2.6c0,0,0-1.6,0-1.6c0.1,0,2.5,1.3,2.5,1.3c0,0,0-2.4,0-2.4
					c0,0,1.5-0.3,1.6-0.3c0,0,0-1.7,0-1.7c0.1,0,2.7,1.5,2.8,1.5c0,0,0-1.7,0-1.7c0.1,0,1.7,1.6,1.8,1.6c0,0,0-1.7,0-1.7
					c0.1,0,1.9,4.6,2.1,4.6c0,0,0-2.7,0-2.7c0.1,0,1.8,1.5,1.8,1.5c0,0,0-5.9,0-5.9c0.1,0,2,3.3,2.1,3.3c0,0,0-3.2,0-3.2
					c0.2,0,1.7,7.1,1.9,7.1c0.1,0,0-3.8,0-3.8c0.1,0,3-0.7,3.1-0.7c0,0-0.1-2.5,0-2.5c0.1,0,2.3,4,2.4,4c0,0,0-1.7,0-1.7
					c0.1,0,2.9,4.9,3,4.9c0,0,0-3.4,0-3.4c0.1,0,2.3,0.5,2.4,0.5c0,0-0.1-1.7,0-1.7c0.1,0,1.8,0.9,1.9,0.9c0,0,0-1.6,0-1.6
					c0.1,0,2.9,4.2,3,4.2c0,0,0-4.1,0-4.1c0.1,0,1.8,3.1,1.9,3.1c0,0,0-1.8,0-1.8c0,0,1.5,0.7,1.6,0.7c0.1,0,0,0,0,0
					c0.1,0,2.1,0.8,2.1,0.8c0,0-0.1-0.4,0-0.4c0.1,0,2.6,2.1,2.7,2.1c0,0,0-0.4,0-0.4c0.1,0,2.7,2.5,2.8,2.5c0,0,0-5.1,0-5.1
					c0.1,0,2.5,2.5,2.6,2.5c0.1,0-0.1-1.2,0-1.2c0.1,0,2.7,0.7,2.8,0.7c0,0,0-2.1,0-2.1c0.1,0,2,2.6,2.1,2.6c0.1,0,0-1.8,0-1.8
					c0.2,0,1.8,7.7,1.9,7.7c0,0,0-4.6,0-4.6c0,0,1.7,0.6,1.8,0.6c0.1,0,0-1.2,0-1.2c0.1,0,1.8,4.3,1.9,4.3c0,0-0.1-3.3,0-3.3
					c0.1,0,2.8,3.4,2.9,3.4c0,0,0-1.8,0-1.8c0.1,0,2.4,4.1,2.6,4.1c0,0,0-2.2,0-2.2c0.1,0,2.3,1.8,2.3,1.8c0,0,0-1.9,0-1.9
					c0.1,0,1.8,2.6,1.8,2.6c0,0,0-1.9,0-1.9c0.1,0,2.3,1.6,2.4,1.6c0.1,0-0.1-1,0-1c0.1,0,2.3,3.4,2.4,3.4c0.1,0,0-1.9,0-1.9
					c0.1,0,2.8,3.9,2.9,3.9c0,0,0-2,0-2c0.1,0,2.5,5.6,2.6,5.6c0,0,0-2,0-2c0.1,0,2.3-1.5,2.4-1.5c0,0,0-2,0-2
					c0.1,0,1.6,5.4,1.7,5.4c0,0-0.1-4.8,0-4.8c0.1,0,2.9,4.6,3.1,4.6c0,0,0-3.5,0-3.5c0.3,0,2.4,8.8,2.6,8.8c0.1,0-0.1-5.4,0-5.4
					c0.2,0,2.4,5.2,2.5,5.2c0,0,0-2.5,0-2.5c0.1,0,2,2.6,2.1,2.6c0,0,0-3.9,0-3.9c0.2,0,2.5,7,2.7,7c0.1,0-0.1-2.1,0-2.1
					c0.1,0,2,4.3,2.1,4.3c0,0-0.1-0.5,0-0.5c0.1,0,2.5,1.9,2.6,1.9c0.1,0,0-2.2,0-2.2c0.1,0,2.8,4.6,2.9,4.6c0,0-0.1-2.3,0-2.3
					c0.2,0,2,6.8,2.2,6.8c0,0-0.1-6.5,0-6.5c0.3,0,2.2,8.3,2.4,8.3c0.1,0,0-5.1,0-5.1c0.2,0,2.6,4.5,2.7,4.5c0.1,0-0.1-2.4,0-2.4
					c0.2,0,1.6,5,1.7,5c0.1,0,0-1.7,0-1.7c0.1,0,2,4,2.1,4c0.1,0-0.1-3.6,0-3.6c0.1,0,2.7,3.9,2.8,3.9c0.1,0-0.1-0.1,0-0.1
					c0.2,0,1.9,6.1,2,6.1c0.1,0-0.1-3.1,0-3.1c0.2,0,2.5,5.8,2.6,5.8c0.1,0-0.1-2.8,0-2.8c0.2,0,2.3,7.9,2.5,7.9
					c0.1,0-0.1-5.1,0-5.1c0.2,0,1.6,7.9,1.9,7.9c0.1,0-0.1-6.2,0-6.2c0.3,0,1.9,10.4,2.1,10.4c0.1,0-0.1-6.5,0-6.5
					c0.2,0,1.7,9.4,1.9,9.4c0.1,0-0.1-6.5,0-6.5c0.1,0,2,6,2.2,6c0.1,0-0.1-2.5,0-2.5c0.1,0,1.5,4,1.6,4c0.1,0-0.1-1.1,0-1.1
					c0.3,0,2.4,8.7,2.6,8.7c0.1,0-0.1-2.1,0-2.1c0.2,0,1.4,7.7,1.6,7.7c0.1,0-0.1-5.9,0-5.9c0.3,0,2.6,13.9,2.9,13.9
					c0.1,0-0.1-6.5,0-6.5c0.4,0,2.7,14.7,3,14.7c0.2,0-0.1-7,0-7c0.5,0,2.6,21,3.1,21c0.2,0-0.2-9.5,0-9.5c0.4,0,1.2,20.8,1.7,20.8
					c0.3,0-0.4-15.5,0-15.5"/>
				<path class="st1" d="M26.7,168.9c0.3,0-0.5-15.8,0-15.8c0.7,0,0.8,33.9,1.8,33.9c0.3,0-0.4-14.2,0-14.2c0.5,0,1.9,21.2,2.4,21.2
					c0.2,0-0.2-2.5,0-2.5c0.3,0,2.7,12,3,12c0.1,0-0.1-0.3,0-0.3c0.3,0,2.1,11.5,2.4,11.5c0.1,0-0.1-7.4,0-7.4
					c0.3,0,2.3,10.3,2.6,10.3c0.1,0-0.1-5.4,0-5.4c0.3,0,1.8,11.3,2.1,11.3c0.1,0-0.1-3.9,0-3.9c0.2,0,2.6,9.3,2.8,9.3
					c0.1,0-0.1-6.1,0-6.1c0.2,0,1.9,8.3,2.2,8.3c0.1,0-0.1-4.9,0-4.9c0.3,0,2.5,12.2,2.9,12.2c0.1,0-0.1-4.5,0-4.5
					c0.2,0,2.5,8.1,2.7,8.1c0.1,0-0.1-6.3,0-6.3c0.2,0,2.6,8,2.7,8c0.1,0-0.1-2.9,0-2.9c0.2,0,2.2,5.9,2.4,5.9c0.1,0-0.1-2.8,0-2.8
					c0.1,0,1.8,3.2,1.9,3.2c0.1,0-0.1-2.4,0-2.4c0.2,0,1.7,7.1,1.9,7.1c0.1,0-0.1-4.4,0-4.4c0.2,0,2.4,6.5,2.6,6.5
					c0.1,0-0.1-2.5,0-2.5c0.1,0,2.9,4.8,3.1,4.8c0.1,0,0-3.6,0-3.6c0.2,0,2.7,6.8,2.9,6.8c0.1,0-0.1-3,0-3c0.2,0,2.3,7.8,2.5,7.8
					c0.1,0-0.1-2.3,0-2.3c0,0,1.8-0.8,1.9-0.8c0,0-0.1-2.3,0-2.3c0.1,0,1.7,3.8,1.8,3.8c0.1,0-0.1-1.1,0-1.1c0.2,0,2.8,6.8,3,6.8
					c0,0-0.1-1.7,0-1.7c0.1,0,1.5,2.2,1.6,2.2c0.1,0-0.1-2.2,0-2.2c0.1,0,1.7,0.7,1.7,0.7c0,0-0.1-1.3,0-1.3c0.1,0,2.6,6,2.7,6
					c0,0,0-2.1,0-2.1c0.1,0,3,5.2,3.1,5.2c0.1,0-0.1-3.6,0-3.6c0.1,0,2.9,4,3.1,4c0.1,0,0-1.8,0-1.8c0.1,0,2.5,2.4,2.6,2.4
					c0,0-0.1-2.9,0-2.9c0.2,0,1.9,8.8,2.1,8.8c0,0,0-3.8,0-3.8c0.1,0,1.7,3.4,1.8,3.4c0,0,0-4.8,0-4.8c0.1,0,2.1,5.9,2.3,5.9
					c0,0-0.1-3.1,0-3.1c0.1,0,2.3,2.7,2.4,2.7c0.1,0-0.1-1.9,0-1.9c0.1,0,2.9,3.3,3,3.3c0,0,0-1.9,0-1.9c0.1,0,2.4,4,2.6,4
					c0.1,0,0-4.5,0-4.5c0.2,0,1.4,5.9,1.6,5.9c0.1,0,0-5.9,0-5.9c0.2,0,2.4,4.6,2.5,4.6c0,0-0.1-0.1,0-0.1c0.1,0,1.6,2.3,1.7,2.3
					c0,0,0-5.3,0-5.3c0.1,0,3,4.8,3.1,4.8c0,0-0.1-0.8,0-0.8c0.1,0,2.3,4.5,2.4,4.5c0,0,0-4.2,0-4.2c0.1,0,1.6,4.2,1.8,4.2
					c0.1,0,0-3.9,0-3.9c0.1,0,2.6,3.1,2.7,3.1c0,0,0-2.6,0-2.6c0.2,0,2.7,5.4,2.9,5.4c0,0,0-5.2,0-5.2c0.1,0,2.9,4.6,3,4.6
					c0,0,0-3.9,0-3.9c0.2,0,2,5.5,2.1,5.5c0,0,0-2.3,0-2.3c0,0,1.6,0.7,1.7,0.7c0,0,0-1.8,0-1.8c0.1,0,2.3,3.7,2.4,3.7
					c0,0,0-3.3,0-3.3c0.1,0,2.4-0.1,2.5-0.1c0,0,0-1.6,0-1.6c0.1,0,2,4.3,2.2,4.3c0,0,0-4.7,0-4.7c0.1,0,1.7,4.4,1.8,4.4
					c0,0,0-3.5,0-3.5c0.1,0,2.7,4.6,2.9,4.6c0.1,0,0-1.7,0-1.7c0.1,0,2.1,4.1,2.2,4.1c0,0,0-5.7,0-5.7c0.1,0,2.7,3.9,2.8,3.9
					c0,0,0-1.7,0-1.7c0,0,1.6-0.3,1.6-0.3c0,0,0-2.3,0-2.3c0.1,0,2.4,4.7,2.6,4.7c0.1,0,0-1.7,0-1.7c0.1,0,2.5,1.4,2.6,1.4
					c0.1,0,0-0.9,0-0.9c0.1,0,2.4,1.4,2.5,1.4c0,0,0-1.7,0-1.7c0.1,0,1.9,3.9,2,3.9c0.1,0,0-0.8,0-0.8c0.1,0,1.6-4.4,1.7-4.4
					c0,0,0-1.1,0-1.1c0.2,0,1.9,6.7,2.1,6.7c0,0,0-2.8,0-2.8c0.1,0,1.5-2.7,1.6-2.7c0,0,0-0.3,0-0.3c0.1,0,2,3,2.1,3
					c0,0,0-1.7,0-1.7c0.1,0,1.5-1.1,1.6-1.1c0.1,0,0-1.4,0-1.4c0.1,0,2.9,2.7,3,2.7c0,0,0-3.4,0-3.4c0.2,0,2.8,6.9,2.9,6.9
					c0,0,0-7.3,0-7.3c0.1,0,2,3.6,2.1,3.6c0.1,0,0-3.5,0-3.5c0.1,0,2,1.1,2,1.1c0,0,0-1.6,0-1.6c0.1,0,3,3.9,3.1,3.9
					c0,0,0-1.8,0-1.8c0.1,0,2.9,2.1,3,2.1c0,0,0-4.9,0-4.9c0.2,0,2.5,6.3,2.6,6.3c0,0,0-2,0-2c0.1,0,2.4-0.8,2.5-0.8
					c0,0,0-0.7,0-0.7c0.1,0,1.5,2.5,1.6,2.5c0,0,0-5.8,0-5.8c0.1,0,2.7-0.7,2.8-0.7c0,0,0-1.1,0-1.1c0.1,0,1.6,4.6,1.7,4.6
					c0,0,0-5.3,0-5.3c0.1,0,1.9,4.8,2.1,4.8c0,0-0.1-2.2,0-2.2c0.1,0,2,1.7,2.1,1.7c0.1,0,0-5.1,0-5.1c0.1,0,1.8,3.1,1.9,3.1
					c0,0-0.1-1.8,0-1.8c0.1,0,2.6,2.7,2.7,2.7c0.1,0-0.1-6,0-6c0.1,0,2.2,2.3,2.3,2.3c0.1,0,0-2.4,0-2.4c0.1,0,1.7,3,1.8,3
					c0,0-0.1-4.8,0-4.8c0.1,0,2.9,3.3,3,3.3c0,0,0-2.8,0-2.8c0.1,0,2.6,1.5,2.6,1.5c0,0-0.1-1.9,0-1.9c0.1,0,3,1.6,3.1,1.6
					c0.1,0-0.1-3.4,0-3.4c0.1,0,1.6,1.5,1.7,1.5c0.1,0-0.1-2,0-2c0,0,1.7,0.4,1.8,0.4c0,0-0.1-3.7,0-3.7c0.1,0,2.3,4,2.4,4
					c0.1,0-0.1-4.5,0-4.5c0.1,0,1.5,2.7,1.6,2.7c0.1,0-0.1-2,0-2c0.1,0,1.8,2.3,1.9,2.3c0.1,0,0-0.3,0-0.3c0.1,0,1.9-2,2-2
					c0.1,0,0-2.4,0-2.4c0.1,0,2.4,1.8,2.5,1.8c0,0-0.1-4.1,0-4.1c0.1,0,2.3-1.2,2.3-1.2c0,0-0.1-1.4,0-1.4c0.1,0,2.3,4.4,2.5,4.4
					c0.1,0-0.1-3.2,0-3.2c0.1,0,1.9-0.4,1.9-0.4c0.1,0,0-2.2,0-2.2c0.1,0,2.9-2.1,3-2.1c0,0-0.1-0.7,0-0.7c0.1,0,2.3,1.7,2.4,1.7
					c0.1,0-0.1-5.1,0-5.1c0.1,0,2.3,2.1,2.4,2.1c0.1,0-0.1-2.3,0-2.3c0.1,0,2.5,1.3,2.6,1.3c0.1,0-0.1-3.2,0-3.2
					c0.1,0,2.1-0.6,2.1-0.6c0.1,0,0-2,0-2c0.1,0,2.2,0.4,2.2,0.4c0.1,0-0.1-3.1,0-3.1c0.1,0,2.9,0.1,2.9,0.1c0.1,0-0.1-2.5,0-2.5
					c0.1,0,2.2,2.7,2.3,2.7c0.1,0-0.1-7.9,0-7.9c0.1,0,2.2,2.5,2.3,2.5c0.1,0-0.1-2,0-2c0,0,1.8,0.1,1.8,0.1c0.1,0-0.1-2.7,0-2.7
					c0.1,0,2.9,0.8,2.9,0.8c0.1,0-0.1-2.4,0-2.4c0.1,0,2.3-5.6,2.4-5.6c0.1,0-0.1-2.1,0-2.1c0,0,1.7,0,1.8,0c0.1,0-0.1-1.3,0-1.3
					c0.1,0,2.4-1.8,2.5-1.8c0.1,0-0.1-1.2,0-1.2c0.1,0,1.9,2.9,2,2.9c0.1,0-0.1-9.3,0-9.3c0.1,0,1.5,2.7,1.6,2.7
					c0.1,0-0.1-3.3,0-3.3c0.1,0,2.6,0.3,2.7,0.3c0.1,0-0.1-6.9,0-6.9c0.1,0,1.9,1.3,2,1.3c0.1,0-0.1-5.9,0-5.9c0.1,0,2.9-0.4,3-0.4
					c0.1,0-0.1-4.7,0-4.7c0.1,0,2.6-3.8,2.7-3.8c0.1,0-0.1-1.6,0-1.6c0.1,0,2.1-2.2,2.2-2.2c0.2,0-0.2-7.3,0-7.3
					c0.2,0,2.4-5.9,2.6-5.9c0.3,0-0.3-12.4,0-12.4c0.1,0,1.9-5,2-5c0.4,0-0.5-16.3,0-16.3"/>
			</g>
		</g>
	</g>
	<g>
		<g>
			<g>
				<path class="st2" d="M16.2,154.1c0.4,0-0.5-15.9,0-15.9c0.1,0,2.6-2.8,2.7-2.8c0.2,0-0.2-11.6,0-11.6c0.1,0,2.3,0.9,2.4,0.9
					c0.2,0-0.2-8.1,0-8.1c0.1,0,2.3-3.3,2.4-3.3c0.2,0-0.1-6.5,0-6.5c0.1,0,2.3,1.5,2.3,1.5c0.1,0-0.1-4,0-4c0.1,0,2.4-2,2.5-2
					c0.1,0-0.1-0.3,0-0.3c0.1,0,1.7-3.4,1.8-3.4c0.1,0-0.1-2.3,0-2.3c0.1,0,2.5,0.7,2.5,0.7c0.1,0-0.1-6.8,0-6.8
					c0.1,0,1.9,1.7,2,1.7c0.1,0-0.1-3,0-3c0,0,1.9,0.1,1.9,0.1c0.1,0-0.1-6,0-6c0.1,0,2.3-1.2,2.4-1.2c0.1,0-0.1-0.4,0-0.4
					c0.1,0,2.3-0.8,2.4-0.8c0.1,0-0.1-3.3,0-3.3c0.1,0,3.3-3.9,3.4-3.9c0.1,0-0.1-1.8,0-1.8c0.1,0,3.2,0.7,3.2,0.7
					c0.1,0-0.1-0.6,0-0.6c0.1,0,2.6-1.2,2.7-1.2c0.1,0-0.1-1.3,0-1.3c0.1,0,2.5-1.2,2.6-1.2c0.1,0-0.1-1.8,0-1.8
					c0.1,0,1.9-3.7,2.1-3.7c0.1,0-0.1-3,0-3c0.1,0,3,2.8,3,2.8c0.1,0-0.1-2.6,0-2.6c0,0,1.9-0.8,1.9-0.8c0.1,0-0.1-3.9,0-3.9
					c0.1,0,2.6,0.3,2.7,0.3c0.1,0-0.1-4.4,0-4.4c0.1,0,3,4.1,3.1,4.1c0.1,0-0.1-1.8,0-1.8c0.1,0,2.2-1,2.3-1c0.1,0-0.1-6.8,0-6.8
					c0.1,0,2.3,3.8,2.4,3.8c0,0-0.1-2.4,0-2.4c0.1,0,3,0.7,3.1,0.7c0.1,0-0.1-5,0-5c0.1,0,2.3,5.6,2.5,5.6c0.1,0-0.1-8.1,0-8.1
					c0.1,0,2.7,5.1,2.9,5.1c0.1,0-0.1-5.3,0-5.3c0.1,0,2.6,2.2,2.6,2.2c0.1,0-0.1-6,0-6c0.1,0,3.2,5,3.3,5c0.1,0-0.1-2.2,0-2.2
					c0.1,0,3-1.3,3.1-1.3c0,0,0-2.2,0-2.2c0.1,0,2.7,0.9,2.8,0.9c0,0,0-0.4,0-0.4c0.1,0,2.1,1.2,2.1,1.2c0,0-0.1-7.5,0-7.5
					c0.1,0,2.2,5.8,2.4,5.8c0,0-0.1-2.6,0-2.6c0.1,0,2.5,1.4,2.6,1.4c0.1,0-0.1-1.7,0-1.7c0.1,0,3.3-1.6,3.4-1.6c0,0,0-2.1,0-2.1
					c0.1,0,2.7,2.9,2.8,2.9c0.1,0,0-4.1,0-4.1c0.1,0,2.6,2.7,2.7,2.7c0.1,0,0-5.8,0-5.8c0.1,0,3.1,2.9,3.2,2.9c0.1,0-0.1-2.1,0-2.1
					c0.1,0,1.9,4.5,2.1,4.5c0,0-0.1-5.5,0-5.5c0.1,0,3.2,3.3,3.3,3.3c0,0-0.1-4.4,0-4.4c0.1,0,2.4,3.7,2.5,3.7c0.1,0,0-3.1,0-3.1
					c0.1,0,1.9-2.5,2-2.5c0.1,0-0.1-0.7,0-0.7c0.1,0,3.3,2.6,3.4,2.6c0,0-0.1-2,0-2c0.1,0,2.7,0.9,2.8,0.9c0.1,0-0.1-2.6,0-2.6
					c0.1,0,1.8,5.5,1.9,5.5c0.1,0-0.1-4.5,0-4.5c0.1,0,2.5,1,2.6,1c0.1,0,0-1.9,0-1.9c0.1,0,2.5-0.6,2.6-0.6c0.1,0,0-1.8,0-1.8
					c0.1,0,3,4,3.1,4c0.1,0-0.1-4.4,0-4.4c0.1,0,2.6,3.3,2.8,3.3c0.1,0,0-1.9,0-1.9c0.1,0,3,1.5,3.1,1.5c0.1,0,0-1.9,0-1.9
					c0.1,0,3,0.9,3.1,0.9c0.1,0,0-4.2,0-4.2c0.2,0,2.1,5.2,2.3,5.2c0,0-0.1-3,0-3c0.1,0,2.3,2.6,2.4,2.6c0,0,0-3.4,0-3.4
					c0.2,0,2.6,5.3,2.7,5.3c0,0,0-5.5,0-5.5c0.1,0,2.1,4.3,2.3,4.3c0.1,0-0.1-3.1,0-3.1c0.1,0,2.1,2,2.1,2c0.1,0,0-4.8,0-4.8
					c0.1,0,2.4,6.4,2.5,6.4c0,0,0-6.7,0-6.7c0.2,0,2.6,5.8,2.7,5.8c0,0,0-0.9,0-0.9c0.1,0,2.1-2.8,2.2-2.8c0,0-0.1-2.1,0-2.1
					c0.2,0,2.9,5.1,3,5.1c0.1,0-0.1-1.9,0-1.9c0.1,0,2.6,2.1,2.7,2.1c0,0,0-1.9,0-1.9c0.1,0,2.9,0,2.9,0c0.1,0,0-1.4,0-1.4
					c0.1,0,3.2,0.7,3.3,0.7c0.1,0,0-1.9,0-1.9c0.2,0,2.5,7.7,2.7,7.7c0.1,0-0.1-1.2,0-1.2c0.1,0,2.9-1.3,2.9-1.3c0,0,0-2,0-2
					c0.1,0,2.9,3.1,3,3.1c0.1,0-0.1-4.2,0-4.2c0.1,0,2.6,4.8,2.7,4.8c0,0-0.1-1.9,0-1.9c0.1,0,2.6,4.2,2.8,4.2c0,0,0-7,0-7
					c0.2,0,2.5,9.2,2.8,9.2c0.1,0,0-5.7,0-5.7c0.1,0,2.7,3.4,2.8,3.4c0,0,0-0.8,0-0.8c0.1,0,1.8,4.1,1.9,4.1c0.1,0,0-2.5,0-2.5
					c0.1,0,2.3,0.7,2.4,0.7c0,0-0.1-0.4,0-0.4c0.1,0,2.6,0.7,2.7,0.7c0,0-0.1-2,0-2c0.1,0,2.8,3,2.9,3c0,0,0-2,0-2
					c0.1,0,2.9,0.8,2.9,0.8c0,0,0-0.8,0-0.8c0.1,0,2.3,3.9,2.4,3.9c0.1,0-0.1-2,0-2c0.1,0,1.7,3,1.8,3c0.1,0,0-1.4,0-1.4
					c0.1,0,2.4,5.5,2.5,5.5c0.1,0-0.1-5.5,0-5.5c0.1,0,2.2,3,2.3,3c0.1,0-0.1-4.3,0-4.3c0.2,0,2.3,5.7,2.4,5.7c0.1,0-0.1-4.8,0-4.8
					c0.1,0,2.3,4.6,2.4,4.6c0,0-0.1-2.6,0-2.6c0.2,0,2.6,5.5,2.8,5.5c0,0,0-2.1,0-2.1c0.1,0,3,4,3.2,4c0.1,0-0.1-1.5,0-1.5
					c0.1,0,2.6,4.1,2.8,4.1c0,0-0.1-6.5,0-6.5c0.2,0,2.3,5.8,2.5,5.8c0.1,0,0-2.4,0-2.4c0.2,0,3,6.2,3.2,6.2c0.1,0-0.1-6.3,0-6.3
					c0.1,0,2.1,6.9,2.3,6.9c0.1,0-0.1-2.3,0-2.3c0.1,0,2.4,1.1,2.5,1.1c0.1,0-0.1-2.2,0-2.2c0.2,0,1.8,6.5,2,6.5c0.1,0,0-2.4,0-2.4
					c0.1,0,2.9,2.3,3,2.3c0.1,0-0.1-1,0-1c0.1,0,2.6,4,2.7,4c0.1,0-0.1-4,0-4c0.1,0,3.1,6.4,3.2,6.4c0.1,0-0.1-0.7,0-0.7
					c0.2,0,2.6,8.2,2.8,8.2c0.1,0-0.1-8.9,0-8.9c0.2,0,2.9,6.3,3.1,6.3c0.1,0-0.1-3.1,0-3.1c0.2,0,2.9,6.6,3.1,6.6
					c0.1,0-0.1-0.6,0-0.6c0.2,0,2.9,7.4,3,7.4c0.1,0-0.1-7.6,0-7.6c0.3,0,2.6,10.9,2.8,10.9c0.1,0-0.1-4.7,0-4.7
					c0.1,0,2.7,6.1,2.9,6.1c0.1,0-0.1-5.6,0-5.6c0.2,0,1.8,7.1,2,7.1c0.1,0-0.1-4.3,0-4.3c0.3,0,2.6,8.8,2.8,8.8
					c0.1,0-0.1-3.2,0-3.2c0.2,0,1.7,6.6,1.9,6.6c0.1,0-0.1-1.3,0-1.3c0.1,0,2.9,4.7,3.1,4.7c0.1,0-0.1-3.9,0-3.9
					c0.3,0,1.6,9.7,1.9,9.7c0.1,0-0.1-5.4,0-5.4c0.1,0,1.9,4.8,2,4.8c0.1,0-0.1-1.6,0-1.6c0.2,0,2.6,8.3,2.8,8.3
					c0.1,0-0.1-0.7,0-0.7c0.2,0,1.6,7.3,1.8,7.3c0.1,0-0.1-10.5,0-10.5c0.3,0,2,13,2.4,13c0.1,0-0.1-7.7,0-7.7
					c0.4,0,1.7,15.2,2.1,15.2c0.1,0-0.1-10.7,0-10.7c0.5,0,2.7,18,3.2,18c0.1,0-0.2-4,0-4c0.2,0,1.9,9.1,2.2,9.1
					c0.2,0-0.2-8.8,0-8.8c0.7,0,2.2,27.4,2.9,27.4c0.2,0-0.3-12,0-12"/>
				<path class="st2" d="M14.2,168.9c0.5,0-0.3-17.4,0-17.4c0.9,0,1.5,38.4,2.4,38.4c0.3,0-0.3-14.9,0-14.9c0.6,0,1.7,21.9,2.3,21.9
					c0.2,0-0.2-3.6,0-3.6c0.3,0,1.8,10.8,2.1,10.8c0.2,0-0.2-6.5,0-6.5c0.4,0,2.5,15.5,2.8,15.5c0.1,0-0.2-1,0-1
					c0.3,0,3.1,9.9,3.3,9.9c0.1,0-0.1-6.7,0-6.7c0.3,0,3,13.3,3.2,13.3c0.1,0-0.1-4.4,0-4.4c0.3,0,1.8,12,2.1,12
					c0.1,0-0.1-7.6,0-7.6c0.3,0,3,10.9,3.3,10.9c0.1,0-0.1-5.2,0-5.2c0.2,0,2.6,9.8,2.8,9.8c0.1,0-0.1-3.1,0-3.1
					c0.2,0,2.2,7.6,2.5,7.6c0.1,0-0.1-4.5,0-4.5c0.2,0,2.2,7.5,2.4,7.5c0.1,0-0.1-3.6,0-3.6c0.1,0,2.6,5.8,2.7,5.8
					c0.1,0-0.1-3.1,0-3.1c0.2,0,1.9,6.4,2.1,6.4c0.1,0-0.1-7.1,0-7.1c0.3,0,2.4,9.9,2.7,9.9c0.1,0-0.1-2.2,0-2.2
					c0.2,0,1.7,6.4,1.8,6.4c0.1,0-0.1-8.7,0-8.7c0.2,0,2.8,9.1,3,9.1c0.1,0-0.1-2.7,0-2.7c0.2,0,2.3,7,2.5,7c0.1,0-0.1-2.3,0-2.3
					c0.1,0,2.2,5.2,2.3,5.2c0.1,0-0.1-7.2,0-7.2c0.3,0,2.4,10.6,2.7,10.6c0.1,0-0.1-5.8,0-5.8c0.1,0,1.8,4,1.8,4
					c0.1,0-0.1-2.5,0-2.5c0.2,0,3.1,7.8,3.3,7.8c0.1,0-0.1-7.2,0-7.2c0.2,0,2.4,6.8,2.6,6.8c0.1,0-0.1-2.4,0-2.4
					c0.1,0,1.8,1.6,1.9,1.6c0.1,0-0.1-0.6,0-0.6c0.2,0,3.1,8.1,3.3,8.1c0.1,0-0.1-5.1,0-5.1c0.3,0,3.1,7.7,3.4,7.7
					c0.1,0-0.1-5.6,0-5.6c0.1,0,2.1,3.9,2.2,3.9c0.1,0-0.1-2.3,0-2.3c0.1,0,2.6,3.9,2.7,3.9c0.1,0,0-2.2,0-2.2
					c0.1,0,1.8,5.1,1.9,5.1c0.1,0-0.1-0.8,0-0.8c0.1,0,3.2,1,3.3,1c0,0-0.1-0.6,0-0.6c0.1,0,2.9,2.2,2.9,2.2c0,0-0.1-2.1,0-2.1
					c0.1,0,2.8,2.5,2.9,2.5c0.1,0,0-2.9,0-2.9c0.1,0,1.8,4.9,1.9,4.9c0,0,0-2.1,0-2.1c0.1,0,3.3,1.6,3.4,1.6c0.1,0,0-1.3,0-1.3
					c0.2,0,3.1,7.7,3.3,7.7c0.1,0,0-8.3,0-8.3c0.1,0,2.2,5.1,2.3,5.1c0.1,0,0-2.7,0-2.7c0.1,0,2.2,4.8,2.3,4.8c0,0,0-2,0-2
					c0.1,0,2.6,3.9,2.7,3.9c0,0,0-4.3,0-4.3c0.1,0,2.1,4.2,2.2,4.2c0,0-0.1-2,0-2c0.1,0,2.2,2.7,2.3,2.7c0,0,0-2,0-2
					c0.1,0,2.5,2.8,2.6,2.8c0,0-0.1-2,0-2c0.1,0,3.2,2.9,3.3,2.9c0.1,0,0-2,0-2c0.1,0,2.2,4.2,2.3,4.2c0,0-0.1-4,0-4
					c0.2,0,2.4,5.6,2.5,5.6c0.1,0,0-5.2,0-5.2c0.1,0,2.8,3.2,2.9,3.2c0.1,0-0.1-2,0-2c0.1,0,2,1.9,2.1,1.9c0,0-0.1-1.8,0-1.8
					c0.1,0,1.6,2.6,1.7,2.6c0.1,0,0-1.9,0-1.9c0.1,0,2.3,2.4,2.4,2.4c0,0,0-1.9,0-1.9c0.1,0,2.9,2.6,3,2.6c0,0-0.1-0.6,0-0.6
					c0.1,0,1.6,4.1,1.8,4.1c0.1,0,0-8.6,0-8.6c0.1,0,2.1,5.3,2.3,5.3c0,0,0-0.7,0-0.7c0.1,0,2.7,2.9,2.8,2.9c0,0,0-5.3,0-5.3
					c0.1,0,2.7,3.9,2.8,3.9c0.1,0-0.1-2.2,0-2.2c0.1,0,2,3,2.1,3c0,0-0.1-1.9,0-1.9c0.1,0,2.9,2.3,3,2.3c0.1,0,0-6.3,0-6.3
					c0.2,0,2.8,5.3,3,5.3c0.1,0,0-1.9,0-1.9c0.1,0,2.8,3.2,2.9,3.2c0.1,0,0-2.2,0-2.2c0.1,0,3.3,2.5,3.4,2.5c0,0,0-6.7,0-6.7
					c0.2,0,3.1,8.1,3.2,8.1c0.1,0,0-5.4,0-5.4c0.2,0,2.7,5.3,2.8,5.3c0,0,0-4.2,0-4.2c0.1,0,2.5,1.5,2.5,1.5c0.1,0-0.1-4,0-4
					c0.1,0,3.3,3,3.4,3c0.1,0-0.1-1.9,0-1.9c0.1,0,3.3-1.3,3.4-1.3c0,0-0.1-0.1,0-0.1c0.1,0,2.2,6,2.4,6c0,0,0-8.2,0-8.2
					c0.1,0,1.9,4.6,2,4.6c0,0,0-1.9,0-1.9c0.1,0,2.8-1.5,2.8-1.5c0.1,0-0.1-1.7,0-1.7c0.1,0,2.6,5.6,2.7,5.6c0.1,0,0-4.3,0-4.3
					c0.1,0,1.9,2.4,1.9,2.4c0,0,0-2,0-2c0.1,0,2.7,4.2,2.8,4.2c0.1,0-0.1-2.5,0-2.5c0.1,0,3.2,0.4,3.3,0.4c0.1,0,0-4.5,0-4.5
					c0.1,0,3,2.1,3,2.1c0,0,0-2,0-2c0.2,0,2.5,4.5,2.6,4.5c0.1,0-0.1-2.4,0-2.4c0.1,0,2.4-1.6,2.5-1.6c0.1,0,0-2,0-2
					c0.1,0,2.9,3.8,3.1,3.8c0,0-0.1-5,0-5c0.1,0,2.7,2.2,2.8,2.2c0.1,0-0.1-1.3,0-1.3c0.1,0,1.7,2.9,1.7,2.9c0.1,0-0.1-3.6,0-3.6
					c0.1,0,2.3-0.4,2.3-0.4c0.1,0,0-0.3,0-0.3c0.1,0,2-0.6,2-0.6c0.1,0,0-2.1,0-2.1c0.1,0,1.8,3.3,1.9,3.3c0.1,0,0-4.6,0-4.6
					c0.1,0,1.9,1.7,2,1.7c0.1,0-0.1-2.1,0-2.1c0.1,0,3-2.6,3.1-2.6c0.1,0-0.1-0.8,0-0.8c0.2,0,2.1,5.8,2.2,5.8c0.1,0,0-7.1,0-7.1
					c0.1,0,3.1,0,3.2,0c0,0,0-1.3,0-1.3c0.1,0,3.1,4.4,3.2,4.4c0.1,0-0.1-4.2,0-4.2c0.1,0,3.2-2.6,3.3-2.6c0.1,0,0-2.1,0-2.1
					c0.1,0,2,4.3,2.1,4.3c0.1,0-0.1-4.4,0-4.4c0.1,0,2.8,2.2,2.9,2.2c0.1,0-0.1-5.5,0-5.5c0.1,0,2.9,5.5,3,5.5c0,0-0.1-3.2,0-3.2
					c0.1,0,2.9-2.3,3-2.3c0.1,0-0.1-2.7,0-2.7c0.1,0,2.9-1.4,3-1.4c0.1,0-0.1-1.3,0-1.3c0.1,0,2.9,3.7,3,3.7c0.1,0-0.1-4.6,0-4.6
					c0.1,0,2.5,3,2.6,3c0.1,0-0.1-7.6,0-7.6c0.2,0,1.7,6.8,1.8,6.8c0.1,0-0.1-5.1,0-5.1c0.1,0,2.5,0.5,2.6,0.5c0.1,0-0.1-1.1,0-1.1
					c0.1,0,3.1,0.2,3.2,0.2c0.1,0-0.1-3.6,0-3.6c0.1,0,3-1.5,3-1.5c0.1,0-0.1-2.5,0-2.5c0.1,0,2.1-0.2,2.2-0.2c0.1,0-0.1-5.1,0-5.1
					c0.1,0,2.5,1,2.5,1c0.1,0-0.1-5.8,0-5.8c0.2,0,1.8,6.7,2,6.7c0.1,0-0.1-6.7,0-6.7c0.1,0,3,0.2,3,0.2c0.1,0-0.1-2.9,0-2.9
					c0.1,0,3.2-2.9,3.3-2.9c0.1,0-0.1-2.6,0-2.6c0.1,0,2.7,0.5,2.8,0.5c0.1,0-0.1-4,0-4c0.1,0,2.4-2.1,2.4-2.1c0.1,0-0.1-5.5,0-5.5
					c0.1,0,1.6,5.7,1.7,5.7c0.1,0-0.1-2.8,0-2.8c0.1,0,3-4.3,3.1-4.3c0.1,0-0.1-4.1,0-4.1c0.1,0,2.9,0.4,3,0.4c0.1,0-0.1-8.7,0-8.7
					c0.1,0,1.8,3.3,1.9,3.3c0.1,0-0.1-4.4,0-4.4c0.1,0,3.1-1.3,3.2-1.3c0.2,0-0.1-6.4,0-6.4c0.1,0,2.2-3.2,2.2-3.2
					c0.2,0-0.2-7.1,0-7.1c0.2,0,3.2-4.8,3.3-4.8c0.2,0-0.2-12.1,0-12.1c0.3,0,3-11,3.2-11c0.4,0-0.5-20.1,0-20.1"/>
			</g>
		</g>
	</g>
	<g>
		<g>
			<g>
				<path class="st3" d="M4.3,153.3c0.5,0-0.5-22.3,0-22.3c0.1,0,2.7-2.8,2.8-2.8c0.2,0-0.2-5.8,0-5.8c0.1,0,3.1-1.8,3.2-1.8
					c0.1,0-0.2-10.1,0-10.1c0.1,0,2.6-3,2.7-3c0.1,0-0.2-3.7,0-3.7c0.1,0,2,2.2,2.1,2.2c0.1,0-0.2-8.4,0-8.4c0.1,0,3.5-4.2,3.7-4.2
					c0.1,0-0.1-4.8,0-4.8c0.1,0,3-2.5,3.1-2.5c0.1,0-0.1-3.3,0-3.3c0.1,0,2,1.8,2.1,1.8c0.1,0-0.1-1.3,0-1.3c0.1,0,2.5-4.9,2.6-4.9
					c0.1,0-0.1-1.7,0-1.7c0.1,0,2.8,0.9,2.9,0.9c0.1,0-0.1-2.3,0-2.3c0.1,0,2.7-2.7,2.8-2.7c0.1,0-0.1-3.6,0-3.6
					c0.1,0,2.2,3.1,2.3,3.1c0.1,0-0.1-3,0-3c0.1,0,2.6-3.3,2.7-3.3c0.1,0-0.1-3.3,0-3.3c0.1,0,2,2.3,2.1,2.3c0.1,0-0.1-6.5,0-6.5
					c0.1,0,2.4,3.1,2.5,3.1c0.1,0-0.1-5.1,0-5.1c0.1,0,2.2,0.1,2.2,0.1c0.1,0-0.1-3.8,0-3.8c0.1,0,3.3,0.9,3.3,0.9
					c0.1,0-0.1-0.6,0-0.6c0.1,0,3.2-2,3.3-2c0.1,0-0.1-2.9,0-2.9c0.1,0,3.3-1.8,3.4-1.8c0.1,0-0.1-2.6,0-2.6c0.1,0,3,0.6,3.1,0.6
					c0.1,0-0.1-1.7,0-1.7c0.1,0,2.7,0,2.8,0c0.1,0-0.1-2.7,0-2.7c0.1,0,2-0.3,2-0.3c0.1,0-0.1-0.6,0-0.6c0.1,0,3.2,1.6,3.3,1.6
					c0.1,0-0.1-1.9,0-1.9c0.1,0,2.1,0.4,2.1,0.4c0.1,0-0.1-3.5,0-3.5c0.1,0,2.7-0.3,2.8-0.3c0.1,0-0.1-6.2,0-6.2
					c0.2,0,3.3,5.7,3.4,5.7c0.1,0-0.1-7.9,0-7.9c0.2,0,2.4,6.3,2.6,6.3c0.1,0-0.1-5,0-5c0.1,0,2.5,2.9,2.6,2.9c0.1,0-0.1-5.2,0-5.2
					c0.1,0,3.3-0.5,3.3-0.5c0.1,0-0.1-0.8,0-0.8c0.1,0,3.1,0.9,3.1,0.9c0.1,0-0.1-2.4,0-2.4c0.1,0,3.2,1.7,3.2,1.7
					c0.1,0-0.1-4.6,0-4.6c0.1,0,3.1,2,3.2,2c0.1,0-0.1-2.3,0-2.3c0.1,0,2.1,4.8,2.3,4.8c0.1,0-0.1-4.6,0-4.6c0.1,0,2.5-0.2,2.6-0.2
					c0.1,0-0.1-2.3,0-2.3c0.1,0,2.1,2.2,2.2,2.2c0.1,0-0.1-1.6,0-1.6c0.1,0,3.3-0.5,3.4-0.5c0.1,0-0.1-1.4,0-1.4
					c0.1,0,2,2.6,2.1,2.6c0.1,0-0.1-7.5,0-7.5c0.1,0,3.1,0.7,3.2,0.7c0,0-0.1-0.8,0-0.8c0.1,0,2,3.5,2.1,3.5c0.1,0,0-2.2,0-2.2
					c0.1,0,2.8,1.2,2.9,1.2c0,0-0.1-2.2,0-2.2c0.1,0,2.5,4.9,2.7,4.9c0.1,0-0.1-8.4,0-8.4c0.1,0,3.4,4.8,3.5,4.8c0.1,0,0,0,0,0
					c0,0,2-0.5,2.1-0.5c0.1,0,0-1.2,0-1.2c0.1,0,3.1,1.9,3.2,1.9c0,0,0-1.4,0-1.4c0,0,1.9,0.8,2,0.8c0.1,0-0.1-2.1,0-2.1
					c0.1,0,2.1-1,2.1-1c0.1,0-0.1-1.8,0-1.8c0.1,0,3.1,1.3,3.2,1.3c0.1,0-0.1-2.1,0-2.1c0.1,0,2.9,1.6,3,1.6c0.1,0-0.1-2.1,0-2.1
					c0.1,0,2.4,1.7,2.5,1.7c0.1,0,0-2.1,0-2.1c0.1,0,2.1,1.3,2.1,1.3c0.1,0-0.1-2,0-2c0.1,0,2.3,4.8,2.5,4.8c0.1,0,0-3.1,0-3.1
					c0.1,0,3.5-1.6,3.6-1.6c0.1,0,0-3.7,0-3.7c0.1,0,2.2,5.1,2.3,5.1c0.1,0-0.1-2.1,0-2.1c0.1,0,3.2,3.6,3.3,3.6c0,0-0.1-0.8,0-0.8
					c0.1,0,2.4-2.2,2.5-2.2c0.1,0-0.1-0.1,0-0.1c0.1,0,2.6,4.5,2.7,4.5c0.1,0-0.1-6.2,0-6.2c0.1,0,2.7,4.4,2.9,4.4
					c0.1,0-0.1-5.6,0-5.6c0.1,0,1.9,4,2,4c0,0,0-2.1,0-2.1c0.1,0,3.3,4.4,3.4,4.4c0,0-0.1-2.3,0-2.3c0.1,0,3,2,3.1,2
					c0,0,0-1.8,0-1.8c0.1,0,2.9,0.9,3,0.9c0,0,0-4.4,0-4.4c0.1,0,1.9,3.7,2,3.7c0.1,0-0.1-2.1,0-2.1c0.2,0,2.4,5.1,2.5,5.1
					c0.1,0-0.1-7.3,0-7.3c0.2,0,2.4,8,2.6,8c0.1,0,0-6.6,0-6.6c0.2,0,3,6,3.1,6c0.1,0,0-5.1,0-5.1c0.1,0,3.2,3.2,3.3,3.2
					c0,0-0.1-2.1,0-2.1c0.1,0,2.4,5.3,2.6,5.3c0,0-0.1-6,0-6c0.2,0,2.3,6.3,2.5,6.3c0.1,0-0.1-4.7,0-4.7c0.2,0,2.4,6.2,2.6,6.2
					c0,0-0.1-6.3,0-6.3c0.1,0,2.9,1.1,3,1.1c0.1,0,0-0.9,0-0.9c0.1,0,3,3.2,3.1,3.2c0.1,0,0-1.8,0-1.8c0.1,0,3,3.2,3.1,3.2
					c0,0-0.1-2.1,0-2.1c0.1,0,1.8,4.5,1.9,4.5c0,0-0.1-3.9,0-3.9c0.1,0,2,2.9,2.1,2.9c0.1,0-0.1-0.9,0-0.9c0.1,0,3.5,1.8,3.6,1.8
					c0,0-0.1-2.2,0-2.2c0.2,0,1.9,6.3,2.1,6.3c0.1,0,0-3.5,0-3.5c0.1,0,2-1.2,2.1-1.2c0.1,0-0.1-1.5,0-1.5c0.2,0,3,4.7,3.2,4.7
					c0.1,0-0.1-2.2,0-2.2c0.1,0,3.4,3.6,3.6,3.6c0,0,0-2.2,0-2.2c0.1,0,1.9,0,2,0c0.1,0-0.1-0.9,0-0.9c0.1,0,3.2,2.5,3.2,2.5
					c0.1,0-0.1-1.1,0-1.1c0.2,0,2.9,9.2,3.1,9.2c0.1,0,0-9.1,0-9.1c0.2,0,2.1,7.9,2.3,7.9c0,0-0.1-3.8,0-3.8c0.2,0,3,6,3.2,6
					c0,0-0.1-3.1,0-3.1c0.1,0,2.4,3.2,2.5,3.2c0.1,0-0.1-1.6,0-1.6c0.1,0,2.9,2.5,3,2.5c0.1,0-0.1-2.4,0-2.4c0.2,0,2,6.4,2.2,6.4
					c0.1,0-0.1-8.4,0-8.4c0.2,0,2,9.3,2.2,9.3c0.1,0-0.1-3.7,0-3.7c0.1,0,2.2,2.8,2.3,2.8c0.1,0-0.1-2.5,0-2.5
					c0.2,0,3.2,6.2,3.4,6.2c0.1,0-0.1-2.6,0-2.6c0.1,0,1.9,2.5,2,2.5c0.1,0-0.1-2.5,0-2.5c0.2,0,3.2,6.7,3.4,6.7
					c0.1,0-0.1-7.2,0-7.2c0.3,0,2.6,8.7,2.9,8.7c0.1,0-0.1-3.6,0-3.6c0.2,0,3.2,6.8,3.4,6.8c0.1,0-0.1-1.2,0-1.2
					c0.2,0,3.5,6.7,3.7,6.7c0.1,0-0.1-5.1,0-5.1c0.2,0,3,6.5,3.2,6.5c0.1,0-0.1-1.2,0-1.2c0.1,0,2.2,1.3,2.3,1.3
					c0.1,0-0.1-2.9,0-2.9c0.2,0,2.7,5.8,2.9,5.8c0.1,0-0.1-3,0-3c0.2,0,2.7,8.9,2.9,8.9c0.1,0-0.1-9.1,0-9.1
					c0.3,0,2.4,11.2,2.7,11.2c0.1,0-0.1-2,0-2c0.1,0,2.5,2.6,2.6,2.6c0.1,0-0.1-4,0-4c0.3,0,3.4,11.4,3.6,11.4c0.1,0-0.1-9.3,0-9.3
					c0.4,0,2.9,14.9,3.3,14.9c0.1,0-0.1-7.9,0-7.9c0.2,0,2,7.6,2.2,7.6c0.1,0-0.1-3.7,0-3.7c0.3,0,2.9,11.6,3.2,11.6
					c0.1,0-0.1-7.3,0-7.3c0.2,0,2.4,7.8,2.6,7.8c0.1,0-0.1-2.9,0-2.9c0.2,0,2.2,10,2.4,10c0.1,0-0.1-4.6,0-4.6
					c0.2,0,2.1,10.4,2.4,10.4c0.1,0-0.1-4.7,0-4.7c0.2,0,2.4,6.9,2.6,6.9c0.1,0-0.1-3,0-3c0.4,0,3.3,14.5,3.7,14.5
					c0.2,0-0.1-7.5,0-7.5c0.3,0,2.6,10,3,10c0.2,0-0.2-0.1,0-0.1c0.4,0,1.9,14.5,2.4,14.5c0.2,0-0.2-11.1,0-11.1
					c0.4,0,1.5,16.8,1.9,16.8c0.3,0-0.2-9.2,0-9.2c0.9,0,1.7,32,2.4,32c0.5,0-0.4-19.2,0-19.2"/>
				<path class="st3" d="M2.2,169.4c0.4,0-0.4-16.6,0-16.6c0.9,0,1.5,40.5,2.4,40.5c0.3,0-0.3-17.6,0-17.6c0.7,0,2.3,26.4,3.1,26.4
					c0.2,0-0.2-5,0-5c0.3,0,2.1,12.3,2.4,12.3c0.2,0-0.1-3.5,0-3.5c0.4,0,2.4,14.6,2.7,14.6c0.1,0-0.1-5.2,0-5.2
					c0.2,0,2.5,8.6,2.7,8.6c0.1,0-0.1-4.6,0-4.6c0.3,0,2.4,12.8,2.8,12.8c0.1,0-0.1-4.8,0-4.8c0.3,0,3.2,10.8,3.5,10.8
					c0.1,0-0.1-2.3,0-2.3c0.1,0,2.1,3.7,2.2,3.7c0.1,0-0.1-4.4,0-4.4c0.3,0,1.6,11.2,1.9,11.2c0.1,0-0.1-7,0-7
					c0.3,0,2.6,12.2,2.9,12.2c0.1,0-0.1-4.6,0-4.6c0.2,0,2.2,7.3,2.4,7.3c0.1,0-0.1-1.7,0-1.7c0.1,0,1.9,3,2,3c0.1,0-0.1-4.6,0-4.6
					c0.3,0,2.4,11.2,2.7,11.2c0.1,0-0.1-6.3,0-6.3c0.2,0,2.4,7.2,2.6,7.2c0.1,0-0.1-6.1,0-6.1c0.2,0,3,9.3,3.2,9.3
					c0.1,0-0.1-3.9,0-3.9c0.2,0,2.3,6.7,2.5,6.7c0.1,0-0.1-3,0-3c0.2,0,2.4,6.5,2.6,6.5c0.1,0-0.1-3,0-3c0.2,0,1.8,5.7,1.9,5.7
					c0.1,0-0.1-6.3,0-6.3c0.3,0,2.8,12.3,3.1,12.3c0.1,0-0.1-3.4,0-3.4c0.1,0,3.2,4.2,3.3,4.2c0.1,0-0.1-1.1,0-1.1
					c0.1,0,3.1,2.8,3.2,2.8c0.1,0-0.1-1.2,0-1.2c0.1,0,3.4,2.4,3.5,2.4c0.1,0-0.1-1.6,0-1.6c0.1,0,2.5,5,2.7,5c0.1,0-0.1-2.6,0-2.6
					c0.2,0,3.5,5.7,3.7,5.7c0.1,0-0.1-2.9,0-2.9c0.2,0,1.9,7.7,2.1,7.7c0.1,0-0.1-8.3,0-8.3c0.1,0,2,4.9,2.1,4.9
					c0.1,0-0.1-4.8,0-4.8c0.2,0,1.8,6.3,1.9,6.3c0.1,0-0.1-0.8,0-0.8c0.1,0,2,4,2,4c0.1,0-0.1-3.1,0-3.1c0.1,0,1.8,3.3,1.9,3.3
					c0.1,0-0.1-2.4,0-2.4c0.2,0,2.1,6.5,2.3,6.5c0.1,0-0.1-8.5,0-8.5c0.2,0,1.8,8.3,1.9,8.3c0.1,0-0.1-7.1,0-7.1
					c0.2,0,3.2,6.7,3.4,6.7c0.1,0-0.1-0.7,0-0.7c0.1,0,2.4,4.7,2.5,4.7c0.1,0-0.1-6.4,0-6.4c0.2,0,2.5,7.7,2.7,7.7
					c0.1,0-0.1-6.2,0-6.2c0.2,0,2.8,5.7,3,5.7c0.1,0-0.1-2.3,0-2.3c0.1,0,2.9,3.3,3,3.3c0,0-0.1-1.6,0-1.6c0.1,0,1.9,4.3,2,4.3
					c0.1,0-0.1-7,0-7c0.2,0,2.5,9.3,2.7,9.3c0.1,0-0.1-6.9,0-6.9c0.1,0,2.5,2.1,2.6,2.1c0.1,0-0.1-1.1,0-1.1c0.2,0,3.2,5.4,3.3,5.4
					c0,0-0.1-2.2,0-2.2c0.2,0,3.3,5.2,3.4,5.2c0.1,0-0.1-0.7,0-0.7c0.1,0,3.3,3.2,3.4,3.2c0,0-0.1-2.8,0-2.8c0.1,0,1.9,2.4,2,2.4
					c0,0-0.1-2.1,0-2.1c0.1,0,2.2-2.7,2.3-2.7c0.1,0,0-1.1,0-1.1c0.2,0,3.3,6.7,3.5,6.7c0.1,0,0-1.8,0-1.8c0.1,0,3.4,1,3.5,1
					c0,0,0-2.1,0-2.1c0.1,0,2.5,4,2.6,4c0.1,0-0.1-4.2,0-4.2c0.1,0,2.4,3.6,2.5,3.6c0,0-0.1-1.2,0-1.2c0.1,0,2.5,1.5,2.6,1.5
					c0.1,0,0-2.1,0-2.1c0.1,0,2.3,4.5,2.4,4.5c0.1,0,0-0.6,0-0.6c0.1,0,2-1.1,2.1-1.1c0.1,0-0.1-5.7,0-5.7c0.1,0,2.3,4,2.4,4
					c0,0,0-3.7,0-3.7c0.2,0,2.9,7.3,3.1,7.3c0.1,0-0.1-6.9,0-6.9c0.2,0,3.2,5.9,3.4,5.9c0.1,0-0.1-1.7,0-1.7c0.1,0,3.1,1.5,3.2,1.5
					c0.1,0-0.1-2.9,0-2.9c0.1,0,2.9,5.6,3.1,5.6c0.1,0-0.1-7,0-7c0.3,0,3.1,8.1,3.3,8.1c0,0-0.1-2.4,0-2.4c0.1,0,3.5,1.1,3.6,1.1
					c0,0,0-1.1,0-1.1c0.1,0,3.2-0.7,3.3-0.7c0.1,0-0.1-2.1,0-2.1c0.1,0,2.5,2,2.6,2c0,0-0.1-2.1,0-2.1c0.1,0,2.1,2,2.1,2
					c0,0-0.1-2.1,0-2.1c0.1,0,3.2,1.9,3.3,1.9c0,0,0-2.1,0-2.1c0.1,0,1.9,1.9,2,1.9c0.1,0,0-2.1,0-2.1c0.1,0,1.9,1.8,2,1.8
					c0.1,0-0.1-4.3,0-4.3c0.2,0,3.3,7,3.4,7c0,0,0-1.3,0-1.3c0.1,0,2.5,0.6,2.6,0.6c0.1,0-0.1-3,0-3c0.1,0,3.3-2.7,3.4-2.7
					c0.1,0-0.1-2.6,0-2.6c0.1,0,2.4,4,2.5,4c0.1,0-0.1-0.7,0-0.7c0.1,0,2.6,1.2,2.6,1.2c0.1,0-0.1-2.1,0-2.1c0.1,0,1.9,1.7,2,1.7
					c0.1,0-0.1-2.1,0-2.1c0.1,0,3,1.5,3,1.5c0.1,0-0.1-2.1,0-2.1c0.1,0,3.2-0.1,3.3-0.1c0.1,0-0.1-0.6,0-0.6c0.1,0,2.2,1.5,2.3,1.5
					c0.1,0,0-2.1,0-2.1c0.1,0,2.1,2.1,2.2,2.1c0,0-0.1-2.4,0-2.4c0.1,0,1.9,1.3,2,1.3c0.1,0,0-2.2,0-2.2c0.1,0,3.6,3,3.7,3
					c0.1,0,0-3.3,0-3.3c0.1,0,2.8,2.9,2.9,2.9c0.1,0,0-7.1,0-7.1c0.2,0,2.8,6.7,3,6.7c0.1,0-0.1-6.8,0-6.8c0.1,0,3.3,1.3,3.4,1.3
					c0.1,0-0.1-4.9,0-4.9c0.1,0,3.4,4.4,3.6,4.4c0,0-0.1-2.3,0-2.3c0.1,0,2,0.4,2.1,0.4c0.1,0-0.1-0.2,0-0.2c0.1,0,2.7-0.1,2.7-0.1
					c0,0-0.1-2.3,0-2.3c0.1,0,2.1,1.3,2.1,1.3c0.1,0-0.1-2.3,0-2.3c0.1,0,2.6,1,2.6,1c0.1,0-0.1-2.3,0-2.3c0.1,0,2.8-2.3,2.8-2.3
					c0.1,0-0.1-0.3,0-0.3c0.1,0,2.6,1,2.6,1c0.1,0-0.1-4.6,0-4.6c0.2,0,3.2,4.1,3.4,4.1c0,0-0.1,0,0,0c0.1,0,2.2-1.6,2.3-1.6
					c0.1,0-0.1-2.4,0-2.4c0.1,0,3.6,0.1,3.7,0.1c0.1,0-0.1-2.5,0-2.5c0.1,0,3.5,1.3,3.6,1.3c0.1,0-0.1-3.5,0-3.5
					c0.1,0,3.1,0.8,3.2,0.8c0.1,0-0.1-5.8,0-5.8c0.1,0,3.3,2.6,3.4,2.6c0.1,0-0.1-2.6,0-2.6c0.1,0,2.7-2.8,2.8-2.8
					c0.1,0-0.1-1.9,0-1.9c0.1,0,2,0.9,2,0.9c0.1,0-0.1-0.8,0-0.8c0.1,0,3.3,1.4,3.4,1.4c0.1,0-0.1-6.4,0-6.4c0.1,0,3.3,2.4,3.4,2.4
					c0.1,0-0.1-2.8,0-2.8c0.1,0,3.3-2.6,3.4-2.6c0.1,0-0.1-0.9,0-0.9c0.1,0,2,2.1,2,2.1c0.1,0-0.1-2.9,0-2.9c0,0,2.1,0.8,2.1,0.8
					c0.1,0-0.1-3.8,0-3.8c0.1,0,2.7-2,2.8-2c0.1,0-0.1-2.7,0-2.7c0.1,0,2.6,1.7,2.7,1.7c0.1,0-0.1-0.3,0-0.3c0.1,0,1.8,1.1,1.9,1.1
					c0.1,0-0.1-4.5,0-4.5c0.1,0,2.8-4.4,2.9-4.4c0.1,0-0.1-1.4,0-1.4c0.1,0,2.7-3.8,2.8-3.8c0.1,0-0.1-0.9,0-0.9
					c0.1,0,3.2,0.8,3.3,0.8c0.1,0-0.1-3.8,0-3.8c0,0,2.1-0.8,2.1-0.8c0.1,0-0.1-4.9,0-4.9c0.1,0,2.3,1.3,2.4,1.3
					c0.1,0-0.1-4.1,0-4.1c0.1,0,2.6,1.2,2.7,1.2c0.1,0-0.1-8.2,0-8.2c0.1,0,2.2,2.3,2.3,2.3c0.1,0-0.1-6.5,0-6.5
					c0.1,0,2.9,1.3,3,1.3c0.1,0-0.2-3.8,0-3.8c0.1,0,1.9-2.1,2-2.1c0.2,0-0.1-2.6,0-2.6c0.1,0,2.6-4,2.7-4c0.1,0-0.1-4.9,0-4.9
					c0.2,0,3.5-8.7,3.7-8.7c0.2,0-0.2-8.6,0-8.6c0,0,1.9,0.7,1.9,0.7c0.2,0-0.3-7.2,0-7.2c0.3,0,3.2-12.6,3.6-12.6
					c0.6,0-0.6-27.7,0-27.7"/>
			</g>
		</g>
	</g>
</g>
</svg>
