<?xml version="1.0" encoding="utf-8"?>
<!-- Generator: Adobe Illustrator 27.4.0, SVG Export Plug-In . SVG Version: 6.00 Build 0)  -->
<svg version="1.1" id="Calque_1" xmlns="http://www.w3.org/2000/svg" xmlns:xlink="http://www.w3.org/1999/xlink" x="0px" y="0px"
	 viewBox="0 0 320 325" style="enable-background:new 0 0 320 325;" xml:space="preserve">
<style type="text/css">
	.st0{fill:none;stroke:#FF0019;stroke-width:1.1705;stroke-miterlimit:1;}
	.st1{fill:none;stroke:#FF0019;stroke-width:0.9419;stroke-linecap:round;stroke-linejoin:round;}
	.st2{fill:none;stroke:#FF0019;stroke-width:1.03;stroke-linecap:round;stroke-linejoin:round;}
	.st3{fill:none;stroke:#FF0019;stroke-width:1.1165;stroke-linecap:round;stroke-linejoin:round;}
</style>
<g>
	<g>
		<circle class="st0" cx="157.5" cy="162.6" r="113"/>
		<ellipse class="st0" cx="157.5" cy="162.6" rx="102.3" ry="113"/>
		<ellipse class="st0" cx="158.1" cy="162.6" rx="90" ry="113"/>
		<ellipse class="st0" cx="158.5" cy="162.6" rx="73.1" ry="113"/>
		<ellipse class="st0" cx="160.4" cy="162.6" rx="57" ry="113"/>
		<ellipse class="st0" cx="160.6" cy="162.6" rx="41.4" ry="113"/>
		<ellipse class="st0" cx="159.8" cy="162.6" rx="26.4" ry="113"/>
		<ellipse class="st0" cx="159.3" cy="162.4" rx="10.2" ry="113"/>
		<circle class="st0" cx="157.6" cy="162.5" r="113"/>
		<ellipse class="st0" cx="157.6" cy="162.5" rx="113" ry="102.3"/>
		<ellipse class="st0" cx="157.6" cy="161.9" rx="113" ry="90"/>
		<ellipse class="st0" cx="157.6" cy="161.5" rx="113" ry="73.1"/>
		<ellipse class="st0" cx="157.6" cy="159.6" rx="113" ry="57"/>
		<ellipse class="st0" cx="157.6" cy="159.4" rx="113" ry="41.4"/>
		<ellipse class="st0" cx="157.6" cy="160.2" rx="113" ry="26.4"/>
		<ellipse class="st0" cx="157.4" cy="160.7" rx="113" ry="10.2"/>
	</g>
	<g>
		<g>
			<g>
				<path class="st1" d="M25.7,155.4c0.4,0-0.4-14.3,0-14.3c0.2,0,1.9-5.8,2.1-5.8s-0.2-8.8,0-8.8c0.1,0,2.4,2.4,2.5,2.4
					c0.2,0-0.1-6.6,0-6.6s1.6-2.7,1.7-2.7c0.1,0-0.1-1.1,0-1.1c0.1,0,1.8-5.6,1.9-5.6c0.1,0-0.1-4.3,0-4.3s1.8,1.7,1.9,1.7
					c0.1,0-0.1-6.1,0-6.1s2.3,2.4,2.4,2.4c0.1,0-0.1-2,0-2c0,0,1.5-1.3,1.6-1.3s-0.1-5.5,0-5.5s2.4,0.1,2.5,0.1s-0.1-2.9,0-2.9
					s2,2.2,2.1,2.2s-0.1-7.1,0-7.1s2.5-1.3,2.6-1.3s-0.1-2.6,0-2.6s2.6,0.2,2.7,0.2c0.1,0-0.1-3,0-3s2.9,2,3,2s-0.1-6.7,0-6.7
					s2.9-2.4,3-2.4s-0.1-2.7,0-2.7s1.7,4.6,1.9,4.6c0.1,0-0.1-3.7,0-3.7l1.7-0.2c0.1,0-0.1-2.6,0-2.6c0,0,2.1-0.6,2.2-0.6
					s-0.1-1.7,0-1.7s1.8,0.2,1.9,0.2s-0.1-3.4,0-3.4s2,1.9,2.1,1.9s-0.1-5.6,0-5.6s1.8,3.6,1.9,3.6s-0.1-1.1,0-1.1s2.9,0.1,2.9,0.1
					c0.1,0-0.1-5.9,0-5.9s2,1.7,2.1,1.7s-0.1-1.3,0-1.3s3,1,3,1c0.1,0,0-6.1,0-6.1c0.1,0,2.7,2.3,2.8,2.3c0.1,0,0-2.2,0-2.2
					c0.1,0,1.9-2,2-2s-0.1-2.1,0-2.1s2.6,2.8,2.7,2.8v-3.4c0.1,0,1.8,4.7,1.9,4.7s0-2.2,0-2.2l1.6-0.6c0,0-0.1-0.4,0-0.4l1.6-0.7
					v-1.9c0.1,0,2.8,1.4,2.9,1.4c0,0-0.1-4.6,0-4.6s3,1,3.1,1s0-2,0-2c0.1,0,1.7,2.5,1.8,2.5v-4.3c0.1,0,1.9,3.2,2,3.2
					s-0.1-6.2,0-6.2c0.2,0,2.5,6.1,2.6,6.1v-2.7c0.1,0,2.6-0.3,2.7-0.3s0-2.1,0-2.1c0.1,0,2.8,2,2.9,2s0-2.9,0-2.9
					c0.1,0,2.4-0.2,2.5-0.2v-1.9c0.1,0,2.4,2.3,2.5,2.3s0-1.9,0-1.9s1.8,0.3,1.9,0.3v-4.6c0.1,0,1.9,2.4,2,2.4v-3
					c0.1,0,2,3.1,2.1,3.1v-0.3c0.1,0,2.9,1,2.9,1s-0.1-4.7,0-4.7s1.8,1.6,1.9,1.6v-2.6c0.1,0,3,5,3.1,5v-1.7c0.1,0,2.8-2.1,2.9-2.1
					c0,0-0.1-0.2,0-0.2s2.8,0.5,2.8,0.5v-3.3c0.1,0,2.1,2.4,2.2,2.4v-0.7c0.1,0,2.5,3.4,2.5,3.4s-0.1-5.7,0-5.7s1.7,5.6,1.9,5.6
					v-5.3c0.1,0,2.4,3.2,2.5,3.2s0-1.2,0-1.2c0.1,0,2.1,2.6,2.2,2.6v-1.6c0.1,0,2.5,1.3,2.5,1.3v-2.4c0,0,1.5-0.3,1.6-0.3v-1.7
					c0.1,0,2.7,1.5,2.8,1.5V29c0.1,0,1.7,1.6,1.8,1.6v-1.7c0.1,0,1.9,4.6,2.1,4.6v-2.7c0.1,0,1.8,1.5,1.8,1.5v-5.9
					c0.1,0,2,3.3,2.1,3.3v-3.2c0.2,0,1.7,7.1,1.9,7.1c0.1,0,0-3.8,0-3.8c0.1,0,3-0.7,3.1-0.7c0,0-0.1-2.5,0-2.5s2.3,4,2.4,4v-1.7
					c0.1,0,2.9,4.9,3,4.9v-3.4c0.1,0,2.3,0.5,2.4,0.5c0,0-0.1-1.7,0-1.7s1.8,0.9,1.9,0.9v-1.6c0.1,0,2.9,4.2,3,4.2v-4.1
					c0.1,0,1.8,3.1,1.9,3.1v-1.8c0,0,1.5,0.7,1.6,0.7s0,0,0,0c0.1,0,2.1,0.8,2.1,0.8s-0.1-0.4,0-0.4s2.6,2.1,2.7,2.1v-0.4
					c0.1,0,2.7,2.5,2.8,2.5v-5.1c0.1,0,2.5,2.5,2.6,2.5s-0.1-1.2,0-1.2s2.7,0.7,2.8,0.7V30c0.1,0,2,2.6,2.1,2.6s0-1.8,0-1.8
					c0.2,0,1.8,7.7,1.9,7.7v-4.6c0,0,1.7,0.6,1.8,0.6s0-1.2,0-1.2c0.1,0,1.8,4.3,1.9,4.3c0,0-0.1-3.3,0-3.3s2.8,3.4,2.9,3.4v-1.8
					c0.1,0,2.4,4.1,2.6,4.1v-2.2c0.1,0,2.3,1.8,2.3,1.8v-1.9c0.1,0,1.8,2.6,1.8,2.6v-1.9c0.1,0,2.3,1.6,2.4,1.6c0.1,0-0.1-1,0-1
					s2.3,3.4,2.4,3.4c0.1,0,0-1.9,0-1.9c0.1,0,2.8,3.9,2.9,3.9v-2c0.1,0,2.5,5.6,2.6,5.6v-2c0.1,0,2.3-1.5,2.4-1.5v-2
					c0.1,0,1.6,5.4,1.7,5.4c0,0-0.1-4.8,0-4.8s2.9,4.6,3.1,4.6v-3.5c0.3,0,2.4,8.8,2.6,8.8c0.1,0-0.1-5.4,0-5.4
					c0.2,0,2.4,5.2,2.5,5.2v-2.5c0.1,0,2,2.6,2.1,2.6V49c0.2,0,2.5,7,2.7,7c0.1,0-0.1-2.1,0-2.1s2,4.3,2.1,4.3c0,0-0.1-0.5,0-0.5
					s2.5,1.9,2.6,1.9s0-2.2,0-2.2c0.1,0,2.8,4.6,2.9,4.6c0,0-0.1-2.3,0-2.3c0.2,0,2,6.8,2.2,6.8c0,0-0.1-6.5,0-6.5
					c0.3,0,2.2,8.3,2.4,8.3c0.1,0,0-5.1,0-5.1c0.2,0,2.6,4.5,2.7,4.5c0.1,0-0.1-2.4,0-2.4c0.2,0,1.6,5,1.7,5c0.1,0,0-1.7,0-1.7
					c0.1,0,2,4,2.1,4c0.1,0-0.1-3.6,0-3.6s2.7,3.9,2.8,3.9c0.1,0-0.1-0.1,0-0.1c0.2,0,1.9,6.1,2,6.1s-0.1-3.1,0-3.1
					c0.2,0,2.5,5.8,2.6,5.8s-0.1-2.8,0-2.8c0.2,0,2.3,7.9,2.5,7.9c0.1,0-0.1-5.1,0-5.1c0.2,0,1.6,7.9,1.9,7.9c0.1,0-0.1-6.2,0-6.2
					c0.3,0,1.9,10.4,2.1,10.4c0.1,0-0.1-6.5,0-6.5c0.2,0,1.7,9.4,1.9,9.4c0.1,0-0.1-6.5,0-6.5s2,6,2.2,6c0.1,0-0.1-2.5,0-2.5
					s1.5,4,1.6,4s-0.1-1.1,0-1.1c0.3,0,2.4,8.7,2.6,8.7c0.1,0-0.1-2.1,0-2.1c0.2,0,1.4,7.7,1.6,7.7c0.1,0-0.1-5.9,0-5.9
					c0.3,0,2.6,13.9,2.9,13.9c0.1,0-0.1-6.5,0-6.5c0.4,0,2.7,14.7,3,14.7c0.2,0-0.1-7,0-7c0.5,0,2.6,21,3.1,21c0.2,0-0.2-9.5,0-9.5
					c0.4,0,1.2,20.8,1.7,20.8c0.3,0-0.4-15.5,0-15.5"/>
				<path class="st1" d="M23.9,169c0.3,0-0.5-15.8,0-15.8c0.7,0,0.8,33.9,1.8,33.9c0.3,0-0.4-14.2,0-14.2c0.5,0,1.9,21.2,2.4,21.2
					c0.2,0-0.2-2.5,0-2.5c0.3,0,2.7,12,3,12c0.1,0-0.1-0.3,0-0.3c0.3,0,2.1,11.5,2.4,11.5c0.1,0-0.1-7.4,0-7.4
					c0.3,0,2.3,10.3,2.6,10.3c0.1,0-0.1-5.4,0-5.4c0.3,0,1.8,11.3,2.1,11.3c0.1,0-0.1-3.9,0-3.9c0.2,0,2.6,9.3,2.8,9.3
					c0.1,0-0.1-6.1,0-6.1c0.2,0,1.9,8.3,2.2,8.3c0.1,0-0.1-4.9,0-4.9c0.3,0,2.5,12.2,2.9,12.2c0.1,0-0.1-4.5,0-4.5
					c0.2,0,2.5,8.1,2.7,8.1c0.1,0-0.1-6.3,0-6.3c0.2,0,2.6,8,2.7,8c0.1,0-0.1-2.9,0-2.9c0.2,0,2.2,5.9,2.4,5.9c0.1,0-0.1-2.8,0-2.8
					s1.8,3.2,1.9,3.2c0.1,0-0.1-2.4,0-2.4c0.2,0,1.7,7.1,1.9,7.1c0.1,0-0.1-4.4,0-4.4c0.2,0,2.4,6.5,2.6,6.5c0.1,0-0.1-2.5,0-2.5
					s2.9,4.8,3.1,4.8c0.1,0,0-3.6,0-3.6c0.2,0,2.7,6.8,2.9,6.8c0.1,0-0.1-3,0-3c0.2,0,2.3,7.8,2.5,7.8c0.1,0-0.1-2.3,0-2.3
					c0,0,1.8-0.8,1.9-0.8c0,0-0.1-2.3,0-2.3s1.7,3.8,1.8,3.8c0.1,0-0.1-1.1,0-1.1c0.2,0,2.8,6.8,3,6.8c0,0-0.1-1.7,0-1.7
					s1.5,2.2,1.6,2.2s-0.1-2.2,0-2.2s1.7,0.7,1.7,0.7s-0.1-1.3,0-1.3s2.6,6,2.7,6V270c0.1,0,3,5.2,3.1,5.2s-0.1-3.6,0-3.6
					s2.9,4,3.1,4c0.1,0,0-1.8,0-1.8c0.1,0,2.5,2.4,2.6,2.4c0,0-0.1-2.9,0-2.9c0.2,0,1.9,8.8,2.1,8.8v-3.8c0.1,0,1.7,3.4,1.8,3.4
					v-4.8c0.1,0,2.1,5.9,2.3,5.9c0,0-0.1-3.1,0-3.1s2.3,2.7,2.4,2.7s-0.1-1.9,0-1.9s2.9,3.3,3,3.3v-1.9c0.1,0,2.4,4,2.6,4
					c0.1,0,0-4.5,0-4.5c0.2,0,1.4,5.9,1.6,5.9c0.1,0,0-5.9,0-5.9c0.2,0,2.4,4.6,2.5,4.6c0,0-0.1-0.1,0-0.1s1.6,2.3,1.7,2.3v-5.3
					c0.1,0,3,4.8,3.1,4.8c0,0-0.1-0.8,0-0.8s2.3,4.5,2.4,4.5v-4.2c0.1,0,1.6,4.2,1.8,4.2c0.1,0,0-3.9,0-3.9c0.1,0,2.6,3.1,2.7,3.1
					V288c0.2,0,2.7,5.4,2.9,5.4v-5.2c0.1,0,2.9,4.6,3,4.6v-3.9c0.2,0,2,5.5,2.1,5.5v-2.3c0,0,1.6,0.7,1.7,0.7V291
					c0.1,0,2.3,3.7,2.4,3.7v-3.3c0.1,0,2.4-0.1,2.5-0.1v-1.6c0.1,0,2,4.3,2.2,4.3v-4.7c0.1,0,1.7,4.4,1.8,4.4v-3.5
					c0.1,0,2.7,4.6,2.9,4.6c0.1,0,0-1.7,0-1.7c0.1,0,2.1,4.1,2.2,4.1v-5.7c0.1,0,2.7,3.9,2.8,3.9v-1.7l1.6-0.3v-2.3
					c0.1,0,2.4,4.7,2.6,4.7c0.1,0,0-1.7,0-1.7c0.1,0,2.5,1.4,2.6,1.4s0-0.9,0-0.9c0.1,0,2.4,1.4,2.5,1.4v-1.7c0.1,0,1.9,3.9,2,3.9
					s0-0.8,0-0.8c0.1,0,1.6-4.4,1.7-4.4v-1.1c0.2,0,1.9,6.7,2.1,6.7v-2.8c0.1,0,1.5-2.7,1.6-2.7v-0.3c0.1,0,2,3,2.1,3v-1.7
					c0.1,0,1.5-1.1,1.6-1.1s0-1.4,0-1.4c0.1,0,2.9,2.7,3,2.7v-3.4c0.2,0,2.8,6.9,2.9,6.9v-7.3c0.1,0,2,3.6,2.1,3.6s0-3.5,0-3.5
					c0.1,0,2,1.1,2,1.1v-1.6c0.1,0,3,3.9,3.1,3.9v-1.8c0.1,0,2.9,2.1,3,2.1v-4.9c0.2,0,2.5,6.3,2.6,6.3v-2c0.1,0,2.4-0.8,2.5-0.8
					v-0.7c0.1,0,1.5,2.5,1.6,2.5v-5.8c0.1,0,2.7-0.7,2.8-0.7v-1.1c0.1,0,1.6,4.6,1.7,4.6v-5.3c0.1,0,1.9,4.8,2.1,4.8
					c0,0-0.1-2.2,0-2.2s2,1.7,2.1,1.7s0-5.1,0-5.1c0.1,0,1.8,3.1,1.9,3.1c0,0-0.1-1.8,0-1.8s2.6,2.7,2.7,2.7c0.1,0-0.1-6,0-6
					s2.2,2.3,2.3,2.3s0-2.4,0-2.4c0.1,0,1.7,3,1.8,3c0,0-0.1-4.8,0-4.8s2.9,3.3,3,3.3v-2.8c0.1,0,2.6,1.5,2.6,1.5s-0.1-1.9,0-1.9
					s3,1.6,3.1,1.6s-0.1-3.4,0-3.4s1.6,1.5,1.7,1.5c0.1,0-0.1-2,0-2c0,0,1.7,0.4,1.8,0.4c0,0-0.1-3.7,0-3.7s2.3,4,2.4,4
					c0.1,0-0.1-4.5,0-4.5s1.5,2.7,1.6,2.7s-0.1-2,0-2s1.8,2.3,1.9,2.3c0.1,0,0-0.3,0-0.3c0.1,0,1.9-2,2-2s0-2.4,0-2.4
					c0.1,0,2.4,1.8,2.5,1.8c0,0-0.1-4.1,0-4.1s2.3-1.2,2.3-1.2s-0.1-1.4,0-1.4s2.3,4.4,2.5,4.4c0.1,0-0.1-3.2,0-3.2s1.9-0.4,1.9-0.4
					c0.1,0,0-2.2,0-2.2c0.1,0,2.9-2.1,3-2.1c0,0-0.1-0.7,0-0.7s2.3,1.7,2.4,1.7c0.1,0-0.1-5.1,0-5.1s2.3,2.1,2.4,2.1
					c0.1,0-0.1-2.3,0-2.3s2.5,1.3,2.6,1.3s-0.1-3.2,0-3.2s2.1-0.6,2.1-0.6c0.1,0,0-2,0-2c0.1,0,2.2,0.4,2.2,0.4c0.1,0-0.1-3.1,0-3.1
					s2.9,0.1,2.9,0.1c0.1,0-0.1-2.5,0-2.5s2.2,2.7,2.3,2.7c0.1,0-0.1-7.9,0-7.9s2.2,2.5,2.3,2.5c0.1,0-0.1-2,0-2l1.8,0.1
					c0.1,0-0.1-2.7,0-2.7s2.9,0.8,2.9,0.8c0.1,0-0.1-2.4,0-2.4s2.3-5.6,2.4-5.6s-0.1-2.1,0-2.1c0,0,1.7,0,1.8,0c0.1,0-0.1-1.3,0-1.3
					s2.4-1.8,2.5-1.8s-0.1-1.2,0-1.2s1.9,2.9,2,2.9s-0.1-9.3,0-9.3s1.5,2.7,1.6,2.7s-0.1-3.3,0-3.3s2.6,0.3,2.7,0.3s-0.1-6.9,0-6.9
					s1.9,1.3,2,1.3s-0.1-5.9,0-5.9s2.9-0.4,3-0.4s-0.1-4.7,0-4.7s2.6-3.8,2.7-3.8s-0.1-1.6,0-1.6s2.1-2.2,2.2-2.2
					c0.2,0-0.2-7.3,0-7.3s2.4-5.9,2.6-5.9c0.3,0-0.3-12.4,0-12.4c0.1,0,1.9-5,2-5c0.4,0-0.5-16.3,0-16.3"/>
			</g>
		</g>
	</g>
	<g>
		<g>
			<g>
				<path class="st2" d="M14.2,154c0.4,0-0.5-15.9,0-15.9c0.1,0,2.6-2.8,2.7-2.8c0.2,0-0.2-11.6,0-11.6c0.1,0,2.3,0.9,2.4,0.9
					c0.2,0-0.2-8.1,0-8.1c0.1,0,2.3-3.3,2.4-3.3c0.2,0-0.1-6.5,0-6.5s2.3,1.5,2.3,1.5c0.1,0-0.1-4,0-4s2.4-2,2.5-2s-0.1-0.3,0-0.3
					s1.7-3.4,1.8-3.4c0.1,0-0.1-2.3,0-2.3s2.5,0.7,2.5,0.7c0.1,0-0.1-6.8,0-6.8s1.9,1.7,2,1.7s-0.1-3,0-3l1.9,0.1c0.1,0-0.1-6,0-6
					s2.3-1.2,2.4-1.2c0.1,0-0.1-0.4,0-0.4s2.3-0.8,2.4-0.8c0.1,0-0.1-3.3,0-3.3s3.3-3.9,3.4-3.9c0.1,0-0.1-1.8,0-1.8
					s3.2,0.7,3.2,0.7c0.1,0-0.1-0.6,0-0.6s2.6-1.2,2.7-1.2c0.1,0-0.1-1.3,0-1.3s2.5-1.2,2.6-1.2s-0.1-1.8,0-1.8s1.9-3.7,2.1-3.7
					c0.1,0-0.1-3,0-3s3,2.8,3,2.8c0.1,0-0.1-2.6,0-2.6l1.9-0.8c0.1,0-0.1-3.9,0-3.9s2.6,0.3,2.7,0.3c0.1,0-0.1-4.4,0-4.4
					s3,4.1,3.1,4.1s-0.1-1.8,0-1.8s2.2-1,2.3-1c0.1,0-0.1-6.8,0-6.8s2.3,3.8,2.4,3.8c0,0-0.1-2.4,0-2.4s3,0.7,3.1,0.7s-0.1-5,0-5
					s2.3,5.6,2.5,5.6c0.1,0-0.1-8.1,0-8.1s2.7,5.1,2.9,5.1c0.1,0-0.1-5.3,0-5.3s2.6,2.2,2.6,2.2c0.1,0-0.1-6,0-6s3.2,5,3.3,5
					c0.1,0-0.1-2.2,0-2.2s3-1.3,3.1-1.3v-2.2c0.1,0,2.7,0.9,2.8,0.9v-0.4c0.1,0,2.1,1.2,2.1,1.2s-0.1-7.5,0-7.5s2.2,5.8,2.4,5.8
					c0,0-0.1-2.6,0-2.6s2.5,1.4,2.6,1.4s-0.1-1.7,0-1.7s3.3-1.6,3.4-1.6v-2.1c0.1,0,2.7,2.9,2.8,2.9c0.1,0,0-4.1,0-4.1
					c0.1,0,2.6,2.7,2.7,2.7s0-5.8,0-5.8c0.1,0,3.1,2.9,3.2,2.9s-0.1-2.1,0-2.1s1.9,4.5,2.1,4.5c0,0-0.1-5.5,0-5.5s3.2,3.3,3.3,3.3
					c0,0-0.1-4.4,0-4.4s2.4,3.7,2.5,3.7s0-3.1,0-3.1c0.1,0,1.9-2.5,2-2.5s-0.1-0.7,0-0.7s3.3,2.6,3.4,2.6c0,0-0.1-2,0-2
					s2.7,0.9,2.8,0.9c0.1,0-0.1-2.6,0-2.6s1.8,5.5,1.9,5.5c0.1,0-0.1-4.5,0-4.5s2.5,1,2.6,1s0-1.9,0-1.9c0.1,0,2.5-0.6,2.6-0.6
					s0-1.8,0-1.8c0.1,0,3,4,3.1,4s-0.1-4.4,0-4.4s2.6,3.3,2.8,3.3c0.1,0,0-1.9,0-1.9c0.1,0,3,1.5,3.1,1.5s0-1.9,0-1.9
					c0.1,0,3,0.9,3.1,0.9s0-4.2,0-4.2c0.2,0,2.1,5.2,2.3,5.2c0,0-0.1-3,0-3s2.3,2.6,2.4,2.6v-3.4c0.2,0,2.6,5.3,2.7,5.3v-5.5
					c0.1,0,2.1,4.3,2.3,4.3c0.1,0-0.1-3.1,0-3.1s2.1,2,2.1,2c0.1,0,0-4.8,0-4.8c0.1,0,2.4,6.4,2.5,6.4v-6.7c0.2,0,2.6,5.8,2.7,5.8
					v-0.9c0.1,0,2.1-2.8,2.2-2.8c0,0-0.1-2.1,0-2.1c0.2,0,2.9,5.1,3,5.1s-0.1-1.9,0-1.9s2.6,2.1,2.7,2.1V17c0.1,0,2.9,0,2.9,0
					c0.1,0,0-1.4,0-1.4c0.1,0,3.2,0.7,3.3,0.7s0-1.9,0-1.9c0.2,0,2.5,7.7,2.7,7.7c0.1,0-0.1-1.2,0-1.2s2.9-1.3,2.9-1.3v-2
					c0.1,0,2.9,3.1,3,3.1s-0.1-4.2,0-4.2s2.6,4.8,2.7,4.8c0,0-0.1-1.9,0-1.9s2.6,4.2,2.8,4.2v-7c0.2,0,2.5,9.2,2.8,9.2
					c0.1,0,0-5.7,0-5.7c0.1,0,2.7,3.4,2.8,3.4v-0.8c0.1,0,1.8,4.1,1.9,4.1c0.1,0,0-2.5,0-2.5c0.1,0,2.3,0.7,2.4,0.7
					c0,0-0.1-0.4,0-0.4s2.6,0.7,2.7,0.7c0,0-0.1-2,0-2s2.8,3,2.9,3v-2c0.1,0,2.9,0.8,2.9,0.8v-0.8c0.1,0,2.3,3.9,2.4,3.9
					c0.1,0-0.1-2,0-2s1.7,3,1.8,3s0-1.4,0-1.4c0.1,0,2.4,5.5,2.5,5.5s-0.1-5.5,0-5.5s2.2,3,2.3,3s-0.1-4.3,0-4.3
					c0.2,0,2.3,5.7,2.4,5.7c0.1,0-0.1-4.8,0-4.8s2.3,4.6,2.4,4.6c0,0-0.1-2.6,0-2.6c0.2,0,2.6,5.5,2.8,5.5v-2.1c0.1,0,3,4,3.2,4
					c0.1,0-0.1-1.5,0-1.5s2.6,4.1,2.8,4.1c0,0-0.1-6.5,0-6.5c0.2,0,2.3,5.8,2.5,5.8c0.1,0,0-2.4,0-2.4c0.2,0,3,6.2,3.2,6.2
					c0.1,0-0.1-6.3,0-6.3s2.1,6.9,2.3,6.9c0.1,0-0.1-2.3,0-2.3s2.4,1.1,2.5,1.1s-0.1-2.2,0-2.2c0.2,0,1.8,6.5,2,6.5
					c0.1,0,0-2.4,0-2.4c0.1,0,2.9,2.3,3,2.3s-0.1-1,0-1s2.6,4,2.7,4c0.1,0-0.1-4,0-4s3.1,6.4,3.2,6.4c0.1,0-0.1-0.7,0-0.7
					c0.2,0,2.6,8.2,2.8,8.2c0.1,0-0.1-8.9,0-8.9c0.2,0,2.9,6.3,3.1,6.3c0.1,0-0.1-3.1,0-3.1c0.2,0,2.9,6.6,3.1,6.6
					c0.1,0-0.1-0.6,0-0.6c0.2,0,2.9,7.4,3,7.4s-0.1-7.6,0-7.6c0.3,0,2.6,10.9,2.8,10.9c0.1,0-0.1-4.7,0-4.7s2.7,6.1,2.9,6.1
					c0.1,0-0.1-5.6,0-5.6c0.2,0,1.8,7.1,2,7.1c0.1,0-0.1-4.3,0-4.3c0.3,0,2.6,8.8,2.8,8.8c0.1,0-0.1-3.2,0-3.2
					c0.2,0,1.7,6.6,1.9,6.6c0.1,0-0.1-1.3,0-1.3s2.9,4.7,3.1,4.7c0.1,0-0.1-3.9,0-3.9c0.3,0,1.6,9.7,1.9,9.7c0.1,0-0.1-5.4,0-5.4
					s1.9,4.8,2,4.8s-0.1-1.6,0-1.6c0.2,0,2.6,8.3,2.8,8.3c0.1,0-0.1-0.7,0-0.7c0.2,0,1.6,7.3,1.8,7.3c0.1,0-0.1-10.5,0-10.5
					c0.3,0,2,13,2.4,13c0.1,0-0.1-7.7,0-7.7c0.4,0,1.7,15.2,2.1,15.2c0.1,0-0.1-10.7,0-10.7c0.5,0,2.7,18,3.2,18c0.1,0-0.2-4,0-4
					s1.9,9.1,2.2,9.1c0.2,0-0.2-8.8,0-8.8c0.7,0,2.2,27.4,2.9,27.4c0.2,0-0.3-12,0-12"/>
				<path class="st2" d="M12.2,168.8c0.5,0-0.3-17.4,0-17.4c0.9,0,1.5,38.4,2.4,38.4c0.3,0-0.3-14.9,0-14.9c0.6,0,1.7,21.9,2.3,21.9
					c0.2,0-0.2-3.6,0-3.6c0.3,0,1.8,10.8,2.1,10.8c0.2,0-0.2-6.5,0-6.5c0.4,0,2.5,15.5,2.8,15.5c0.1,0-0.2-1,0-1
					c0.3,0,3.1,9.9,3.3,9.9c0.1,0-0.1-6.7,0-6.7c0.3,0,3,13.3,3.2,13.3c0.1,0-0.1-4.4,0-4.4c0.3,0,1.8,12,2.1,12
					c0.1,0-0.1-7.6,0-7.6c0.3,0,3,10.9,3.3,10.9c0.1,0-0.1-5.2,0-5.2c0.2,0,2.6,9.8,2.8,9.8c0.1,0-0.1-3.1,0-3.1
					c0.2,0,2.2,7.6,2.5,7.6c0.1,0-0.1-4.5,0-4.5c0.2,0,2.2,7.5,2.4,7.5c0.1,0-0.1-3.6,0-3.6s2.6,5.8,2.7,5.8c0.1,0-0.1-3.1,0-3.1
					c0.2,0,1.9,6.4,2.1,6.4c0.1,0-0.1-7.1,0-7.1c0.3,0,2.4,9.9,2.7,9.9c0.1,0-0.1-2.2,0-2.2c0.2,0,1.7,6.4,1.8,6.4s-0.1-8.7,0-8.7
					c0.2,0,2.8,9.1,3,9.1c0.1,0-0.1-2.7,0-2.7c0.2,0,2.3,7,2.5,7c0.1,0-0.1-2.3,0-2.3s2.2,5.2,2.3,5.2s-0.1-7.2,0-7.2
					c0.3,0,2.4,10.6,2.7,10.6c0.1,0-0.1-5.8,0-5.8s1.8,4,1.8,4c0.1,0-0.1-2.5,0-2.5c0.2,0,3.1,7.8,3.3,7.8c0.1,0-0.1-7.2,0-7.2
					c0.2,0,2.4,6.8,2.6,6.8c0.1,0-0.1-2.4,0-2.4s1.8,1.6,1.9,1.6s-0.1-0.6,0-0.6c0.2,0,3.1,8.1,3.3,8.1c0.1,0-0.1-5.1,0-5.1
					c0.3,0,3.1,7.7,3.4,7.7c0.1,0-0.1-5.6,0-5.6s2.1,3.9,2.2,3.9s-0.1-2.3,0-2.3s2.6,3.9,2.7,3.9s0-2.2,0-2.2c0.1,0,1.8,5.1,1.9,5.1
					s-0.1-0.8,0-0.8s3.2,1,3.3,1c0,0-0.1-0.6,0-0.6s2.9,2.2,2.9,2.2s-0.1-2.1,0-2.1s2.8,2.5,2.9,2.5s0-2.9,0-2.9
					c0.1,0,1.8,4.9,1.9,4.9v-2.1c0.1,0,3.3,1.6,3.4,1.6s0-1.3,0-1.3c0.2,0,3.1,7.7,3.3,7.7c0.1,0,0-8.3,0-8.3c0.1,0,2.2,5.1,2.3,5.1
					c0.1,0,0-2.7,0-2.7c0.1,0,2.2,4.8,2.3,4.8v-2c0.1,0,2.6,3.9,2.7,3.9v-4.3c0.1,0,2.1,4.2,2.2,4.2c0,0-0.1-2,0-2s2.2,2.7,2.3,2.7
					v-2c0.1,0,2.5,2.8,2.6,2.8c0,0-0.1-2,0-2s3.2,2.9,3.3,2.9c0.1,0,0-2,0-2c0.1,0,2.2,4.2,2.3,4.2c0,0-0.1-4,0-4
					c0.2,0,2.4,5.6,2.5,5.6s0-5.2,0-5.2c0.1,0,2.8,3.2,2.9,3.2s-0.1-2,0-2s2,1.9,2.1,1.9c0,0-0.1-1.8,0-1.8s1.6,2.6,1.7,2.6
					c0.1,0,0-1.9,0-1.9c0.1,0,2.3,2.4,2.4,2.4v-1.9c0.1,0,2.9,2.6,3,2.6c0,0-0.1-0.6,0-0.6s1.6,4.1,1.8,4.1c0.1,0,0-8.6,0-8.6
					c0.1,0,2.1,5.3,2.3,5.3v-0.7c0.1,0,2.7,2.9,2.8,2.9v-5.3c0.1,0,2.7,3.9,2.8,3.9s-0.1-2.2,0-2.2s2,3,2.1,3c0,0-0.1-1.9,0-1.9
					s2.9,2.3,3,2.3s0-6.3,0-6.3c0.2,0,2.8,5.3,3,5.3c0.1,0,0-1.9,0-1.9c0.1,0,2.8,3.2,2.9,3.2c0.1,0,0-2.2,0-2.2
					c0.1,0,3.3,2.5,3.4,2.5v-6.7c0.2,0,3.1,8.1,3.2,8.1c0.1,0,0-5.4,0-5.4c0.2,0,2.7,5.3,2.8,5.3V307c0.1,0,2.5,1.5,2.5,1.5
					c0.1,0-0.1-4,0-4s3.3,3,3.4,3c0.1,0-0.1-1.9,0-1.9s3.3-1.3,3.4-1.3c0,0-0.1-0.1,0-0.1s2.2,6,2.4,6V302c0.1,0,1.9,4.6,2,4.6v-1.9
					c0.1,0,2.8-1.5,2.8-1.5c0.1,0-0.1-1.7,0-1.7s2.6,5.6,2.7,5.6c0.1,0,0-4.3,0-4.3c0.1,0,1.9,2.4,1.9,2.4v-2c0.1,0,2.7,4.2,2.8,4.2
					s-0.1-2.5,0-2.5s3.2,0.4,3.3,0.4s0-4.5,0-4.5c0.1,0,3,2.1,3,2.1v-2c0.2,0,2.5,4.5,2.6,4.5s-0.1-2.4,0-2.4s2.4-1.6,2.5-1.6
					s0-2,0-2c0.1,0,2.9,3.8,3.1,3.8c0,0-0.1-5,0-5s2.7,2.2,2.8,2.2s-0.1-1.3,0-1.3s1.7,2.9,1.7,2.9c0.1,0-0.1-3.6,0-3.6
					s2.3-0.4,2.3-0.4c0.1,0,0-0.3,0-0.3c0.1,0,2-0.6,2-0.6c0.1,0,0-2.1,0-2.1c0.1,0,1.8,3.3,1.9,3.3c0.1,0,0-4.6,0-4.6
					c0.1,0,1.9,1.7,2,1.7s-0.1-2.1,0-2.1s3-2.6,3.1-2.6s-0.1-0.8,0-0.8c0.2,0,2.1,5.8,2.2,5.8c0.1,0,0-7.1,0-7.1c0.1,0,3.1,0,3.2,0
					v-1.3c0.1,0,3.1,4.4,3.2,4.4c0.1,0-0.1-4.2,0-4.2s3.2-2.6,3.3-2.6s0-2.1,0-2.1c0.1,0,2,4.3,2.1,4.3s-0.1-4.4,0-4.4
					s2.8,2.2,2.9,2.2c0.1,0-0.1-5.5,0-5.5s2.9,5.5,3,5.5c0,0-0.1-3.2,0-3.2s2.9-2.3,3-2.3s-0.1-2.7,0-2.7s2.9-1.4,3-1.4
					s-0.1-1.3,0-1.3s2.9,3.7,3,3.7s-0.1-4.6,0-4.6s2.5,3,2.6,3s-0.1-7.6,0-7.6c0.2,0,1.7,6.8,1.8,6.8c0.1,0-0.1-5.1,0-5.1
					s2.5,0.5,2.6,0.5s-0.1-1.1,0-1.1s3.1,0.2,3.2,0.2s-0.1-3.6,0-3.6s3-1.5,3-1.5c0.1,0-0.1-2.5,0-2.5s2.1-0.2,2.2-0.2
					s-0.1-5.1,0-5.1s2.5,1,2.5,1c0.1,0-0.1-5.8,0-5.8c0.2,0,1.8,6.7,2,6.7c0.1,0-0.1-6.7,0-6.7s3,0.2,3,0.2c0.1,0-0.1-2.9,0-2.9
					s3.2-2.9,3.3-2.9c0.1,0-0.1-2.6,0-2.6s2.7,0.5,2.8,0.5c0.1,0-0.1-4,0-4s2.4-2.1,2.4-2.1c0.1,0-0.1-5.5,0-5.5s1.6,5.7,1.7,5.7
					s-0.1-2.8,0-2.8s3-4.3,3.1-4.3s-0.1-4.1,0-4.1s2.9,0.4,3,0.4s-0.1-8.7,0-8.7s1.8,3.3,1.9,3.3s-0.1-4.4,0-4.4s3.1-1.3,3.2-1.3
					c0.2,0-0.1-6.4,0-6.4s2.2-3.2,2.2-3.2c0.2,0-0.2-7.1,0-7.1s3.2-4.8,3.3-4.8c0.2,0-0.2-12.1,0-12.1c0.3,0,3-11,3.2-11
					c0.4,0-0.5-20.1,0-20.1"/>
			</g>
		</g>
	</g>
	<g>
		<g>
			<g>
				<path class="st3" d="M1.9,153.3c0.5,0-0.5-22.3,0-22.3c0.1,0,2.7-2.8,2.8-2.8c0.2,0-0.2-5.8,0-5.8c0.1,0,3.1-1.8,3.2-1.8
					c0.1,0-0.2-10.1,0-10.1c0.1,0,2.6-3,2.7-3s-0.2-3.7,0-3.7c0.1,0,2,2.2,2.1,2.2s-0.2-8.4,0-8.4c0.1,0,3.5-4.2,3.7-4.2
					c0.1,0-0.1-4.8,0-4.8s3-2.5,3.1-2.5s-0.1-3.3,0-3.3s2,1.8,2.1,1.8s-0.1-1.3,0-1.3s2.5-4.9,2.6-4.9s-0.1-1.7,0-1.7
					s2.8,0.9,2.9,0.9s-0.1-2.3,0-2.3s2.7-2.7,2.8-2.7c0.1,0-0.1-3.6,0-3.6s2.2,3.1,2.3,3.1s-0.1-3,0-3s2.6-3.3,2.7-3.3
					c0.1,0-0.1-3.3,0-3.3s2,2.3,2.1,2.3s-0.1-6.5,0-6.5s2.4,3.1,2.5,3.1s-0.1-5.1,0-5.1s2.2,0.1,2.2,0.1c0.1,0-0.1-3.8,0-3.8
					s3.3,0.9,3.3,0.9c0.1,0-0.1-0.6,0-0.6s3.2-2,3.3-2s-0.1-2.9,0-2.9s3.3-1.8,3.4-1.8c0.1,0-0.1-2.6,0-2.6s3,0.6,3.1,0.6
					s-0.1-1.7,0-1.7s2.7,0,2.8,0s-0.1-2.7,0-2.7s2-0.3,2-0.3c0.1,0-0.1-0.6,0-0.6s3.2,1.6,3.3,1.6c0.1,0-0.1-1.9,0-1.9S65,39,65,39
					c0.1,0-0.1-3.5,0-3.5s2.7-0.3,2.8-0.3c0.1,0-0.1-6.2,0-6.2c0.2,0,3.3,5.7,3.4,5.7s-0.1-7.9,0-7.9c0.2,0,2.4,6.3,2.6,6.3
					c0.1,0-0.1-5,0-5s2.5,2.9,2.6,2.9s-0.1-5.2,0-5.2s3.3-0.5,3.3-0.5c0.1,0-0.1-0.8,0-0.8s3.1,0.9,3.1,0.9c0.1,0-0.1-2.4,0-2.4
					s3.2,1.7,3.2,1.7c0.1,0-0.1-4.6,0-4.6s3.1,2,3.2,2s-0.1-2.3,0-2.3s2.1,4.8,2.3,4.8c0.1,0-0.1-4.6,0-4.6s2.5-0.2,2.6-0.2
					s-0.1-2.3,0-2.3s2.1,2.2,2.2,2.2s-0.1-1.6,0-1.6s3.3-0.5,3.4-0.5s-0.1-1.4,0-1.4s2,2.6,2.1,2.6s-0.1-7.5,0-7.5s3.1,0.7,3.2,0.7
					c0,0-0.1-0.8,0-0.8s2,3.5,2.1,3.5s0-2.2,0-2.2c0.1,0,2.8,1.2,2.9,1.2c0,0-0.1-2.2,0-2.2s2.5,4.9,2.7,4.9c0.1,0-0.1-8.4,0-8.4
					s3.4,4.8,3.5,4.8s0,0,0,0s2-0.5,2.1-0.5s0-1.2,0-1.2c0.1,0,3.1,1.9,3.2,1.9v-1.4c0,0,1.9,0.8,2,0.8s-0.1-2.1,0-2.1s2.1-1,2.1-1
					c0.1,0-0.1-1.8,0-1.8c0.1,0,3.1,1.3,3.2,1.3c0.1,0-0.1-2.1,0-2.1s2.9,1.6,3,1.6s-0.1-2.1,0-2.1s2.4,1.7,2.5,1.7s0-2.1,0-2.1
					c0.1,0,2.1,1.3,2.1,1.3c0.1,0-0.1-2,0-2s2.3,4.8,2.5,4.8c0.1,0,0-3.1,0-3.1c0.1,0,3.5-1.6,3.6-1.6s0-3.7,0-3.7
					c0.1,0,2.2,5.1,2.3,5.1s-0.1-2.1,0-2.1s3.2,3.6,3.3,3.6c0,0-0.1-0.8,0-0.8s2.4-2.2,2.5-2.2s-0.1-0.1,0-0.1s2.6,4.5,2.7,4.5
					c0.1,0-0.1-6.2,0-6.2s2.7,4.4,2.9,4.4c0.1,0-0.1-5.6,0-5.6s1.9,4,2,4V4c0.1,0,3.3,4.4,3.4,4.4c0,0-0.1-2.3,0-2.3s3,2,3.1,2V6.3
					c0.1,0,2.9,0.9,3,0.9V2.8c0.1,0,1.9,3.7,2,3.7s-0.1-2.1,0-2.1c0.2,0,2.4,5.1,2.5,5.1s-0.1-7.3,0-7.3c0.2,0,2.4,8,2.6,8
					c0.1,0,0-6.6,0-6.6c0.2,0,3,6,3.1,6s0-5.1,0-5.1c0.1,0,3.2,3.2,3.3,3.2c0,0-0.1-2.1,0-2.1s2.4,5.3,2.6,5.3c0,0-0.1-6,0-6
					c0.2,0,2.3,6.3,2.5,6.3c0.1,0-0.1-4.7,0-4.7c0.2,0,2.4,6.2,2.6,6.2c0,0-0.1-6.3,0-6.3s2.9,1.1,3,1.1s0-0.9,0-0.9
					c0.1,0,3,3.2,3.1,3.2s0-1.8,0-1.8c0.1,0,3,3.2,3.1,3.2c0,0-0.1-2.1,0-2.1s1.8,4.5,1.9,4.5c0,0-0.1-3.9,0-3.9s2,2.9,2.1,2.9
					s-0.1-0.9,0-0.9s3.5,1.8,3.6,1.8c0,0-0.1-2.2,0-2.2c0.2,0,1.9,6.3,2.1,6.3c0.1,0,0-3.5,0-3.5c0.1,0,2-1.2,2.1-1.2
					s-0.1-1.5,0-1.5c0.2,0,3,4.7,3.2,4.7c0.1,0-0.1-2.2,0-2.2s3.4,3.6,3.6,3.6v-2.2c0.1,0,1.9,0,2,0s-0.1-0.9,0-0.9s3.2,2.5,3.2,2.5
					c0.1,0-0.1-1.1,0-1.1c0.2,0,2.9,9.2,3.1,9.2c0.1,0,0-9.1,0-9.1c0.2,0,2.1,7.9,2.3,7.9c0,0-0.1-3.8,0-3.8c0.2,0,3,6,3.2,6
					c0,0-0.1-3.1,0-3.1s2.4,3.2,2.5,3.2s-0.1-1.6,0-1.6s2.9,2.5,3,2.5s-0.1-2.4,0-2.4c0.2,0,2,6.4,2.2,6.4c0.1,0-0.1-8.4,0-8.4
					c0.2,0,2,9.3,2.2,9.3c0.1,0-0.1-3.7,0-3.7s2.2,2.8,2.3,2.8s-0.1-2.5,0-2.5c0.2,0,3.2,6.2,3.4,6.2c0.1,0-0.1-2.6,0-2.6
					s1.9,2.5,2,2.5s-0.1-2.5,0-2.5c0.2,0,3.2,6.7,3.4,6.7c0.1,0-0.1-7.2,0-7.2c0.3,0,2.6,8.7,2.9,8.7c0.1,0-0.1-3.6,0-3.6
					c0.2,0,3.2,6.8,3.4,6.8c0.1,0-0.1-1.2,0-1.2c0.2,0,3.5,6.7,3.7,6.7c0.1,0-0.1-5.1,0-5.1c0.2,0,3,6.5,3.2,6.5
					c0.1,0-0.1-1.2,0-1.2s2.2,1.3,2.3,1.3c0.1,0-0.1-2.9,0-2.9c0.2,0,2.7,5.8,2.9,5.8c0.1,0-0.1-3,0-3c0.2,0,2.7,8.9,2.9,8.9
					c0.1,0-0.1-9.1,0-9.1c0.3,0,2.4,11.2,2.7,11.2c0.1,0-0.1-2,0-2s2.5,2.6,2.6,2.6s-0.1-4,0-4c0.3,0,3.4,11.4,3.6,11.4
					c0.1,0-0.1-9.3,0-9.3c0.4,0,2.9,14.9,3.3,14.9c0.1,0-0.1-7.9,0-7.9c0.2,0,2,7.6,2.2,7.6c0.1,0-0.1-3.7,0-3.7
					c0.3,0,2.9,11.6,3.2,11.6c0.1,0-0.1-7.3,0-7.3c0.2,0,2.4,7.8,2.6,7.8c0.1,0-0.1-2.9,0-2.9c0.2,0,2.2,10,2.4,10
					c0.1,0-0.1-4.6,0-4.6c0.2,0,2.1,10.4,2.4,10.4c0.1,0-0.1-4.7,0-4.7c0.2,0,2.4,6.9,2.6,6.9c0.1,0-0.1-3,0-3
					c0.4,0,3.3,14.5,3.7,14.5c0.2,0-0.1-7.5,0-7.5c0.3,0,2.6,10,3,10c0.2,0-0.2-0.1,0-0.1c0.4,0,1.9,14.5,2.4,14.5
					c0.2,0-0.2-11.1,0-11.1c0.4,0,1.5,16.8,1.9,16.8c0.3,0-0.2-9.2,0-9.2c0.9,0,1.7,32,2.4,32c0.5,0-0.4-19.2,0-19.2"/>
				<path class="st3" d="M-0.2,169.4c0.4,0-0.4-16.6,0-16.6c0.9,0,1.5,40.5,2.4,40.5c0.3,0-0.3-17.6,0-17.6c0.7,0,2.3,26.4,3.1,26.4
					c0.2,0-0.2-5,0-5c0.3,0,2.1,12.3,2.4,12.3c0.2,0-0.1-3.5,0-3.5c0.4,0,2.4,14.6,2.7,14.6c0.1,0-0.1-5.2,0-5.2
					c0.2,0,2.5,8.6,2.7,8.6c0.1,0-0.1-4.6,0-4.6c0.3,0,2.4,12.8,2.8,12.8c0.1,0-0.1-4.8,0-4.8c0.3,0,3.2,10.8,3.5,10.8
					c0.1,0-0.1-2.3,0-2.3s2.1,3.7,2.2,3.7s-0.1-4.4,0-4.4c0.3,0,1.6,11.2,1.9,11.2c0.1,0-0.1-7,0-7c0.3,0,2.6,12.2,2.9,12.2
					c0.1,0-0.1-4.6,0-4.6c0.2,0,2.2,7.3,2.4,7.3c0.1,0-0.1-1.7,0-1.7s1.9,3,2,3s-0.1-4.6,0-4.6c0.3,0,2.4,11.2,2.7,11.2
					c0.1,0-0.1-6.3,0-6.3c0.2,0,2.4,7.2,2.6,7.2c0.1,0-0.1-6.1,0-6.1c0.2,0,3,9.3,3.2,9.3c0.1,0-0.1-3.9,0-3.9
					c0.2,0,2.3,6.7,2.5,6.7c0.1,0-0.1-3,0-3c0.2,0,2.4,6.5,2.6,6.5c0.1,0-0.1-3,0-3c0.2,0,1.8,5.7,1.9,5.7c0.1,0-0.1-6.3,0-6.3
					c0.3,0,2.8,12.3,3.1,12.3c0.1,0-0.1-3.4,0-3.4s3.2,4.2,3.3,4.2s-0.1-1.1,0-1.1s3.1,2.8,3.2,2.8c0.1,0-0.1-1.2,0-1.2
					s3.4,2.4,3.5,2.4s-0.1-1.6,0-1.6s2.5,5,2.7,5c0.1,0-0.1-2.6,0-2.6c0.2,0,3.5,5.7,3.7,5.7c0.1,0-0.1-2.9,0-2.9
					c0.2,0,1.9,7.7,2.1,7.7c0.1,0-0.1-8.3,0-8.3s2,4.9,2.1,4.9s-0.1-4.8,0-4.8c0.2,0,1.8,6.3,1.9,6.3s-0.1-0.8,0-0.8s2,4,2,4
					c0.1,0-0.1-3.1,0-3.1s1.8,3.3,1.9,3.3s-0.1-2.4,0-2.4c0.2,0,2.1,6.5,2.3,6.5c0.1,0-0.1-8.5,0-8.5c0.2,0,1.8,8.3,1.9,8.3
					s-0.1-7.1,0-7.1c0.2,0,3.2,6.7,3.4,6.7c0.1,0-0.1-0.7,0-0.7s2.4,4.7,2.5,4.7s-0.1-6.4,0-6.4c0.2,0,2.5,7.7,2.7,7.7
					c0.1,0-0.1-6.2,0-6.2c0.2,0,2.8,5.7,3,5.7c0.1,0-0.1-2.3,0-2.3s2.9,3.3,3,3.3c0,0-0.1-1.6,0-1.6s1.9,4.3,2,4.3s-0.1-7,0-7
					c0.2,0,2.5,9.3,2.7,9.3c0.1,0-0.1-6.9,0-6.9s2.5,2.1,2.6,2.1s-0.1-1.1,0-1.1c0.2,0,3.2,5.4,3.3,5.4c0,0-0.1-2.2,0-2.2
					c0.2,0,3.3,5.2,3.4,5.2s-0.1-0.7,0-0.7s3.3,3.2,3.4,3.2c0,0-0.1-2.8,0-2.8s1.9,2.4,2,2.4c0,0-0.1-2.1,0-2.1s2.2-2.7,2.3-2.7
					c0.1,0,0-1.1,0-1.1c0.2,0,3.3,6.7,3.5,6.7c0.1,0,0-1.8,0-1.8c0.1,0,3.4,1,3.5,1v-2.1c0.1,0,2.5,4,2.6,4s-0.1-4.2,0-4.2
					s2.4,3.6,2.5,3.6c0,0-0.1-1.2,0-1.2s2.5,1.5,2.6,1.5s0-2.1,0-2.1c0.1,0,2.3,4.5,2.4,4.5c0.1,0,0-0.6,0-0.6c0.1,0,2-1.1,2.1-1.1
					s-0.1-5.7,0-5.7s2.3,4,2.4,4v-3.7c0.2,0,2.9,7.3,3.1,7.3c0.1,0-0.1-6.9,0-6.9c0.2,0,3.2,5.9,3.4,5.9c0.1,0-0.1-1.7,0-1.7
					s3.1,1.5,3.2,1.5c0.1,0-0.1-2.9,0-2.9s2.9,5.6,3.1,5.6c0.1,0-0.1-7,0-7c0.3,0,3.1,8.1,3.3,8.1c0,0-0.1-2.4,0-2.4
					s3.5,1.1,3.6,1.1V321c0.1,0,3.2-0.7,3.3-0.7s-0.1-2.1,0-2.1s2.5,2,2.6,2c0,0-0.1-2.1,0-2.1s2.1,2,2.1,2s-0.1-2.1,0-2.1
					s3.2,1.9,3.3,1.9v-2.1c0.1,0,1.9,1.9,2,1.9s0-2.1,0-2.1c0.1,0,1.9,1.8,2,1.8s-0.1-4.3,0-4.3c0.2,0,3.3,7,3.4,7v-1.3
					c0.1,0,2.5,0.6,2.6,0.6s-0.1-3,0-3s3.3-2.7,3.4-2.7c0.1,0-0.1-2.6,0-2.6s2.4,4,2.5,4s-0.1-0.7,0-0.7s2.6,1.2,2.6,1.2
					c0.1,0-0.1-2.1,0-2.1s1.9,1.7,2,1.7s-0.1-2.1,0-2.1s3,1.5,3,1.5c0.1,0-0.1-2.1,0-2.1s3.2-0.1,3.3-0.1s-0.1-0.6,0-0.6
					s2.2,1.5,2.3,1.5s0-2.1,0-2.1c0.1,0,2.1,2.1,2.2,2.1c0,0-0.1-2.4,0-2.4s1.9,1.3,2,1.3s0-2.2,0-2.2c0.1,0,3.6,3,3.7,3
					c0.1,0,0-3.3,0-3.3c0.1,0,2.8,2.9,2.9,2.9c0.1,0,0-7.1,0-7.1c0.2,0,2.8,6.7,3,6.7c0.1,0-0.1-6.8,0-6.8s3.3,1.3,3.4,1.3
					c0.1,0-0.1-4.9,0-4.9s3.4,4.4,3.6,4.4c0,0-0.1-2.3,0-2.3s2,0.4,2.1,0.4s-0.1-0.2,0-0.2s2.7-0.1,2.7-0.1s-0.1-2.3,0-2.3
					s2.1,1.3,2.1,1.3c0.1,0-0.1-2.3,0-2.3s2.6,1,2.6,1c0.1,0-0.1-2.3,0-2.3s2.8-2.3,2.8-2.3c0.1,0-0.1-0.3,0-0.3s2.6,1,2.6,1
					c0.1,0-0.1-4.6,0-4.6c0.2,0,3.2,4.1,3.4,4.1c0,0-0.1,0,0,0s2.2-1.6,2.3-1.6s-0.1-2.4,0-2.4s3.6,0.1,3.7,0.1c0.1,0-0.1-2.5,0-2.5
					s3.5,1.3,3.6,1.3s-0.1-3.5,0-3.5s3.1,0.8,3.2,0.8c0.1,0-0.1-5.8,0-5.8s3.3,2.6,3.4,2.6c0.1,0-0.1-2.6,0-2.6s2.7-2.8,2.8-2.8
					c0.1,0-0.1-1.9,0-1.9c0.1,0,2,0.9,2,0.9c0.1,0-0.1-0.8,0-0.8s3.3,1.4,3.4,1.4s-0.1-6.4,0-6.4s3.3,2.4,3.4,2.4s-0.1-2.8,0-2.8
					s3.3-2.6,3.4-2.6s-0.1-0.9,0-0.9s2,2.1,2,2.1c0.1,0-0.1-2.9,0-2.9l2.1,0.8c0.1,0-0.1-3.8,0-3.8s2.7-2,2.8-2c0.1,0-0.1-2.7,0-2.7
					s2.6,1.7,2.7,1.7s-0.1-0.3,0-0.3s1.8,1.1,1.9,1.1s-0.1-4.5,0-4.5s2.8-4.4,2.9-4.4s-0.1-1.4,0-1.4s2.7-3.8,2.8-3.8
					c0.1,0-0.1-0.9,0-0.9s3.2,0.8,3.3,0.8c0.1,0-0.1-3.8,0-3.8l2.1-0.8c0.1,0-0.1-4.9,0-4.9s2.3,1.3,2.4,1.3s-0.1-4.1,0-4.1
					s2.6,1.2,2.7,1.2s-0.1-8.2,0-8.2s2.2,2.3,2.3,2.3c0.1,0-0.1-6.5,0-6.5s2.9,1.3,3,1.3s-0.2-3.8,0-3.8c0.1,0,1.9-2.1,2-2.1
					c0.2,0-0.1-2.6,0-2.6s2.6-4,2.7-4s-0.1-4.9,0-4.9c0.2,0,3.5-8.7,3.7-8.7s-0.2-8.6,0-8.6l1.9,0.7c0.2,0-0.3-7.2,0-7.2
					s3.2-12.6,3.6-12.6c0.6,0-0.6-27.7,0-27.7"/>
			</g>
		</g>
	</g>
</g>
</svg>
