<?xml version="1.0" encoding="utf-8"?>
<!-- Generator: Adobe Illustrator 27.4.0, SVG Export Plug-In . SVG Version: 6.00 Build 0)  -->
<svg version="1.1" id="Calque_1" xmlns="http://www.w3.org/2000/svg" xmlns:xlink="http://www.w3.org/1999/xlink" x="0px" y="0px"
	 viewBox="0 0 320 508.7" style="enable-background:new 0 0 320 508.7;" xml:space="preserve">
<style type="text/css">
	.st0{opacity:0.7;}
	.st1{fill:none;stroke:#FF0019;stroke-width:0.8433;stroke-miterlimit:1;}
	.st2{fill:none;stroke:#FF0019;stroke-width:0.6786;stroke-linecap:round;stroke-linejoin:round;}
	.st3{fill:none;stroke:#FF0019;stroke-width:0.7421;stroke-linecap:round;stroke-linejoin:round;}
	.st4{fill:none;stroke:#FF0019;stroke-width:0.8044;stroke-linecap:round;stroke-linejoin:round;}
	.st5{fill:none;stroke:#FF0019;stroke-width:0.6083;stroke-miterlimit:1;}
	.st6{fill:none;stroke:#FF0019;stroke-width:0.4895;stroke-linecap:round;stroke-linejoin:round;}
	.st7{fill:none;stroke:#FF0019;stroke-width:0.5353;stroke-linecap:round;stroke-linejoin:round;}
	.st8{fill:none;stroke:#FF0019;stroke-width:0.5802;stroke-linecap:round;stroke-linejoin:round;}
</style>
<g class="st0">
	<circle class="st1" cx="204.6" cy="153.8" r="81.4"/>
	<ellipse class="st1" cx="204.6" cy="153.8" rx="73.7" ry="81.4"/>
	<ellipse class="st1" cx="205" cy="153.8" rx="64.9" ry="81.4"/>
	<ellipse class="st1" cx="205.3" cy="153.8" rx="52.7" ry="81.4"/>
	<ellipse class="st1" cx="206.6" cy="153.8" rx="41.1" ry="81.4"/>
	<ellipse class="st1" cx="206.8" cy="153.8" rx="29.8" ry="81.4"/>
	<ellipse class="st1" cx="206.2" cy="153.8" rx="19" ry="81.4"/>
	<ellipse class="st1" cx="205.8" cy="153.6" rx="7.4" ry="81.4"/>
	<circle class="st1" cx="204.6" cy="153.7" r="81.4"/>
	<ellipse class="st1" cx="204.6" cy="153.7" rx="81.4" ry="73.7"/>
	<ellipse class="st1" cx="204.6" cy="153.3" rx="81.4" ry="64.9"/>
	<ellipse class="st1" cx="204.6" cy="153" rx="81.4" ry="52.7"/>
	<ellipse class="st1" cx="204.6" cy="151.6" rx="81.4" ry="41.1"/>
	<ellipse class="st1" cx="204.6" cy="151.5" rx="81.4" ry="29.8"/>
	<ellipse class="st1" cx="204.6" cy="152" rx="81.4" ry="19"/>
	<ellipse class="st1" cx="204.5" cy="152.4" rx="81.4" ry="7.4"/>
</g>
<g class="st0">
	<g>
		<g>
			<path class="st2" d="M109.7,148.6c0.3,0-0.3-10.3,0-10.3c0.1,0,1.4-4.2,1.5-4.2c0.1,0-0.1-6.3,0-6.3c0.1,0,1.7,1.7,1.8,1.7
				c0.1,0-0.1-4.8,0-4.8s1.2-1.9,1.2-1.9s-0.1-0.8,0-0.8s1.3-4,1.4-4s-0.1-3.1,0-3.1s1.3,1.2,1.4,1.2c0.1,0-0.1-4.4,0-4.4
				s1.7,1.7,1.7,1.7c0.1,0-0.1-1.4,0-1.4c0,0,1.1-0.9,1.2-0.9s-0.1-4,0-4s1.7,0.1,1.8,0.1s-0.1-2.1,0-2.1s1.4,1.6,1.5,1.6
				s-0.1-5.1,0-5.1s1.8-0.9,1.9-0.9c0.1,0-0.1-1.9,0-1.9c0.1,0,1.9,0.1,1.9,0.1c0.1,0-0.1-2.2,0-2.2c0.1,0,2.1,1.4,2.2,1.4
				c0.1,0-0.1-4.8,0-4.8c0.1,0,2.1-1.7,2.2-1.7c0.1,0-0.1-1.9,0-1.9c0.1,0,1.2,3.3,1.4,3.3c0.1,0-0.1-2.7,0-2.7l1.2-0.1
				c0.1,0-0.1-1.9,0-1.9c0,0,1.5-0.4,1.6-0.4c0.1,0-0.1-1.2,0-1.2c0.1,0,1.3,0.1,1.4,0.1c0.1,0-0.1-2.4,0-2.4c0.1,0,1.4,1.4,1.5,1.4
				c0.1,0-0.1-4,0-4c0.1,0,1.3,2.6,1.4,2.6c0.1,0-0.1-0.8,0-0.8c0.1,0,2.1,0.1,2.1,0.1c0.1,0-0.1-4.3,0-4.3c0.1,0,1.4,1.2,1.5,1.2
				c0.1,0-0.1-0.9,0-0.9c0.1,0,2.2,0.7,2.2,0.7c0.1,0,0-4.4,0-4.4c0.1,0,1.9,1.7,2,1.7c0.1,0,0-1.6,0-1.6c0.1,0,1.4-1.4,1.4-1.4
				c0.1,0-0.1-1.5,0-1.5c0.1,0,1.9,2,1.9,2v-2.4c0.1,0,1.3,3.4,1.4,3.4c0.1,0,0-1.6,0-1.6l1.2-0.4c0,0-0.1-0.3,0-0.3l1.2-0.5v-1.4
				c0.1,0,2,1,2.1,1c0,0-0.1-3.3,0-3.3s2.2,0.7,2.2,0.7s0-1.4,0-1.4c0.1,0,1.2,1.8,1.3,1.8v-3.1c0.1,0,1.4,2.3,1.4,2.3
				c0.1,0-0.1-4.5,0-4.5c0.1,0,1.8,4.4,1.9,4.4v-1.9c0.1,0,1.9-0.2,1.9-0.2c0.1,0,0-1.5,0-1.5c0.1,0,2,1.4,2.1,1.4
				c0.1,0,0-2.1,0-2.1c0.1,0,1.7-0.1,1.8-0.1v-1.4c0.1,0,1.7,1.7,1.8,1.7c0.1,0,0-1.4,0-1.4s1.3,0.2,1.4,0.2V61
				c0.1,0,1.4,1.7,1.4,1.7v-2.2c0.1,0,1.4,2.2,1.5,2.2v-0.2c0.1,0,2.1,0.7,2.1,0.7s-0.1-3.4,0-3.4c0.1,0,1.3,1.2,1.4,1.2v-1.9
				c0.1,0,2.2,3.6,2.2,3.6v-1.2c0.1,0,2-1.5,2.1-1.5c0,0-0.1-0.1,0-0.1c0.1,0,2,0.4,2,0.4v-2.4c0.1,0,1.5,1.7,1.6,1.7v-0.5
				c0.1,0,1.8,2.4,1.8,2.4s-0.1-4.1,0-4.1s1.2,4,1.4,4v-3.8c0.1,0,1.7,2.3,1.8,2.3s0-0.9,0-0.9c0.1,0,1.5,1.9,1.6,1.9v-1.2
				c0.1,0,1.8,0.9,1.8,0.9v-1.7c0,0,1.1-0.2,1.2-0.2v-1.2c0.1,0,1.9,1.1,2,1.1v-1.2c0.1,0,1.2,1.2,1.3,1.2v-1.2
				c0.1,0,1.4,3.3,1.5,3.3v-1.9c0.1,0,1.3,1.1,1.3,1.1v-4.3c0.1,0,1.4,2.4,1.5,2.4v-2.3c0.1,0,1.2,5.1,1.4,5.1c0.1,0,0-2.7,0-2.7
				c0.1,0,2.2-0.5,2.2-0.5c0,0-0.1-1.8,0-1.8c0.1,0,1.7,2.9,1.7,2.9v-1.2c0.1,0,2.1,3.5,2.2,3.5v-2.4c0.1,0,1.7,0.4,1.7,0.4
				c0,0-0.1-1.2,0-1.2s1.3,0.6,1.4,0.6v-1.2c0.1,0,2.1,3,2.2,3v-3c0.1,0,1.3,2.2,1.4,2.2v-1.3c0,0,1.1,0.5,1.2,0.5c0.1,0,0,0,0,0
				c0.1,0,1.5,0.6,1.5,0.6s-0.1-0.3,0-0.3c0.1,0,1.9,1.5,1.9,1.5v-0.3c0.1,0,1.9,1.8,2,1.8v-3.7c0.1,0,1.8,1.8,1.9,1.8
				s-0.1-0.9,0-0.9s1.9,0.5,2,0.5v-1.5c0.1,0,1.4,1.9,1.5,1.9s0-1.3,0-1.3c0.1,0,1.3,5.5,1.4,5.5V61c0,0,1.2,0.4,1.3,0.4
				s0-0.9,0-0.9c0.1,0,1.3,3.1,1.4,3.1c0,0-0.1-2.4,0-2.4c0.1,0,2,2.4,2.1,2.4v-1.3c0.1,0,1.7,3,1.9,3v-1.6c0.1,0,1.7,1.3,1.7,1.3
				v-1.4c0.1,0,1.3,1.9,1.3,1.9v-1.4c0.1,0,1.7,1.2,1.7,1.2c0.1,0-0.1-0.7,0-0.7c0.1,0,1.7,2.4,1.7,2.4c0.1,0,0-1.4,0-1.4
				c0.1,0,2,2.8,2.1,2.8v-1.4c0.1,0,1.8,4,1.9,4v-1.4c0.1,0,1.7-1.1,1.7-1.1v-1.4c0.1,0,1.2,3.9,1.2,3.9c0,0-0.1-3.5,0-3.5
				s2.1,3.3,2.2,3.3v-2.5c0.2,0,1.7,6.3,1.9,6.3c0.1,0-0.1-3.9,0-3.9c0.1,0,1.7,3.7,1.8,3.7v-1.8c0.1,0,1.4,1.9,1.5,1.9v-2.8
				c0.1,0,1.8,5,1.9,5c0.1,0-0.1-1.5,0-1.5s1.4,3.1,1.5,3.1c0,0-0.1-0.4,0-0.4s1.8,1.4,1.9,1.4s0-1.6,0-1.6c0.1,0,2,3.3,2.1,3.3
				c0,0-0.1-1.7,0-1.7c0.1,0,1.4,4.9,1.6,4.9c0,0-0.1-4.7,0-4.7c0.2,0,1.6,6,1.7,6c0.1,0,0-3.7,0-3.7c0.1,0,1.9,3.2,1.9,3.2
				s-0.1-1.7,0-1.7c0.1,0,1.2,3.6,1.2,3.6s0-1.2,0-1.2c0.1,0,1.4,2.9,1.5,2.9c0.1,0-0.1-2.6,0-2.6c0.1,0,1.9,2.8,2,2.8
				c0.1,0-0.1-0.1,0-0.1c0.1,0,1.4,4.4,1.4,4.4s-0.1-2.2,0-2.2c0.1,0,1.8,4.2,1.9,4.2s-0.1-2,0-2c0.1,0,1.7,5.7,1.8,5.7
				c0.1,0-0.1-3.7,0-3.7c0.1,0,1.2,5.7,1.4,5.7c0.1,0-0.1-4.5,0-4.5c0.2,0,1.4,7.5,1.5,7.5c0.1,0-0.1-4.7,0-4.7
				c0.1,0,1.2,6.8,1.4,6.8c0.1,0-0.1-4.7,0-4.7s1.4,4.3,1.6,4.3c0.1,0-0.1-1.8,0-1.8s1.1,2.9,1.2,2.9c0.1,0-0.1-0.8,0-0.8
				c0.2,0,1.7,6.3,1.9,6.3c0.1,0-0.1-1.5,0-1.5c0.1,0,1,5.5,1.2,5.5c0.1,0-0.1-4.3,0-4.3c0.2,0,1.9,10,2.1,10c0.1,0-0.1-4.7,0-4.7
				c0.3,0,1.9,10.6,2.2,10.6c0.1,0-0.1-5,0-5c0.4,0,1.9,15.1,2.2,15.1c0.1,0-0.1-6.8,0-6.8c0.3,0,0.9,15,1.2,15
				c0.2,0-0.3-11.2,0-11.2"/>
			<path class="st2" d="M108.4,158.4c0.2,0-0.4-11.4,0-11.4c0.5,0,0.6,24.4,1.3,24.4c0.2,0-0.3-10.2,0-10.2c0.4,0,1.4,15.3,1.7,15.3
				c0.1,0-0.1-1.8,0-1.8c0.2,0,1.9,8.6,2.2,8.6c0.1,0-0.1-0.2,0-0.2c0.2,0,1.5,8.3,1.7,8.3c0.1,0-0.1-5.3,0-5.3
				c0.2,0,1.7,7.4,1.9,7.4c0.1,0-0.1-3.9,0-3.9c0.2,0,1.3,8.1,1.5,8.1c0.1,0-0.1-2.8,0-2.8c0.1,0,1.9,6.7,2,6.7c0.1,0-0.1-4.4,0-4.4
				c0.1,0,1.4,6,1.6,6c0.1,0-0.1-3.5,0-3.5c0.2,0,1.8,8.8,2.1,8.8c0.1,0-0.1-3.2,0-3.2c0.1,0,1.8,5.8,1.9,5.8c0.1,0-0.1-4.5,0-4.5
				c0.1,0,1.9,5.8,1.9,5.8c0.1,0-0.1-2.1,0-2.1c0.1,0,1.6,4.3,1.7,4.3c0.1,0-0.1-2,0-2c0.1,0,1.3,2.3,1.4,2.3c0.1,0-0.1-1.7,0-1.7
				c0.1,0,1.2,5.1,1.4,5.1c0.1,0-0.1-3.2,0-3.2c0.1,0,1.7,4.7,1.9,4.7c0.1,0-0.1-1.8,0-1.8c0.1,0,2.1,3.5,2.2,3.5c0.1,0,0-2.6,0-2.6
				c0.1,0,1.9,4.9,2.1,4.9c0.1,0-0.1-2.2,0-2.2c0.1,0,1.7,5.6,1.8,5.6c0.1,0-0.1-1.7,0-1.7c0,0,1.3-0.6,1.4-0.6c0,0-0.1-1.7,0-1.7
				c0.1,0,1.2,2.7,1.3,2.7c0.1,0-0.1-0.8,0-0.8c0.1,0,2,4.9,2.2,4.9c0,0-0.1-1.2,0-1.2c0.1,0,1.1,1.6,1.2,1.6c0.1,0-0.1-1.6,0-1.6
				c0.1,0,1.2,0.5,1.2,0.5s-0.1-0.9,0-0.9c0.1,0,1.9,4.3,1.9,4.3v-1.5c0.1,0,2.2,3.7,2.2,3.7c0.1,0-0.1-2.6,0-2.6
				c0.1,0,2.1,2.9,2.2,2.9c0.1,0,0-1.3,0-1.3c0.1,0,1.8,1.7,1.9,1.7c0,0-0.1-2.1,0-2.1c0.1,0,1.4,6.3,1.5,6.3v-2.7
				c0.1,0,1.2,2.4,1.3,2.4v-3.5c0.1,0,1.5,4.3,1.7,4.3c0,0-0.1-2.2,0-2.2s1.7,1.9,1.7,1.9c0.1,0-0.1-1.4,0-1.4
				c0.1,0,2.1,2.4,2.2,2.4v-1.4c0.1,0,1.7,2.9,1.9,2.9c0.1,0,0-3.2,0-3.2c0.1,0,1,4.3,1.2,4.3c0.1,0,0-4.3,0-4.3
				c0.1,0,1.7,3.3,1.8,3.3c0,0-0.1-0.1,0-0.1c0.1,0,1.2,1.7,1.2,1.7v-3.8c0.1,0,2.2,3.5,2.2,3.5c0,0-0.1-0.6,0-0.6
				c0.1,0,1.7,3.2,1.7,3.2v-3c0.1,0,1.2,3,1.3,3c0.1,0,0-2.8,0-2.8c0.1,0,1.9,2.2,1.9,2.2v-1.9c0.1,0,1.9,3.9,2.1,3.9v-3.7
				c0.1,0,2.1,3.3,2.2,3.3v-2.8c0.1,0,1.4,4,1.5,4v-1.7c0,0,1.2,0.5,1.2,0.5v-1.3c0.1,0,1.7,2.7,1.7,2.7v-2.4c0.1,0,1.7-0.1,1.8-0.1
				v-1.2c0.1,0,1.4,3.1,1.6,3.1V245c0.1,0,1.2,3.2,1.3,3.2v-2.5c0.1,0,1.9,3.3,2.1,3.3c0.1,0,0-1.2,0-1.2c0.1,0,1.5,3,1.6,3v-4.1
				c0.1,0,1.9,2.8,2,2.8v-1.2l1.2-0.2v-1.7c0.1,0,1.7,3.4,1.9,3.4c0.1,0,0-1.2,0-1.2c0.1,0,1.8,1,1.9,1s0-0.6,0-0.6
				c0.1,0,1.7,1,1.8,1v-1.2c0.1,0,1.4,2.8,1.4,2.8c0.1,0,0-0.6,0-0.6c0.1,0,1.2-3.2,1.2-3.2v-0.8c0.1,0,1.4,4.8,1.5,4.8v-2
				c0.1,0,1.1-1.9,1.2-1.9v-0.2c0.1,0,1.4,2.2,1.5,2.2v-1.2c0.1,0,1.1-0.8,1.2-0.8s0-1,0-1c0.1,0,2.1,1.9,2.2,1.9v-2.4
				c0.1,0,2,5,2.1,5v-5.3c0.1,0,1.4,2.6,1.5,2.6s0-2.5,0-2.5c0.1,0,1.4,0.8,1.4,0.8v-1.2c0.1,0,2.2,2.8,2.2,2.8v-1.3
				c0.1,0,2.1,1.5,2.2,1.5v-3.5c0.1,0,1.8,4.5,1.9,4.5v-1.4c0.1,0,1.7-0.6,1.8-0.6v-0.5c0.1,0,1.1,1.8,1.2,1.8v-4.2
				c0.1,0,1.9-0.5,2-0.5v-0.8c0.1,0,1.2,3.3,1.2,3.3v-3.8c0.1,0,1.4,3.5,1.5,3.5c0,0-0.1-1.6,0-1.6s1.4,1.2,1.5,1.2
				c0.1,0,0-3.7,0-3.7c0.1,0,1.3,2.2,1.4,2.2c0,0-0.1-1.3,0-1.3s1.9,1.9,1.9,1.9c0.1,0-0.1-4.3,0-4.3s1.6,1.7,1.7,1.7s0-1.7,0-1.7
				c0.1,0,1.2,2.2,1.3,2.2c0,0-0.1-3.5,0-3.5c0.1,0,2.1,2.4,2.2,2.4v-2c0.1,0,1.9,1.1,1.9,1.1s-0.1-1.4,0-1.4c0.1,0,2.2,1.2,2.2,1.2
				s-0.1-2.4,0-2.4s1.2,1.1,1.2,1.1s-0.1-1.4,0-1.4c0,0,1.2,0.3,1.3,0.3c0,0-0.1-2.7,0-2.7s1.7,2.9,1.7,2.9c0.1,0-0.1-3.2,0-3.2
				c0.1,0,1.1,1.9,1.2,1.9s-0.1-1.4,0-1.4s1.3,1.7,1.4,1.7c0.1,0,0-0.2,0-0.2c0.1,0,1.4-1.4,1.4-1.4s0-1.7,0-1.7
				c0.1,0,1.7,1.3,1.8,1.3c0,0-0.1-3,0-3s1.7-0.9,1.7-0.9s-0.1-1,0-1s1.7,3.2,1.8,3.2c0.1,0-0.1-2.3,0-2.3s1.4-0.3,1.4-0.3
				c0.1,0,0-1.6,0-1.6c0.1,0,2.1-1.5,2.2-1.5c0,0-0.1-0.5,0-0.5s1.7,1.2,1.7,1.2s-0.1-3.7,0-3.7s1.7,1.5,1.7,1.5
				c0.1,0-0.1-1.7,0-1.7s1.8,0.9,1.9,0.9s-0.1-2.3,0-2.3s1.5-0.4,1.5-0.4c0.1,0,0-1.4,0-1.4c0.1,0,1.6,0.3,1.6,0.3
				c0.1,0-0.1-2.2,0-2.2s2.1,0.1,2.1,0.1c0.1,0-0.1-1.8,0-1.8s1.6,1.9,1.7,1.9c0.1,0-0.1-5.7,0-5.7s1.6,1.8,1.7,1.8
				c0.1,0-0.1-1.4,0-1.4l1.3,0.1c0.1,0-0.1-1.9,0-1.9s2.1,0.6,2.1,0.6c0.1,0-0.1-1.7,0-1.7c0.1,0,1.7-4,1.7-4s-0.1-1.5,0-1.5
				c0,0,1.2,0,1.3,0c0.1,0-0.1-0.9,0-0.9s1.7-1.3,1.8-1.3s-0.1-0.9,0-0.9s1.4,2.1,1.4,2.1s-0.1-6.7,0-6.7s1.1,1.9,1.2,1.9
				c0.1,0-0.1-2.4,0-2.4c0.1,0,1.9,0.2,1.9,0.2s-0.1-5,0-5s1.4,0.9,1.4,0.9s-0.1-4.3,0-4.3s2.1-0.3,2.2-0.3s-0.1-3.4,0-3.4
				s1.9-2.7,1.9-2.7s-0.1-1.2,0-1.2s1.5-1.6,1.6-1.6c0.1,0-0.1-5.3,0-5.3s1.7-4.3,1.9-4.3c0.2,0-0.2-8.9,0-8.9
				c0.1,0,1.4-3.6,1.4-3.6c0.3,0-0.4-11.7,0-11.7"/>
		</g>
	</g>
</g>
<g class="st0">
	<g>
		<g>
			<path class="st3" d="M101.3,147.6c0.3,0-0.4-11.5,0-11.5c0.1,0,1.9-2,1.9-2c0.1,0-0.1-8.4,0-8.4c0.1,0,1.7,0.6,1.7,0.6
				c0.1,0-0.1-5.8,0-5.8c0.1,0,1.7-2.4,1.7-2.4c0.1,0-0.1-4.7,0-4.7s1.7,1.1,1.7,1.1c0.1,0-0.1-2.9,0-2.9s1.7-1.4,1.8-1.4
				s-0.1-0.2,0-0.2s1.2-2.4,1.3-2.4s-0.1-1.7,0-1.7s1.8,0.5,1.8,0.5c0.1,0-0.1-4.9,0-4.9s1.4,1.2,1.4,1.2s-0.1-2.2,0-2.2l1.4,0.1
				c0.1,0-0.1-4.3,0-4.3s1.7-0.9,1.7-0.9c0.1,0-0.1-0.3,0-0.3s1.7-0.6,1.7-0.6c0.1,0-0.1-2.4,0-2.4s2.4-2.8,2.4-2.8s-0.1-1.3,0-1.3
				s2.3,0.5,2.3,0.5c0.1,0-0.1-0.4,0-0.4s1.9-0.9,1.9-0.9s-0.1-0.9,0-0.9c0.1,0,1.8-0.9,1.9-0.9c0.1,0-0.1-1.3,0-1.3
				c0.1,0,1.4-2.7,1.5-2.7c0.1,0-0.1-2.2,0-2.2c0.1,0,2.2,2,2.2,2c0.1,0-0.1-1.9,0-1.9l1.4-0.6c0.1,0-0.1-2.8,0-2.8
				c0.1,0,1.9,0.2,1.9,0.2c0.1,0-0.1-3.2,0-3.2c0.1,0,2.2,3,2.2,3c0.1,0-0.1-1.3,0-1.3c0.1,0,1.6-0.7,1.7-0.7c0.1,0-0.1-4.9,0-4.9
				c0.1,0,1.7,2.7,1.7,2.7c0,0-0.1-1.7,0-1.7s2.2,0.5,2.2,0.5s-0.1-3.6,0-3.6s1.7,4,1.8,4c0.1,0-0.1-5.8,0-5.8s1.9,3.7,2.1,3.7
				c0.1,0-0.1-3.8,0-3.8c0.1,0,1.9,1.6,1.9,1.6c0.1,0-0.1-4.3,0-4.3c0.1,0,2.3,3.6,2.4,3.6c0.1,0-0.1-1.6,0-1.6
				c0.1,0,2.2-0.9,2.2-0.9V62c0.1,0,1.9,0.6,2,0.6v-0.3c0.1,0,1.5,0.9,1.5,0.9s-0.1-5.4,0-5.4c0.1,0,1.6,4.2,1.7,4.2
				c0,0-0.1-1.9,0-1.9c0.1,0,1.8,1,1.9,1c0.1,0-0.1-1.2,0-1.2c0.1,0,2.4-1.2,2.4-1.2v-1.5c0.1,0,1.9,2.1,2,2.1c0.1,0,0-3,0-3
				c0.1,0,1.9,1.9,1.9,1.9c0.1,0,0-4.2,0-4.2c0.1,0,2.2,2.1,2.3,2.1c0.1,0-0.1-1.5,0-1.5c0.1,0,1.4,3.2,1.5,3.2c0,0-0.1-4,0-4
				c0.1,0,2.3,2.4,2.4,2.4c0,0-0.1-3.2,0-3.2c0.1,0,1.7,2.7,1.8,2.7c0.1,0,0-2.2,0-2.2c0.1,0,1.4-1.8,1.4-1.8c0.1,0-0.1-0.5,0-0.5
				c0.1,0,2.4,1.9,2.4,1.9c0,0-0.1-1.4,0-1.4c0.1,0,1.9,0.6,2,0.6c0.1,0-0.1-1.9,0-1.9c0.1,0,1.3,4,1.4,4c0.1,0-0.1-3.2,0-3.2
				S184,52,184,52s0-1.4,0-1.4c0.1,0,1.8-0.4,1.9-0.4c0.1,0,0-1.3,0-1.3c0.1,0,2.2,2.9,2.2,2.9s-0.1-3.2,0-3.2s1.9,2.4,2,2.4
				c0.1,0,0-1.4,0-1.4c0.1,0,2.2,1.1,2.2,1.1s0-1.4,0-1.4c0.1,0,2.2,0.6,2.2,0.6s0-3,0-3c0.1,0,1.5,3.7,1.7,3.7c0,0-0.1-2.2,0-2.2
				c0.1,0,1.7,1.9,1.7,1.9V48c0.1,0,1.9,3.8,1.9,3.8v-4c0.1,0,1.5,3.1,1.7,3.1c0.1,0-0.1-2.2,0-2.2c0.1,0,1.5,1.4,1.5,1.4
				c0.1,0,0-3.5,0-3.5c0.1,0,1.7,4.6,1.8,4.6v-4.8c0.1,0,1.9,4.2,1.9,4.2V50c0.1,0,1.5-2,1.6-2c0,0-0.1-1.5,0-1.5
				c0.1,0,2.1,3.7,2.2,3.7s-0.1-1.4,0-1.4s1.9,1.5,1.9,1.5v-1.4c0.1,0,2.1,0,2.1,0c0.1,0,0-1,0-1c0.1,0,2.3,0.5,2.4,0.5s0-1.4,0-1.4
				c0.1,0,1.8,5.5,1.9,5.5c0.1,0-0.1-0.9,0-0.9s2.1-0.9,2.1-0.9v-1.4c0.1,0,2.1,2.2,2.2,2.2s-0.1-3,0-3s1.9,3.5,1.9,3.5
				c0,0-0.1-1.4,0-1.4s1.9,3,2,3v-5c0.1,0,1.8,6.6,2,6.6c0.1,0,0-4.1,0-4.1c0.1,0,1.9,2.4,2,2.4V53c0.1,0,1.3,3,1.4,3
				c0.1,0,0-1.8,0-1.8c0.1,0,1.7,0.5,1.7,0.5c0,0-0.1-0.3,0-0.3s1.9,0.5,1.9,0.5c0,0-0.1-1.4,0-1.4c0.1,0,2,2.2,2.1,2.2v-1.4
				c0.1,0,2.1,0.6,2.1,0.6v-0.6c0.1,0,1.7,2.8,1.7,2.8c0.1,0-0.1-1.4,0-1.4s1.2,2.2,1.3,2.2c0.1,0,0-1,0-1c0.1,0,1.7,4,1.8,4
				c0.1,0-0.1-4,0-4c0.1,0,1.6,2.2,1.7,2.2c0.1,0-0.1-3.1,0-3.1c0.1,0,1.7,4.1,1.7,4.1c0.1,0-0.1-3.5,0-3.5s1.7,3.3,1.7,3.3
				c0,0-0.1-1.9,0-1.9c0.1,0,1.9,4,2,4v-1.5c0.1,0,2.2,2.9,2.3,2.9c0.1,0-0.1-1.1,0-1.1s1.9,3,2,3c0,0-0.1-4.7,0-4.7
				c0.1,0,1.7,4.2,1.8,4.2c0.1,0,0-1.7,0-1.7c0.1,0,2.2,4.5,2.3,4.5c0.1,0-0.1-4.5,0-4.5s1.5,5,1.7,5c0.1,0-0.1-1.7,0-1.7
				s1.7,0.8,1.8,0.8c0.1,0-0.1-1.6,0-1.6c0.1,0,1.3,4.7,1.4,4.7c0.1,0,0-1.7,0-1.7c0.1,0,2.1,1.7,2.2,1.7c0.1,0-0.1-0.7,0-0.7
				c0.1,0,1.9,2.9,1.9,2.9s-0.1-2.9,0-2.9s2.2,4.6,2.3,4.6c0.1,0-0.1-0.5,0-0.5c0.1,0,1.9,5.9,2,5.9c0.1,0-0.1-6.4,0-6.4
				c0.1,0,2.1,4.5,2.2,4.5c0.1,0-0.1-2.2,0-2.2c0.1,0,2.1,4.8,2.2,4.8c0.1,0-0.1-0.4,0-0.4c0.1,0,2.1,5.3,2.2,5.3s-0.1-5.5,0-5.5
				c0.2,0,1.9,7.9,2,7.9c0.1,0-0.1-3.4,0-3.4s1.9,4.4,2.1,4.4c0.1,0-0.1-4,0-4c0.1,0,1.3,5.1,1.4,5.1c0.1,0-0.1-3.1,0-3.1
				c0.2,0,1.9,6.3,2,6.3c0.1,0-0.1-2.3,0-2.3c0.1,0,1.2,4.8,1.4,4.8c0.1,0-0.1-0.9,0-0.9c0.1,0,2.1,3.4,2.2,3.4c0.1,0-0.1-2.8,0-2.8
				c0.2,0,1.2,7,1.4,7c0.1,0-0.1-3.9,0-3.9c0.1,0,1.4,3.5,1.4,3.5s-0.1-1.2,0-1.2c0.1,0,1.9,6,2,6c0.1,0-0.1-0.5,0-0.5
				c0.1,0,1.2,5.3,1.3,5.3c0.1,0-0.1-7.6,0-7.6c0.2,0,1.4,9.4,1.7,9.4c0.1,0-0.1-5.5,0-5.5c0.3,0,1.2,11,1.5,11c0.1,0-0.1-7.7,0-7.7
				c0.4,0,1.9,13,2.3,13c0.1,0-0.1-2.9,0-2.9s1.4,6.6,1.6,6.6c0.1,0-0.1-6.3,0-6.3c0.5,0,1.6,19.7,2.1,19.7c0.1,0-0.2-8.6,0-8.6"/>
			<path class="st3" d="M99.9,158.3c0.4,0-0.2-12.5,0-12.5c0.6,0,1.1,27.7,1.7,27.7c0.2,0-0.2-10.7,0-10.7c0.4,0,1.2,15.8,1.7,15.8
				c0.1,0-0.1-2.6,0-2.6c0.2,0,1.3,7.8,1.5,7.8c0.1,0-0.1-4.7,0-4.7c0.3,0,1.8,11.2,2,11.2c0.1,0-0.1-0.7,0-0.7
				c0.2,0,2.2,7.1,2.4,7.1c0.1,0-0.1-4.8,0-4.8c0.2,0,2.2,9.6,2.3,9.6c0.1,0-0.1-3.2,0-3.2c0.2,0,1.3,8.6,1.5,8.6
				c0.1,0-0.1-5.5,0-5.5c0.2,0,2.2,7.9,2.4,7.9c0.1,0-0.1-3.7,0-3.7c0.1,0,1.9,7.1,2,7.1c0.1,0-0.1-2.2,0-2.2c0.1,0,1.6,5.5,1.8,5.5
				c0.1,0-0.1-3.2,0-3.2c0.1,0,1.6,5.4,1.7,5.4c0.1,0-0.1-2.6,0-2.6s1.9,4.2,1.9,4.2s-0.1-2.2,0-2.2c0.1,0,1.4,4.6,1.5,4.6
				c0.1,0-0.1-5.1,0-5.1c0.2,0,1.7,7.1,1.9,7.1c0.1,0-0.1-1.6,0-1.6c0.1,0,1.2,4.6,1.3,4.6s-0.1-6.3,0-6.3c0.1,0,2,6.6,2.2,6.6
				c0.1,0-0.1-1.9,0-1.9c0.1,0,1.7,5,1.8,5c0.1,0-0.1-1.7,0-1.7c0.1,0,1.6,3.7,1.7,3.7c0.1,0-0.1-5.2,0-5.2c0.2,0,1.7,7.6,1.9,7.6
				c0.1,0-0.1-4.2,0-4.2c0.1,0,1.3,2.9,1.3,2.9c0.1,0-0.1-1.8,0-1.8c0.1,0,2.2,5.6,2.4,5.6c0.1,0-0.1-5.2,0-5.2
				c0.1,0,1.7,4.9,1.9,4.9c0.1,0-0.1-1.7,0-1.7c0.1,0,1.3,1.2,1.4,1.2c0.1,0-0.1-0.4,0-0.4c0.1,0,2.2,5.8,2.4,5.8
				c0.1,0-0.1-3.7,0-3.7c0.2,0,2.2,5.5,2.4,5.5c0.1,0-0.1-4,0-4c0.1,0,1.5,2.8,1.6,2.8c0.1,0-0.1-1.7,0-1.7c0.1,0,1.9,2.8,1.9,2.8
				c0.1,0,0-1.6,0-1.6c0.1,0,1.3,3.7,1.4,3.7c0.1,0-0.1-0.6,0-0.6c0.1,0,2.3,0.7,2.4,0.7c0,0-0.1-0.4,0-0.4c0.1,0,2.1,1.6,2.1,1.6
				s-0.1-1.5,0-1.5c0.1,0,2,1.8,2.1,1.8s0-2.1,0-2.1c0.1,0,1.3,3.5,1.4,3.5v-1.5c0.1,0,2.4,1.2,2.4,1.2c0.1,0,0-0.9,0-0.9
				c0.1,0,2.2,5.5,2.4,5.5c0.1,0,0-6,0-6c0.1,0,1.6,3.7,1.7,3.7c0.1,0,0-1.9,0-1.9c0.1,0,1.6,3.5,1.7,3.5v-1.4
				c0.1,0,1.9,2.8,1.9,2.8v-3.1c0.1,0,1.5,3,1.6,3c0,0-0.1-1.4,0-1.4c0.1,0,1.6,1.9,1.7,1.9v-1.4c0.1,0,1.8,2,1.9,2
				c0,0-0.1-1.4,0-1.4c0.1,0,2.3,2.1,2.4,2.1c0.1,0,0-1.4,0-1.4c0.1,0,1.6,3,1.7,3c0,0-0.1-2.9,0-2.9c0.1,0,1.7,4,1.8,4
				c0.1,0,0-3.7,0-3.7c0.1,0,2,2.3,2.1,2.3s-0.1-1.4,0-1.4s1.4,1.4,1.5,1.4c0,0-0.1-1.3,0-1.3s1.2,1.9,1.2,1.9c0.1,0,0-1.4,0-1.4
				c0.1,0,1.7,1.7,1.7,1.7V256c0.1,0,2.1,1.9,2.2,1.9c0,0-0.1-0.4,0-0.4c0.1,0,1.2,3,1.3,3c0.1,0,0-6.2,0-6.2c0.1,0,1.5,3.8,1.7,3.8
				v-0.5c0.1,0,1.9,2.1,2,2.1v-3.8c0.1,0,1.9,2.8,2,2.8c0.1,0-0.1-1.6,0-1.6c0.1,0,1.4,2.2,1.5,2.2c0,0-0.1-1.4,0-1.4
				c0.1,0,2.1,1.7,2.2,1.7s0-4.5,0-4.5c0.1,0,2,3.8,2.2,3.8c0.1,0,0-1.4,0-1.4c0.1,0,2,2.3,2.1,2.3c0.1,0,0-1.6,0-1.6
				c0.1,0,2.4,1.8,2.4,1.8v-4.8c0.1,0,2.2,5.8,2.3,5.8c0.1,0,0-3.9,0-3.9c0.1,0,1.9,3.8,2,3.8v-3c0.1,0,1.8,1.1,1.8,1.1
				c0.1,0-0.1-2.9,0-2.9s2.4,2.2,2.4,2.2c0.1,0-0.1-1.4,0-1.4s2.4-0.9,2.4-0.9c0,0-0.1-0.1,0-0.1c0.1,0,1.6,4.3,1.7,4.3v-5.9
				c0.1,0,1.4,3.3,1.4,3.3v-1.4c0.1,0,2-1.1,2-1.1c0.1,0-0.1-1.2,0-1.2c0.1,0,1.9,4,1.9,4c0.1,0,0-3.1,0-3.1c0.1,0,1.4,1.7,1.4,1.7
				v-1.4c0.1,0,1.9,3,2,3c0.1,0-0.1-1.8,0-1.8c0.1,0,2.3,0.3,2.4,0.3s0-3.2,0-3.2c0.1,0,2.2,1.5,2.2,1.5v-1.4c0.1,0,1.8,3.2,1.9,3.2
				s-0.1-1.7,0-1.7s1.7-1.2,1.8-1.2s0-1.4,0-1.4c0.1,0,2.1,2.7,2.2,2.7c0,0-0.1-3.6,0-3.6c0.1,0,1.9,1.6,2,1.6s-0.1-0.9,0-0.9
				s1.2,2.1,1.2,2.1c0.1,0-0.1-2.6,0-2.6s1.7-0.3,1.7-0.3c0.1,0,0-0.2,0-0.2c0.1,0,1.4-0.4,1.4-0.4c0.1,0,0-1.5,0-1.5
				c0.1,0,1.3,2.4,1.4,2.4c0.1,0,0-3.3,0-3.3c0.1,0,1.4,1.2,1.4,1.2s-0.1-1.5,0-1.5s2.2-1.9,2.2-1.9c0.1,0-0.1-0.6,0-0.6
				c0.1,0,1.5,4.2,1.6,4.2c0.1,0,0-5.1,0-5.1c0.1,0,2.2,0,2.3,0v-0.9c0.1,0,2.2,3.2,2.3,3.2c0.1,0-0.1-3,0-3s2.3-1.9,2.4-1.9
				c0.1,0,0-1.5,0-1.5c0.1,0,1.4,3.1,1.5,3.1c0.1,0-0.1-3.2,0-3.2c0.1,0,2,1.6,2.1,1.6c0.1,0-0.1-4,0-4c0.1,0,2.1,4,2.2,4
				c0,0-0.1-2.3,0-2.3s2.1-1.7,2.2-1.7s-0.1-1.9,0-1.9s2.1-1,2.2-1s-0.1-0.9,0-0.9s2.1,2.7,2.2,2.7c0.1,0-0.1-3.3,0-3.3
				c0.1,0,1.8,2.2,1.9,2.2s-0.1-5.5,0-5.5c0.1,0,1.2,4.9,1.3,4.9c0.1,0-0.1-3.7,0-3.7s1.8,0.4,1.9,0.4s-0.1-0.8,0-0.8
				s2.2,0.1,2.3,0.1s-0.1-2.6,0-2.6s2.2-1.1,2.2-1.1c0.1,0-0.1-1.8,0-1.8s1.5-0.1,1.6-0.1s-0.1-3.7,0-3.7s1.8,0.7,1.8,0.7
				c0.1,0-0.1-4.2,0-4.2c0.1,0,1.3,4.8,1.4,4.8c0.1,0-0.1-4.8,0-4.8s2.2,0.1,2.2,0.1c0.1,0-0.1-2.1,0-2.1s2.3-2.1,2.4-2.1
				c0.1,0-0.1-1.9,0-1.9s1.9,0.4,2,0.4s-0.1-2.9,0-2.9s1.7-1.5,1.7-1.5c0.1,0-0.1-4,0-4s1.2,4.1,1.2,4.1s-0.1-2,0-2s2.2-3.1,2.2-3.1
				s-0.1-3,0-3s2.1,0.3,2.2,0.3s-0.1-6.3,0-6.3s1.3,2.4,1.4,2.4s-0.1-3.2,0-3.2s2.2-0.9,2.3-0.9c0.1,0-0.1-4.6,0-4.6
				s1.6-2.3,1.6-2.3c0.1,0-0.1-5.1,0-5.1s2.3-3.5,2.4-3.5c0.1,0-0.1-8.7,0-8.7c0.2,0,2.2-7.9,2.3-7.9c0.3,0-0.4-14.5,0-14.5"/>
		</g>
	</g>
</g>
<g class="st0">
	<g>
		<g>
			<path class="st4" d="M92.5,147.1c0.4,0-0.4-16.1,0-16.1c0.1,0,1.9-2,2-2c0.1,0-0.1-4.2,0-4.2c0.1,0,2.2-1.3,2.3-1.3
				s-0.1-7.3,0-7.3c0.1,0,1.9-2.2,1.9-2.2s-0.1-2.7,0-2.7c0.1,0,1.4,1.6,1.5,1.6s-0.1-6.1,0-6.1c0.1,0,2.5-3,2.7-3
				c0.1,0-0.1-3.5,0-3.5s2.2-1.8,2.2-1.8s-0.1-2.4,0-2.4s1.4,1.3,1.5,1.3s-0.1-0.9,0-0.9s1.8-3.5,1.9-3.5s-0.1-1.2,0-1.2
				s2,0.6,2.1,0.6s-0.1-1.7,0-1.7s1.9-1.9,2-1.9c0.1,0-0.1-2.6,0-2.6s1.6,2.2,1.7,2.2c0.1,0-0.1-2.2,0-2.2c0.1,0,1.9-2.4,1.9-2.4
				c0.1,0-0.1-2.4,0-2.4c0.1,0,1.4,1.7,1.5,1.7s-0.1-4.7,0-4.7s1.7,2.2,1.8,2.2s-0.1-3.7,0-3.7s1.6,0.1,1.6,0.1c0.1,0-0.1-2.7,0-2.7
				s2.4,0.6,2.4,0.6c0.1,0-0.1-0.4,0-0.4s2.3-1.4,2.4-1.4s-0.1-2.1,0-2.1s2.4-1.3,2.4-1.3c0.1,0-0.1-1.9,0-1.9
				c0.1,0,2.2,0.4,2.2,0.4c0.1,0-0.1-1.2,0-1.2c0.1,0,1.9,0,2,0c0.1,0-0.1-1.9,0-1.9c0.1,0,1.4-0.2,1.4-0.2c0.1,0-0.1-0.4,0-0.4
				c0.1,0,2.3,1.2,2.4,1.2c0.1,0-0.1-1.4,0-1.4c0.1,0,1.5,0.3,1.5,0.3c0.1,0-0.1-2.5,0-2.5c0.1,0,1.9-0.2,2-0.2c0.1,0-0.1-4.5,0-4.5
				c0.1,0,2.4,4.1,2.4,4.1c0.1,0-0.1-5.7,0-5.7c0.1,0,1.7,4.5,1.9,4.5c0.1,0-0.1-3.6,0-3.6s1.8,2.1,1.9,2.1c0.1,0-0.1-3.7,0-3.7
				c0.1,0,2.4-0.4,2.4-0.4c0.1,0-0.1-0.6,0-0.6c0.1,0,2.2,0.6,2.2,0.6c0.1,0-0.1-1.7,0-1.7c0.1,0,2.3,1.2,2.3,1.2
				c0.1,0-0.1-3.3,0-3.3c0.1,0,2.2,1.4,2.3,1.4c0.1,0-0.1-1.7,0-1.7c0.1,0,1.5,3.5,1.7,3.5c0.1,0-0.1-3.3,0-3.3
				c0.1,0,1.8-0.1,1.9-0.1s-0.1-1.7,0-1.7s1.5,1.6,1.6,1.6c0.1,0-0.1-1.2,0-1.2c0.1,0,2.4-0.4,2.4-0.4c0.1,0-0.1-1,0-1
				c0.1,0,1.4,1.9,1.5,1.9c0.1,0-0.1-5.4,0-5.4c0.1,0,2.2,0.5,2.3,0.5c0,0-0.1-0.6,0-0.6c0.1,0,1.4,2.5,1.5,2.5s0-1.6,0-1.6
				c0.1,0,2,0.9,2.1,0.9c0,0-0.1-1.6,0-1.6c0.1,0,1.8,3.5,1.9,3.5c0.1,0-0.1-6.1,0-6.1c0.1,0,2.4,3.5,2.5,3.5c0.1,0,0,0,0,0
				s1.4-0.4,1.5-0.4c0.1,0,0-0.9,0-0.9c0.1,0,2.2,1.4,2.3,1.4v-1c0,0,1.4,0.6,1.4,0.6c0.1,0-0.1-1.5,0-1.5c0.1,0,1.5-0.7,1.5-0.7
				c0.1,0-0.1-1.3,0-1.3c0.1,0,2.2,0.9,2.3,0.9c0.1,0-0.1-1.5,0-1.5s2.1,1.2,2.2,1.2c0.1,0-0.1-1.5,0-1.5c0.1,0,1.7,1.2,1.8,1.2
				c0.1,0,0-1.5,0-1.5c0.1,0,1.5,0.9,1.5,0.9c0.1,0-0.1-1.4,0-1.4c0.1,0,1.7,3.5,1.8,3.5c0.1,0,0-2.2,0-2.2c0.1,0,2.5-1.2,2.6-1.2
				c0.1,0,0-2.7,0-2.7c0.1,0,1.6,3.7,1.7,3.7c0.1,0-0.1-1.5,0-1.5c0.1,0,2.3,2.6,2.4,2.6c0,0-0.1-0.6,0-0.6s1.7-1.6,1.8-1.6
				s-0.1-0.1,0-0.1s1.9,3.2,1.9,3.2s-0.1-4.5,0-4.5c0.1,0,1.9,3.2,2.1,3.2c0.1,0-0.1-4,0-4c0.1,0,1.4,2.9,1.4,2.9v-1.5
				c0.1,0,2.4,3.2,2.4,3.2c0,0-0.1-1.7,0-1.7s2.2,1.4,2.2,1.4v-1.3c0.1,0,2.1,0.6,2.2,0.6v-3.2c0.1,0,1.4,2.7,1.4,2.7
				c0.1,0-0.1-1.5,0-1.5c0.1,0,1.7,3.7,1.8,3.7c0.1,0-0.1-5.3,0-5.3c0.1,0,1.7,5.8,1.9,5.8c0.1,0,0-4.8,0-4.8c0.1,0,2.2,4.3,2.2,4.3
				c0.1,0,0-3.7,0-3.7c0.1,0,2.3,2.3,2.4,2.3c0,0-0.1-1.5,0-1.5s1.7,3.8,1.9,3.8c0,0-0.1-4.3,0-4.3c0.1,0,1.7,4.5,1.8,4.5
				c0.1,0-0.1-3.4,0-3.4c0.1,0,1.7,4.5,1.9,4.5c0,0-0.1-4.5,0-4.5s2.1,0.8,2.2,0.8s0-0.6,0-0.6c0.1,0,2.2,2.3,2.2,2.3s0-1.3,0-1.3
				c0.1,0,2.2,2.3,2.2,2.3c0,0-0.1-1.5,0-1.5c0.1,0,1.3,3.2,1.4,3.2c0,0-0.1-2.8,0-2.8s1.4,2.1,1.5,2.1s-0.1-0.6,0-0.6
				s2.5,1.3,2.6,1.3c0,0-0.1-1.6,0-1.6c0.1,0,1.4,4.5,1.5,4.5c0.1,0,0-2.5,0-2.5c0.1,0,1.4-0.9,1.5-0.9c0.1,0-0.1-1.1,0-1.1
				c0.1,0,2.2,3.4,2.3,3.4c0.1,0-0.1-1.6,0-1.6s2.4,2.6,2.6,2.6v-1.6c0.1,0,1.4,0,1.4,0s-0.1-0.6,0-0.6s2.3,1.8,2.3,1.8
				c0.1,0-0.1-0.8,0-0.8c0.1,0,2.1,6.6,2.2,6.6c0.1,0,0-6.6,0-6.6c0.1,0,1.5,5.7,1.7,5.7c0,0-0.1-2.7,0-2.7c0.1,0,2.2,4.3,2.3,4.3
				c0,0-0.1-2.2,0-2.2s1.7,2.3,1.8,2.3s-0.1-1.2,0-1.2s2.1,1.8,2.2,1.8s-0.1-1.7,0-1.7c0.1,0,1.4,4.6,1.6,4.6c0.1,0-0.1-6.1,0-6.1
				c0.1,0,1.4,6.7,1.6,6.7c0.1,0-0.1-2.7,0-2.7s1.6,2,1.7,2s-0.1-1.8,0-1.8c0.1,0,2.3,4.5,2.4,4.5c0.1,0-0.1-1.9,0-1.9
				c0.1,0,1.4,1.8,1.4,1.8s-0.1-1.8,0-1.8c0.1,0,2.3,4.8,2.4,4.8c0.1,0-0.1-5.2,0-5.2c0.2,0,1.9,6.3,2.1,6.3c0.1,0-0.1-2.6,0-2.6
				c0.1,0,2.3,4.9,2.4,4.9c0.1,0-0.1-0.9,0-0.9c0.1,0,2.5,4.8,2.7,4.8c0.1,0-0.1-3.7,0-3.7c0.1,0,2.2,4.7,2.3,4.7
				c0.1,0-0.1-0.9,0-0.9s1.6,0.9,1.7,0.9c0.1,0-0.1-2.1,0-2.1c0.1,0,1.9,4.2,2.1,4.2c0.1,0-0.1-2.2,0-2.2c0.1,0,1.9,6.4,2.1,6.4
				c0.1,0-0.1-6.6,0-6.6c0.2,0,1.7,8.1,1.9,8.1c0.1,0-0.1-1.4,0-1.4s1.8,1.9,1.9,1.9s-0.1-2.9,0-2.9c0.2,0,2.4,8.2,2.6,8.2
				c0.1,0-0.1-6.7,0-6.7c0.3,0,2.1,10.7,2.4,10.7c0.1,0-0.1-5.7,0-5.7c0.1,0,1.4,5.5,1.6,5.5c0.1,0-0.1-2.7,0-2.7
				c0.2,0,2.1,8.4,2.3,8.4c0.1,0-0.1-5.3,0-5.3c0.1,0,1.7,5.6,1.9,5.6c0.1,0-0.1-2.1,0-2.1c0.1,0,1.6,7.2,1.7,7.2
				c0.1,0-0.1-3.3,0-3.3c0.1,0,1.5,7.5,1.7,7.5c0.1,0-0.1-3.4,0-3.4c0.1,0,1.7,5,1.9,5c0.1,0-0.1-2.2,0-2.2c0.3,0,2.4,10.4,2.7,10.4
				c0.1,0-0.1-5.4,0-5.4c0.2,0,1.9,7.2,2.2,7.2c0.1,0-0.1-0.1,0-0.1c0.3,0,1.4,10.4,1.7,10.4c0.1,0-0.1-8,0-8
				c0.3,0,1.1,12.1,1.4,12.1c0.2,0-0.1-6.6,0-6.6c0.6,0,1.2,23.1,1.7,23.1c0.4,0-0.3-13.8,0-13.8"/>
			<path class="st4" d="M90.9,158.7c0.3,0-0.3-12,0-12c0.6,0,1.1,29.2,1.7,29.2c0.2,0-0.2-12.7,0-12.7c0.5,0,1.7,19,2.2,19
				c0.1,0-0.1-3.6,0-3.6c0.2,0,1.5,8.9,1.7,8.9c0.1,0-0.1-2.5,0-2.5c0.3,0,1.7,10.5,1.9,10.5c0.1,0-0.1-3.7,0-3.7
				c0.1,0,1.8,6.2,1.9,6.2c0.1,0-0.1-3.3,0-3.3c0.2,0,1.7,9.2,2,9.2c0.1,0-0.1-3.5,0-3.5c0.2,0,2.3,7.8,2.5,7.8c0.1,0-0.1-1.7,0-1.7
				c0.1,0,1.5,2.7,1.6,2.7s-0.1-3.2,0-3.2c0.2,0,1.2,8.1,1.4,8.1c0.1,0-0.1-5,0-5c0.2,0,1.9,8.8,2.1,8.8c0.1,0-0.1-3.3,0-3.3
				c0.1,0,1.6,5.3,1.7,5.3c0.1,0-0.1-1.2,0-1.2s1.4,2.2,1.4,2.2c0.1,0-0.1-3.3,0-3.3c0.2,0,1.7,8.1,1.9,8.1c0.1,0-0.1-4.5,0-4.5
				c0.1,0,1.7,5.2,1.9,5.2c0.1,0-0.1-4.4,0-4.4c0.1,0,2.2,6.7,2.3,6.7c0.1,0-0.1-2.8,0-2.8c0.1,0,1.7,4.8,1.8,4.8
				c0.1,0-0.1-2.2,0-2.2c0.1,0,1.7,4.7,1.9,4.7c0.1,0-0.1-2.2,0-2.2c0.1,0,1.3,4.1,1.4,4.1s-0.1-4.5,0-4.5c0.2,0,2,8.9,2.2,8.9
				c0.1,0-0.1-2.4,0-2.4s2.3,3,2.4,3c0.1,0-0.1-0.8,0-0.8c0.1,0,2.2,2,2.3,2c0.1,0-0.1-0.9,0-0.9c0.1,0,2.4,1.7,2.5,1.7
				c0.1,0-0.1-1.2,0-1.2c0.1,0,1.8,3.6,1.9,3.6c0.1,0-0.1-1.9,0-1.9c0.1,0,2.5,4.1,2.7,4.1c0.1,0-0.1-2.1,0-2.1
				c0.1,0,1.4,5.5,1.5,5.5c0.1,0-0.1-6,0-6c0.1,0,1.4,3.5,1.5,3.5c0.1,0-0.1-3.5,0-3.5c0.1,0,1.3,4.5,1.4,4.5c0.1,0-0.1-0.6,0-0.6
				c0.1,0,1.4,2.9,1.4,2.9c0.1,0-0.1-2.2,0-2.2c0.1,0,1.3,2.4,1.4,2.4c0.1,0-0.1-1.7,0-1.7c0.1,0,1.5,4.7,1.7,4.7
				c0.1,0-0.1-6.1,0-6.1c0.1,0,1.3,6,1.4,6c0.1,0-0.1-5.1,0-5.1c0.1,0,2.3,4.8,2.4,4.8c0.1,0-0.1-0.5,0-0.5c0.1,0,1.7,3.4,1.8,3.4
				c0.1,0-0.1-4.6,0-4.6c0.1,0,1.8,5.5,1.9,5.5c0.1,0-0.1-4.5,0-4.5c0.1,0,2,4.1,2.2,4.1c0.1,0-0.1-1.7,0-1.7c0.1,0,2.1,2.4,2.2,2.4
				c0,0-0.1-1.2,0-1.2c0.1,0,1.4,3.1,1.4,3.1c0.1,0-0.1-5,0-5c0.1,0,1.8,6.7,1.9,6.7c0.1,0-0.1-5,0-5c0.1,0,1.8,1.5,1.9,1.5
				c0.1,0-0.1-0.8,0-0.8c0.1,0,2.3,3.9,2.4,3.9c0,0-0.1-1.6,0-1.6c0.1,0,2.4,3.7,2.4,3.7c0.1,0-0.1-0.5,0-0.5c0.1,0,2.4,2.3,2.4,2.3
				c0,0-0.1-2,0-2c0.1,0,1.4,1.7,1.4,1.7c0,0-0.1-1.5,0-1.5c0.1,0,1.6-1.9,1.7-1.9c0.1,0,0-0.8,0-0.8c0.1,0,2.4,4.8,2.5,4.8
				c0.1,0,0-1.3,0-1.3c0.1,0,2.4,0.7,2.5,0.7v-1.5c0.1,0,1.8,2.9,1.9,2.9s-0.1-3,0-3s1.7,2.6,1.8,2.6c0,0-0.1-0.9,0-0.9
				s1.8,1.1,1.9,1.1c0.1,0,0-1.5,0-1.5c0.1,0,1.7,3.2,1.7,3.2c0.1,0,0-0.4,0-0.4c0.1,0,1.4-0.8,1.5-0.8s-0.1-4.1,0-4.1
				s1.7,2.9,1.7,2.9v-2.7c0.1,0,2.1,5.3,2.2,5.3c0.1,0-0.1-5,0-5c0.1,0,2.3,4.3,2.4,4.3c0.1,0-0.1-1.2,0-1.2s2.2,1.1,2.3,1.1
				c0.1,0-0.1-2.1,0-2.1s2.1,4,2.2,4c0.1,0-0.1-5,0-5c0.2,0,2.2,5.8,2.4,5.8c0,0-0.1-1.7,0-1.7s2.5,0.8,2.6,0.8v-0.8
				c0.1,0,2.3-0.5,2.4-0.5s-0.1-1.5,0-1.5s1.8,1.4,1.9,1.4c0,0-0.1-1.5,0-1.5s1.5,1.4,1.5,1.4s-0.1-1.5,0-1.5s2.3,1.4,2.4,1.4v-1.5
				c0.1,0,1.4,1.4,1.4,1.4c0.1,0,0-1.5,0-1.5c0.1,0,1.4,1.3,1.4,1.3s-0.1-3.1,0-3.1c0.1,0,2.4,5,2.4,5v-0.9c0.1,0,1.8,0.4,1.9,0.4
				s-0.1-2.2,0-2.2s2.4-1.9,2.4-1.9c0.1,0-0.1-1.9,0-1.9c0.1,0,1.7,2.9,1.8,2.9c0.1,0-0.1-0.5,0-0.5c0.1,0,1.9,0.9,1.9,0.9
				c0.1,0-0.1-1.5,0-1.5s1.4,1.2,1.4,1.2c0.1,0-0.1-1.5,0-1.5c0.1,0,2.2,1.1,2.2,1.1c0.1,0-0.1-1.5,0-1.5s2.3-0.1,2.4-0.1
				s-0.1-0.4,0-0.4s1.6,1.1,1.7,1.1c0.1,0,0-1.5,0-1.5c0.1,0,1.5,1.5,1.6,1.5c0,0-0.1-1.7,0-1.7c0.1,0,1.4,0.9,1.4,0.9s0-1.6,0-1.6
				c0.1,0,2.6,2.2,2.7,2.2c0.1,0,0-2.4,0-2.4c0.1,0,2,2.1,2.1,2.1c0.1,0,0-5.1,0-5.1c0.1,0,2,4.8,2.2,4.8c0.1,0-0.1-4.9,0-4.9
				s2.4,0.9,2.4,0.9s-0.1-3.5,0-3.5c0.1,0,2.4,3.2,2.6,3.2c0,0-0.1-1.7,0-1.7c0.1,0,1.4,0.3,1.5,0.3s-0.1-0.1,0-0.1s1.9-0.1,1.9-0.1
				s-0.1-1.7,0-1.7c0.1,0,1.5,0.9,1.5,0.9c0.1,0-0.1-1.7,0-1.7s1.9,0.7,1.9,0.7c0.1,0-0.1-1.7,0-1.7c0.1,0,2-1.7,2-1.7
				c0.1,0-0.1-0.2,0-0.2s1.9,0.7,1.9,0.7c0.1,0-0.1-3.3,0-3.3c0.1,0,2.3,3,2.4,3c0,0-0.1,0,0,0s1.6-1.2,1.7-1.2s-0.1-1.7,0-1.7
				s2.6,0.1,2.7,0.1s-0.1-1.8,0-1.8s2.5,0.9,2.6,0.9s-0.1-2.5,0-2.5s2.2,0.6,2.3,0.6c0.1,0-0.1-4.2,0-4.2s2.4,1.9,2.4,1.9
				c0.1,0-0.1-1.9,0-1.9s1.9-2,2-2c0.1,0-0.1-1.4,0-1.4s1.4,0.6,1.4,0.6c0.1,0-0.1-0.6,0-0.6s2.4,1,2.4,1s-0.1-4.6,0-4.6
				s2.4,1.7,2.4,1.7c0.1,0-0.1-2,0-2c0.1,0,2.4-1.9,2.4-1.9s-0.1-0.6,0-0.6s1.4,1.5,1.4,1.5c0.1,0-0.1-2.1,0-2.1l1.5,0.6
				c0.1,0-0.1-2.7,0-2.7c0.1,0,1.9-1.4,2-1.4c0.1,0-0.1-1.9,0-1.9c0.1,0,1.9,1.2,1.9,1.2s-0.1-0.2,0-0.2s1.3,0.8,1.4,0.8
				c0.1,0-0.1-3.2,0-3.2c0.1,0,2-3.2,2.1-3.2s-0.1-1,0-1s1.9-2.7,2-2.7c0.1,0-0.1-0.6,0-0.6s2.3,0.6,2.4,0.6c0.1,0-0.1-2.7,0-2.7
				l1.5-0.6c0.1,0-0.1-3.5,0-3.5s1.7,0.9,1.7,0.9s-0.1-3,0-3s1.9,0.9,1.9,0.9s-0.1-5.9,0-5.9s1.6,1.7,1.7,1.7c0.1,0-0.1-4.7,0-4.7
				s2.1,0.9,2.2,0.9s-0.1-2.7,0-2.7c0.1,0,1.4-1.5,1.4-1.5c0.1,0-0.1-1.9,0-1.9s1.9-2.9,1.9-2.9s-0.1-3.5,0-3.5
				c0.1,0,2.5-6.3,2.7-6.3c0.1,0-0.1-6.2,0-6.2l1.4,0.5c0.1,0-0.2-5.2,0-5.2s2.3-9.1,2.6-9.1c0.4,0-0.4-20,0-20"/>
		</g>
	</g>
</g>
<g class="st0">
	<g>
		<circle class="st5" cx="83.5" cy="409.3" r="58.7"/>
		<ellipse class="st5" cx="83.5" cy="409.3" rx="53.2" ry="58.7"/>
		<ellipse class="st5" cx="83.8" cy="409.3" rx="46.8" ry="58.7"/>
		<ellipse class="st5" cx="84" cy="409.3" rx="38" ry="58.7"/>
		<ellipse class="st5" cx="85" cy="409.3" rx="29.6" ry="58.7"/>
		<ellipse class="st5" cx="85.1" cy="409.3" rx="21.5" ry="58.7"/>
		<ellipse class="st5" cx="84.7" cy="409.3" rx="13.7" ry="58.7"/>
		<ellipse class="st5" cx="84.4" cy="409.2" rx="5.3" ry="58.7"/>
		<circle class="st5" cx="83.6" cy="409.3" r="58.7"/>
		<ellipse class="st5" cx="83.6" cy="409.3" rx="58.7" ry="53.2"/>
		<ellipse class="st5" cx="83.6" cy="409" rx="58.7" ry="46.8"/>
		<ellipse class="st5" cx="83.6" cy="408.8" rx="58.7" ry="38"/>
		<ellipse class="st5" cx="83.6" cy="407.8" rx="58.7" ry="29.6"/>
		<ellipse class="st5" cx="83.6" cy="407.7" rx="58.7" ry="21.5"/>
		<ellipse class="st5" cx="83.6" cy="408.1" rx="58.7" ry="13.7"/>
		<ellipse class="st5" cx="83.5" cy="408.4" rx="58.7" ry="5.3"/>
	</g>
	<g>
		<g>
			<g>
				<path class="st6" d="M15,405.6c0.2,0-0.2-7.4,0-7.4c0.1,0,1-3,1.1-3c0.1,0-0.1-4.6,0-4.6c0.1,0,1.2,1.2,1.3,1.2
					c0.1,0-0.1-3.4,0-3.4s0.8-1.4,0.9-1.4s-0.1-0.6,0-0.6c0.1,0,0.9-2.9,1-2.9c0.1,0-0.1-2.2,0-2.2c0.1,0,0.9,0.9,1,0.9
					c0.1,0-0.1-3.2,0-3.2c0.1,0,1.2,1.2,1.2,1.2s-0.1-1,0-1c0,0,0.8-0.7,0.8-0.7s-0.1-2.9,0-2.9s1.2,0.1,1.3,0.1
					c0.1,0-0.1-1.5,0-1.5c0.1,0,1,1.1,1.1,1.1c0.1,0-0.1-3.7,0-3.7c0.1,0,1.3-0.7,1.4-0.7c0.1,0-0.1-1.4,0-1.4
					c0.1,0,1.4,0.1,1.4,0.1s-0.1-1.6,0-1.6c0.1,0,1.5,1,1.6,1c0.1,0-0.1-3.5,0-3.5c0.1,0,1.5-1.2,1.6-1.2s-0.1-1.4,0-1.4
					s0.9,2.4,1,2.4c0.1,0-0.1-1.9,0-1.9l0.9-0.1c0.1,0-0.1-1.4,0-1.4c0,0,1.1-0.3,1.1-0.3c0.1,0-0.1-0.9,0-0.9c0.1,0,0.9,0.1,1,0.1
					s-0.1-1.8,0-1.8s1,1,1.1,1s-0.1-2.9,0-2.9s0.9,1.9,1,1.9s-0.1-0.6,0-0.6s1.5,0.1,1.5,0.1c0.1,0-0.1-3.1,0-3.1s1,0.9,1.1,0.9
					s-0.1-0.7,0-0.7s1.6,0.5,1.6,0.5c0.1,0,0-3.2,0-3.2c0.1,0,1.4,1.2,1.5,1.2c0.1,0,0-1.1,0-1.1c0.1,0,1-1,1-1s-0.1-1.1,0-1.1
					s1.4,1.5,1.4,1.5v-1.8c0.1,0,0.9,2.4,1,2.4s0-1.1,0-1.1l0.8-0.3c0,0-0.1-0.2,0-0.2l0.8-0.4v-1c0.1,0,1.5,0.7,1.5,0.7
					c0,0-0.1-2.4,0-2.4s1.6,0.5,1.6,0.5s0-1,0-1c0.1,0,0.9,1.3,0.9,1.3v-2.2c0.1,0,1,1.7,1,1.7s-0.1-3.2,0-3.2
					c0.1,0,1.3,3.2,1.4,3.2v-1.4c0.1,0,1.4-0.2,1.4-0.2s0-1.1,0-1.1c0.1,0,1.5,1,1.5,1c0.1,0,0-1.5,0-1.5c0.1,0,1.2-0.1,1.3-0.1v-1
					c0.1,0,1.2,1.2,1.3,1.2s0-1,0-1s0.9,0.2,1,0.2v-2.4c0.1,0,1,1.2,1,1.2v-1.6c0.1,0,1,1.6,1.1,1.6v-0.2c0.1,0,1.5,0.5,1.5,0.5
					s-0.1-2.4,0-2.4c0.1,0,0.9,0.8,1,0.8v-1.4c0.1,0,1.6,2.6,1.6,2.6v-0.9c0.1,0,1.5-1.1,1.5-1.1c0,0-0.1-0.1,0-0.1s1.5,0.3,1.5,0.3
					v-1.7c0.1,0,1.1,1.2,1.1,1.2v-0.4c0.1,0,1.3,1.8,1.3,1.8s-0.1-3,0-3s0.9,2.9,1,2.9v-2.8c0.1,0,1.2,1.7,1.3,1.7s0-0.6,0-0.6
					c0.1,0,1.1,1.4,1.1,1.4v-0.8c0.1,0,1.3,0.7,1.3,0.7v-1.2c0,0,0.8-0.2,0.8-0.2V340c0.1,0,1.4,0.8,1.5,0.8v-0.9
					c0.1,0,0.9,0.8,0.9,0.8v-0.9c0.1,0,1,2.4,1.1,2.4v-1.4c0.1,0,0.9,0.8,0.9,0.8v-3.1c0.1,0,1,1.7,1.1,1.7v-1.7
					c0.1,0,0.9,3.7,1,3.7c0.1,0,0-2,0-2c0.1,0,1.6-0.4,1.6-0.4c0,0-0.1-1.3,0-1.3s1.2,2.1,1.2,2.1v-0.9c0.1,0,1.5,2.5,1.6,2.5v-1.8
					c0.1,0,1.2,0.3,1.2,0.3c0,0-0.1-0.9,0-0.9s0.9,0.5,1,0.5v-0.8c0.1,0,1.5,2.2,1.6,2.2v-2.1c0.1,0,0.9,1.6,1,1.6v-0.9
					c0,0,0.8,0.4,0.8,0.4s0,0,0,0c0.1,0,1.1,0.4,1.1,0.4s-0.1-0.2,0-0.2s1.4,1.1,1.4,1.1v-0.2c0.1,0,1.4,1.3,1.5,1.3v-2.7
					c0.1,0,1.3,1.3,1.4,1.3s-0.1-0.6,0-0.6s1.4,0.4,1.5,0.4v-1.1c0.1,0,1,1.4,1.1,1.4s0-0.9,0-0.9c0.1,0,0.9,4,1,4v-2.4
					c0,0,0.9,0.3,0.9,0.3c0.1,0,0-0.6,0-0.6c0.1,0,0.9,2.2,1,2.2c0,0-0.1-1.7,0-1.7s1.5,1.8,1.5,1.8v-0.9c0.1,0,1.2,2.1,1.4,2.1
					v-1.1c0.1,0,1.2,0.9,1.2,0.9v-1c0.1,0,0.9,1.4,0.9,1.4v-1c0.1,0,1.2,0.8,1.2,0.8c0.1,0-0.1-0.5,0-0.5s1.2,1.8,1.2,1.8
					c0.1,0,0-1,0-1c0.1,0,1.5,2,1.5,2v-1c0.1,0,1.3,2.9,1.4,2.9v-1c0.1,0,1.2-0.8,1.2-0.8v-1c0.1,0,0.8,2.8,0.9,2.8
					c0,0-0.1-2.5,0-2.5s1.5,2.4,1.6,2.4v-1.8c0.2,0,1.2,4.6,1.4,4.6c0.1,0-0.1-2.8,0-2.8c0.1,0,1.2,2.7,1.3,2.7V351
					c0.1,0,1,1.4,1.1,1.4v-2c0.1,0,1.3,3.6,1.4,3.6c0.1,0-0.1-1.1,0-1.1s1,2.2,1.1,2.2c0,0-0.1-0.3,0-0.3s1.3,1,1.4,1s0-1.1,0-1.1
					c0.1,0,1.5,2.4,1.5,2.4c0,0-0.1-1.2,0-1.2c0.1,0,1,3.5,1.1,3.5c0,0-0.1-3.4,0-3.4c0.2,0,1.1,4.3,1.2,4.3c0.1,0,0-2.7,0-2.7
					c0.1,0,1.4,2.3,1.4,2.3c0.1,0-0.1-1.2,0-1.2c0.1,0,0.8,2.6,0.9,2.6c0.1,0,0-0.9,0-0.9c0.1,0,1,2.1,1.1,2.1c0.1,0-0.1-1.9,0-1.9
					s1.4,2,1.5,2c0.1,0-0.1-0.1,0-0.1c0.1,0,1,3.2,1,3.2s-0.1-1.6,0-1.6c0.1,0,1.3,3,1.4,3s-0.1-1.5,0-1.5c0.1,0,1.2,4.1,1.3,4.1
					c0.1,0-0.1-2.7,0-2.7c0.1,0,0.8,4.1,1,4.1c0.1,0-0.1-3.2,0-3.2c0.2,0,1,5.4,1.1,5.4c0.1,0-0.1-3.4,0-3.4c0.1,0,0.9,4.9,1,4.9
					c0.1,0-0.1-3.4,0-3.4s1,3.1,1.1,3.1c0.1,0-0.1-1.3,0-1.3s0.8,2.1,0.8,2.1s-0.1-0.6,0-0.6c0.2,0,1.2,4.5,1.4,4.5
					c0.1,0-0.1-1.1,0-1.1c0.1,0,0.7,4,0.8,4c0.1,0-0.1-3.1,0-3.1c0.2,0,1.4,7.2,1.5,7.2c0.1,0-0.1-3.4,0-3.4c0.2,0,1.4,7.6,1.6,7.6
					c0.1,0-0.1-3.6,0-3.6c0.3,0,1.4,10.9,1.6,10.9c0.1,0-0.1-4.9,0-4.9c0.2,0,0.6,10.8,0.9,10.8c0.2,0-0.2-8.1,0-8.1"/>
				<path class="st6" d="M14.1,412.7c0.2,0-0.3-8.2,0-8.2c0.4,0,0.4,17.6,0.9,17.6c0.2,0-0.2-7.4,0-7.4c0.3,0,1,11,1.2,11
					c0.1,0-0.1-1.3,0-1.3c0.2,0,1.4,6.2,1.6,6.2c0.1,0-0.1-0.2,0-0.2c0.2,0,1.1,6,1.2,6c0.1,0-0.1-3.8,0-3.8c0.2,0,1.2,5.4,1.4,5.4
					c0.1,0-0.1-2.8,0-2.8c0.2,0,0.9,5.9,1.1,5.9c0.1,0-0.1-2,0-2c0.1,0,1.4,4.8,1.5,4.8c0.1,0-0.1-3.2,0-3.2c0.1,0,1,4.3,1.1,4.3
					c0.1,0-0.1-2.5,0-2.5c0.2,0,1.3,6.3,1.5,6.3c0.1,0-0.1-2.3,0-2.3c0.1,0,1.3,4.2,1.4,4.2c0.1,0-0.1-3.3,0-3.3
					c0.1,0,1.4,4.2,1.4,4.2c0.1,0-0.1-1.5,0-1.5c0.1,0,1.1,3.1,1.2,3.1c0.1,0-0.1-1.5,0-1.5c0.1,0,0.9,1.7,1,1.7
					c0.1,0-0.1-1.2,0-1.2c0.1,0,0.9,3.7,1,3.7c0.1,0-0.1-2.3,0-2.3c0.1,0,1.2,3.4,1.4,3.4c0.1,0-0.1-1.3,0-1.3s1.5,2.5,1.6,2.5
					c0.1,0,0-1.9,0-1.9c0.1,0,1.4,3.5,1.5,3.5c0.1,0-0.1-1.6,0-1.6c0.1,0,1.2,4.1,1.3,4.1c0.1,0-0.1-1.2,0-1.2c0,0,0.9-0.4,1-0.4
					c0,0-0.1-1.2,0-1.2c0.1,0,0.9,2,0.9,2c0.1,0-0.1-0.6,0-0.6c0.1,0,1.5,3.5,1.6,3.5c0,0-0.1-0.9,0-0.9s0.8,1.1,0.8,1.1
					s-0.1-1.1,0-1.1s0.9,0.4,0.9,0.4s-0.1-0.7,0-0.7s1.4,3.1,1.4,3.1v-1.1c0.1,0,1.6,2.7,1.6,2.7c0.1,0-0.1-1.9,0-1.9
					c0.1,0,1.5,2.1,1.6,2.1c0.1,0,0-0.9,0-0.9c0.1,0,1.3,1.2,1.4,1.2c0,0-0.1-1.5,0-1.5c0.1,0,1,4.6,1.1,4.6v-2
					c0.1,0,0.9,1.8,0.9,1.8v-2.5c0.1,0,1.1,3.1,1.2,3.1c0,0-0.1-1.6,0-1.6s1.2,1.4,1.2,1.4s-0.1-1,0-1s1.5,1.7,1.6,1.7v-1
					c0.1,0,1.2,2.1,1.4,2.1c0.1,0,0-2.3,0-2.3c0.1,0,0.7,3.1,0.8,3.1c0.1,0,0-3.1,0-3.1c0.1,0,1.2,2.4,1.3,2.4c0,0-0.1-0.1,0-0.1
					s0.8,1.2,0.9,1.2v-2.8c0.1,0,1.6,2.5,1.6,2.5c0,0-0.1-0.4,0-0.4s1.2,2.3,1.2,2.3v-2.2c0.1,0,0.8,2.2,0.9,2.2c0.1,0,0-2,0-2
					c0.1,0,1.4,1.6,1.4,1.6v-1.4c0.1,0,1.4,2.8,1.5,2.8v-2.7c0.1,0,1.5,2.4,1.6,2.4v-2c0.1,0,1,2.9,1.1,2.9v-1.2
					c0,0,0.8,0.4,0.9,0.4v-0.9c0.1,0,1.2,1.9,1.2,1.9v-1.7c0.1,0,1.2-0.1,1.3-0.1v-0.8c0.1,0,1,2.2,1.1,2.2v-2.4
					c0.1,0,0.9,2.3,0.9,2.3v-1.8c0.1,0,1.4,2.4,1.5,2.4c0.1,0,0-0.9,0-0.9c0.1,0,1.1,2.1,1.1,2.1v-3c0.1,0,1.4,2,1.5,2v-0.9l0.8-0.2
					v-1.2c0.1,0,1.2,2.4,1.4,2.4c0.1,0,0-0.9,0-0.9c0.1,0,1.3,0.7,1.4,0.7s0-0.5,0-0.5c0.1,0,1.2,0.7,1.3,0.7v-0.9c0.1,0,1,2,1,2
					c0.1,0,0-0.4,0-0.4c0.1,0,0.8-2.3,0.9-2.3v-0.6c0.1,0,1,3.5,1.1,3.5v-1.5c0.1,0,0.8-1.4,0.8-1.4V477c0.1,0,1,1.6,1.1,1.6v-0.9
					c0.1,0,0.8-0.6,0.8-0.6s0-0.7,0-0.7c0.1,0,1.5,1.4,1.6,1.4V476c0.1,0,1.5,3.6,1.5,3.6v-3.8c0.1,0,1,1.9,1.1,1.9s0-1.8,0-1.8
					c0.1,0,1,0.6,1,0.6v-0.8c0.1,0,1.6,2,1.6,2v-0.9c0.1,0,1.5,1.1,1.6,1.1v-2.5c0.1,0,1.3,3.3,1.4,3.3v-1c0.1,0,1.2-0.4,1.3-0.4
					v-0.4c0.1,0,0.8,1.3,0.8,1.3v-3c0.1,0,1.4-0.4,1.5-0.4V474c0.1,0,0.8,2.4,0.9,2.4v-2.8c0.1,0,1,2.5,1.1,2.5c0,0-0.1-1.1,0-1.1
					s1,0.9,1.1,0.9s0-2.7,0-2.7c0.1,0,0.9,1.6,1,1.6c0,0-0.1-0.9,0-0.9s1.4,1.4,1.4,1.4c0.1,0-0.1-3.1,0-3.1s1.1,1.2,1.2,1.2
					s0-1.2,0-1.2c0.1,0,0.9,1.6,0.9,1.6c0,0-0.1-2.5,0-2.5c0.1,0,1.5,1.7,1.6,1.7v-1.5c0.1,0,1.4,0.8,1.4,0.8s-0.1-1,0-1
					s1.6,0.8,1.6,0.8s-0.1-1.8,0-1.8s0.8,0.8,0.9,0.8c0.1,0-0.1-1,0-1c0,0,0.9,0.2,0.9,0.2c0,0-0.1-1.9,0-1.9s1.2,2.1,1.2,2.1
					c0.1,0-0.1-2.3,0-2.3s0.8,1.4,0.8,1.4s-0.1-1,0-1s0.9,1.2,1,1.2c0.1,0,0-0.2,0-0.2c0.1,0,1-1,1-1c0.1,0,0-1.2,0-1.2
					c0.1,0,1.2,0.9,1.3,0.9c0,0-0.1-2.1,0-2.1s1.2-0.6,1.2-0.6s-0.1-0.7,0-0.7s1.2,2.3,1.3,2.3c0.1,0-0.1-1.7,0-1.7s1-0.2,1-0.2
					c0.1,0,0-1.1,0-1.1c0.1,0,1.5-1.1,1.6-1.1c0,0-0.1-0.4,0-0.4s1.2,0.9,1.2,0.9c0.1,0-0.1-2.7,0-2.7s1.2,1.1,1.2,1.1
					c0.1,0-0.1-1.2,0-1.2s1.3,0.7,1.4,0.7s-0.1-1.7,0-1.7s1.1-0.3,1.1-0.3c0.1,0,0-1,0-1c0.1,0,1.1,0.2,1.1,0.2c0.1,0-0.1-1.6,0-1.6
					c0.1,0,1.5,0.1,1.5,0.1c0.1,0-0.1-1.3,0-1.3s1.1,1.4,1.2,1.4c0.1,0-0.1-4.1,0-4.1s1.1,1.3,1.2,1.3s-0.1-1,0-1l0.9,0.1
					c0.1,0-0.1-1.4,0-1.4s1.5,0.4,1.5,0.4c0.1,0-0.1-1.2,0-1.2s1.2-2.9,1.2-2.9s-0.1-1.1,0-1.1c0,0,0.9,0,0.9,0c0.1,0-0.1-0.7,0-0.7
					s1.2-0.9,1.3-0.9s-0.1-0.6,0-0.6s1,1.5,1,1.5s-0.1-4.8,0-4.8s0.8,1.4,0.8,1.4s-0.1-1.7,0-1.7s1.4,0.2,1.4,0.2s-0.1-3.6,0-3.6
					s1,0.7,1,0.7s-0.1-3.1,0-3.1s1.5-0.2,1.6-0.2s-0.1-2.4,0-2.4s1.4-2,1.4-2s-0.1-0.8,0-0.8s1.1-1.1,1.1-1.1c0.1,0-0.1-3.8,0-3.8
					s1.2-3.1,1.4-3.1c0.2,0-0.2-6.4,0-6.4c0.1,0,1-2.6,1-2.6c0.2,0-0.3-8.5,0-8.5"/>
			</g>
		</g>
	</g>
	<g>
		<g>
			<g>
				<path class="st7" d="M9,404.9c0.2,0-0.3-8.3,0-8.3c0.1,0,1.4-1.5,1.4-1.5c0.1,0-0.1-6,0-6c0.1,0,1.2,0.5,1.2,0.5
					c0.1,0-0.1-4.2,0-4.2c0.1,0,1.2-1.7,1.2-1.7c0.1,0-0.1-3.4,0-3.4c0.1,0,1.2,0.8,1.2,0.8c0.1,0-0.1-2.1,0-2.1c0.1,0,1.2-1,1.3-1
					c0.1,0-0.1-0.2,0-0.2c0.1,0,0.9-1.8,0.9-1.8s-0.1-1.2,0-1.2s1.3,0.4,1.3,0.4c0.1,0-0.1-3.5,0-3.5c0.1,0,1,0.9,1,0.9
					s-0.1-1.6,0-1.6l1,0.1c0.1,0-0.1-3.1,0-3.1s1.2-0.6,1.2-0.6c0.1,0-0.1-0.2,0-0.2s1.2-0.4,1.2-0.4c0.1,0-0.1-1.7,0-1.7
					c0.1,0,1.7-2,1.8-2c0.1,0-0.1-0.9,0-0.9s1.7,0.4,1.7,0.4c0.1,0-0.1-0.3,0-0.3c0.1,0,1.4-0.6,1.4-0.6c0.1,0-0.1-0.7,0-0.7
					c0.1,0,1.3-0.6,1.4-0.6s-0.1-0.9,0-0.9s1-1.9,1.1-1.9c0.1,0-0.1-1.6,0-1.6c0.1,0,1.6,1.5,1.6,1.5c0.1,0-0.1-1.4,0-1.4l1-0.4
					c0.1,0-0.1-2,0-2s1.4,0.2,1.4,0.2c0.1,0-0.1-2.3,0-2.3s1.6,2.1,1.6,2.1s-0.1-0.9,0-0.9s1.1-0.5,1.2-0.5c0.1,0-0.1-3.5,0-3.5
					s1.2,2,1.2,2c0,0-0.1-1.2,0-1.2s1.6,0.4,1.6,0.4c0.1,0-0.1-2.6,0-2.6c0.1,0,1.2,2.9,1.3,2.9c0.1,0-0.1-4.2,0-4.2
					c0.1,0,1.4,2.7,1.5,2.7c0.1,0-0.1-2.8,0-2.8c0.1,0,1.4,1.1,1.4,1.1c0.1,0-0.1-3.1,0-3.1s1.7,2.6,1.7,2.6c0.1,0-0.1-1.1,0-1.1
					s1.6-0.7,1.6-0.7v-1.1c0.1,0,1.4,0.5,1.5,0.5v-0.2c0.1,0,1.1,0.6,1.1,0.6s-0.1-3.9,0-3.9c0.1,0,1.1,3,1.2,3c0,0-0.1-1.4,0-1.4
					c0.1,0,1.3,0.7,1.4,0.7s-0.1-0.9,0-0.9s1.7-0.8,1.8-0.8v-1.1c0.1,0,1.4,1.5,1.5,1.5c0.1,0,0-2.1,0-2.1c0.1,0,1.4,1.4,1.4,1.4
					c0.1,0,0-3,0-3c0.1,0,1.6,1.5,1.7,1.5s-0.1-1.1,0-1.1s1,2.3,1.1,2.3c0,0-0.1-2.9,0-2.9c0.1,0,1.7,1.7,1.7,1.7c0,0-0.1-2.3,0-2.3
					s1.2,1.9,1.3,1.9s0-1.6,0-1.6c0.1,0,1-1.3,1-1.3c0.1,0-0.1-0.4,0-0.4c0.1,0,1.7,1.4,1.8,1.4c0,0-0.1-1,0-1s1.4,0.5,1.5,0.5
					s-0.1-1.4,0-1.4c0.1,0,0.9,2.9,1,2.9c0.1,0-0.1-2.3,0-2.3s1.3,0.5,1.4,0.5s0-1,0-1c0.1,0,1.3-0.3,1.4-0.3s0-0.9,0-0.9
					c0.1,0,1.6,2.1,1.6,2.1s-0.1-2.3,0-2.3s1.4,1.7,1.5,1.7c0.1,0,0-1,0-1c0.1,0,1.6,0.8,1.6,0.8s0-1,0-1c0.1,0,1.6,0.5,1.6,0.5
					s0-2.2,0-2.2c0.1,0,1.1,2.7,1.2,2.7c0,0-0.1-1.6,0-1.6s1.2,1.4,1.2,1.4V333c0.1,0,1.4,2.8,1.4,2.8v-2.9c0.1,0,1.1,2.2,1.2,2.2
					c0.1,0-0.1-1.6,0-1.6c0.1,0,1.1,1,1.1,1c0.1,0,0-2.5,0-2.5c0.1,0,1.2,3.3,1.3,3.3v-3.5c0.1,0,1.4,3,1.4,3v-0.5
					c0.1,0,1.1-1.5,1.1-1.5c0,0-0.1-1.1,0-1.1c0.1,0,1.5,2.7,1.6,2.7s-0.1-1,0-1s1.4,1.1,1.4,1.1v-1c0.1,0,1.5,0,1.5,0
					c0.1,0,0-0.7,0-0.7c0.1,0,1.7,0.4,1.7,0.4s0-1,0-1c0.1,0,1.3,4,1.4,4c0.1,0-0.1-0.6,0-0.6s1.5-0.7,1.5-0.7v-1
					c0.1,0,1.5,1.6,1.6,1.6s-0.1-2.2,0-2.2s1.4,2.5,1.4,2.5c0,0-0.1-1,0-1s1.4,2.2,1.5,2.2v-3.6c0.1,0,1.3,4.8,1.5,4.8
					c0.1,0,0-3,0-3c0.1,0,1.4,1.8,1.5,1.8v-0.4c0.1,0,0.9,2.1,1,2.1s0-1.3,0-1.3c0.1,0,1.2,0.4,1.2,0.4c0,0-0.1-0.2,0-0.2
					s1.4,0.4,1.4,0.4c0,0-0.1-1,0-1s1.5,1.6,1.5,1.6v-1c0.1,0,1.5,0.4,1.5,0.4v-0.4c0.1,0,1.2,2,1.2,2c0.1,0-0.1-1,0-1
					s0.9,1.6,0.9,1.6s0-0.7,0-0.7c0.1,0,1.2,2.9,1.3,2.9s-0.1-2.9,0-2.9s1.1,1.6,1.2,1.6c0.1,0-0.1-2.2,0-2.2c0.1,0,1.2,3,1.2,3
					c0.1,0-0.1-2.5,0-2.5s1.2,2.4,1.2,2.4c0,0-0.1-1.4,0-1.4c0.1,0,1.4,2.9,1.5,2.9v-1.1c0.1,0,1.6,2.1,1.7,2.1c0.1,0-0.1-0.8,0-0.8
					c0.1,0,1.4,2.1,1.5,2.1c0,0-0.1-3.4,0-3.4c0.1,0,1.2,3,1.3,3c0.1,0,0-1.2,0-1.2c0.1,0,1.6,3.2,1.7,3.2c0.1,0-0.1-3.3,0-3.3
					s1.1,3.6,1.2,3.6c0.1,0-0.1-1.2,0-1.2c0.1,0,1.2,0.6,1.3,0.6s-0.1-1.1,0-1.1c0.1,0,0.9,3.4,1,3.4c0.1,0,0-1.2,0-1.2
					c0.1,0,1.5,1.2,1.6,1.2s-0.1-0.5,0-0.5s1.4,2.1,1.4,2.1s-0.1-2.1,0-2.1s1.6,3.3,1.7,3.3c0.1,0-0.1-0.4,0-0.4
					c0.1,0,1.4,4.3,1.5,4.3c0.1,0-0.1-4.6,0-4.6c0.1,0,1.5,3.3,1.6,3.3c0.1,0-0.1-1.6,0-1.6c0.1,0,1.5,3.4,1.6,3.4
					c0.1,0-0.1-0.3,0-0.3c0.1,0,1.5,3.8,1.6,3.8c0.1,0-0.1-3.9,0-3.9c0.2,0,1.4,5.7,1.5,5.7c0.1,0-0.1-2.4,0-2.4s1.4,3.2,1.5,3.2
					c0.1,0-0.1-2.9,0-2.9c0.1,0,0.9,3.7,1,3.7c0.1,0-0.1-2.2,0-2.2c0.2,0,1.4,4.6,1.5,4.6c0.1,0-0.1-1.7,0-1.7c0.1,0,0.9,3.4,1,3.4
					c0.1,0-0.1-0.7,0-0.7s1.5,2.4,1.6,2.4c0.1,0-0.1-2,0-2c0.2,0,0.8,5,1,5c0.1,0-0.1-2.8,0-2.8s1,2.5,1,2.5s-0.1-0.8,0-0.8
					c0.1,0,1.4,4.3,1.5,4.3c0.1,0-0.1-0.4,0-0.4c0.1,0,0.8,3.8,0.9,3.8c0.1,0-0.1-5.5,0-5.5c0.2,0,1,6.8,1.2,6.8c0.1,0-0.1-4,0-4
					c0.2,0,0.9,7.9,1.1,7.9c0.1,0-0.1-5.6,0-5.6c0.3,0,1.4,9.4,1.7,9.4c0.1,0-0.1-2.1,0-2.1s1,4.7,1.1,4.7c0.1,0-0.1-4.6,0-4.6
					c0.4,0,1.1,14.2,1.5,14.2c0.1,0-0.2-6.2,0-6.2"/>
				<path class="st7" d="M8,412.6c0.3,0-0.2-9,0-9c0.5,0,0.8,20,1.2,20c0.2,0-0.2-7.7,0-7.7c0.3,0,0.9,11.4,1.2,11.4
					c0.1,0-0.1-1.9,0-1.9c0.2,0,0.9,5.6,1.1,5.6c0.1,0-0.1-3.4,0-3.4c0.2,0,1.3,8.1,1.5,8.1c0.1,0-0.1-0.5,0-0.5
					c0.2,0,1.6,5.1,1.7,5.1c0.1,0-0.1-3.5,0-3.5c0.2,0,1.6,6.9,1.7,6.9c0.1,0-0.1-2.3,0-2.3c0.2,0,0.9,6.2,1.1,6.2
					c0.1,0-0.1-3.9,0-3.9c0.2,0,1.6,5.7,1.7,5.7c0.1,0-0.1-2.7,0-2.7c0.1,0,1.4,5.1,1.5,5.1c0.1,0-0.1-1.6,0-1.6
					c0.1,0,1.1,3.9,1.3,3.9c0.1,0-0.1-2.3,0-2.3c0.1,0,1.1,3.9,1.2,3.9c0.1,0-0.1-1.9,0-1.9c0.1,0,1.4,3,1.4,3c0.1,0-0.1-1.6,0-1.6
					c0.1,0,1,3.3,1.1,3.3c0.1,0-0.1-3.7,0-3.7c0.2,0,1.2,5.1,1.4,5.1c0.1,0-0.1-1.1,0-1.1c0.1,0,0.9,3.3,0.9,3.3
					c0.1,0-0.1-4.5,0-4.5c0.1,0,1.5,4.7,1.6,4.7c0.1,0-0.1-1.4,0-1.4c0.1,0,1.2,3.6,1.3,3.6c0.1,0-0.1-1.2,0-1.2s1.1,2.7,1.2,2.7
					c0.1,0-0.1-3.7,0-3.7c0.2,0,1.2,5.5,1.4,5.5c0.1,0-0.1-3,0-3c0.1,0,0.9,2.1,0.9,2.1c0.1,0-0.1-1.3,0-1.3c0.1,0,1.6,4.1,1.7,4.1
					c0.1,0-0.1-3.7,0-3.7c0.1,0,1.2,3.5,1.4,3.5c0.1,0-0.1-1.2,0-1.2c0.1,0,0.9,0.8,1,0.8s-0.1-0.3,0-0.3c0.1,0,1.6,4.2,1.7,4.2
					c0.1,0-0.1-2.7,0-2.7c0.2,0,1.6,4,1.8,4c0.1,0-0.1-2.9,0-2.9c0.1,0,1.1,2,1.1,2c0.1,0-0.1-1.2,0-1.2c0.1,0,1.4,2,1.4,2
					s0-1.1,0-1.1c0.1,0,0.9,2.7,1,2.7c0.1,0-0.1-0.4,0-0.4c0.1,0,1.7,0.5,1.7,0.5c0,0-0.1-0.3,0-0.3s1.5,1.1,1.5,1.1s-0.1-1.1,0-1.1
					c0.1,0,1.5,1.3,1.5,1.3s0-1.5,0-1.5c0.1,0,0.9,2.5,1,2.5v-1.1c0.1,0,1.7,0.8,1.8,0.8s0-0.7,0-0.7c0.1,0,1.6,4,1.7,4
					c0.1,0,0-4.3,0-4.3c0.1,0,1.1,2.7,1.2,2.7c0.1,0,0-1.4,0-1.4c0.1,0,1.1,2.5,1.2,2.5v-1c0.1,0,1.4,2,1.4,2v-2.2
					c0.1,0,1.1,2.2,1.1,2.2c0,0-0.1-1,0-1s1.1,1.4,1.2,1.4v-1c0.1,0,1.3,1.5,1.4,1.5c0,0-0.1-1,0-1s1.7,1.5,1.7,1.5c0.1,0,0-1,0-1
					c0.1,0,1.1,2.2,1.2,2.2c0,0-0.1-2.1,0-2.1c0.1,0,1.2,2.9,1.3,2.9c0.1,0,0-2.7,0-2.7c0.1,0,1.5,1.7,1.5,1.7s-0.1-1,0-1s1,1,1.1,1
					c0,0-0.1-0.9,0-0.9s0.8,1.4,0.9,1.4c0.1,0,0-1,0-1c0.1,0,1.2,1.2,1.2,1.2v-1c0.1,0,1.5,1.4,1.6,1.4c0,0-0.1-0.3,0-0.3
					s0.8,2.1,0.9,2.1c0.1,0,0-4.5,0-4.5c0.1,0,1.1,2.8,1.2,2.8v-0.4c0.1,0,1.4,1.5,1.5,1.5V483c0.1,0,1.4,2,1.5,2s-0.1-1.1,0-1.1
					s1,1.6,1.1,1.6c0,0-0.1-1,0-1s1.5,1.2,1.6,1.2s0-3.3,0-3.3c0.1,0,1.5,2.8,1.6,2.8c0.1,0,0-1,0-1c0.1,0,1.5,1.7,1.5,1.7
					c0.1,0,0-1.1,0-1.1c0.1,0,1.7,1.3,1.8,1.3v-3.5c0.1,0,1.6,4.2,1.7,4.2c0.1,0,0-2.8,0-2.8c0.1,0,1.4,2.8,1.5,2.8v-2.2
					c0.1,0,1.3,0.8,1.3,0.8c0.1,0-0.1-2.1,0-2.1s1.7,1.6,1.8,1.6c0.1,0-0.1-1,0-1s1.7-0.7,1.8-0.7c0,0-0.1-0.1,0-0.1
					s1.1,3.1,1.2,3.1v-4.3c0.1,0,1,2.4,1,2.4v-1c0.1,0,1.5-0.8,1.5-0.8c0.1,0-0.1-0.9,0-0.9s1.4,2.9,1.4,2.9c0.1,0,0-2.2,0-2.2
					c0.1,0,1,1.2,1,1.2v-1c0.1,0,1.4,2.2,1.5,2.2s-0.1-1.3,0-1.3s1.7,0.2,1.7,0.2s0-2.3,0-2.3c0.1,0,1.6,1.1,1.6,1.1v-1
					c0.1,0,1.3,2.3,1.4,2.3c0.1,0-0.1-1.2,0-1.2c0.1,0,1.2-0.8,1.3-0.8s0-1,0-1c0.1,0,1.5,2,1.6,2c0,0-0.1-2.6,0-2.6
					s1.4,1.1,1.5,1.1s-0.1-0.7,0-0.7s0.9,1.5,0.9,1.5c0.1,0-0.1-1.9,0-1.9s1.2-0.2,1.2-0.2c0.1,0,0-0.2,0-0.2c0.1,0,1-0.3,1-0.3
					c0.1,0,0-1.1,0-1.1c0.1,0,0.9,1.7,1,1.7c0.1,0,0-2.4,0-2.4c0.1,0,1,0.9,1,0.9s-0.1-1.1,0-1.1s1.6-1.4,1.6-1.4s-0.1-0.4,0-0.4
					c0.1,0,1.1,3,1.1,3c0.1,0,0-3.7,0-3.7c0.1,0,1.6,0,1.7,0v-0.7c0.1,0,1.6,2.3,1.7,2.3c0.1,0-0.1-2.2,0-2.2s1.7-1.4,1.7-1.4
					s0-1.1,0-1.1c0.1,0,1,2.2,1.1,2.2c0.1,0-0.1-2.3,0-2.3c0.1,0,1.5,1.1,1.5,1.1c0.1,0-0.1-2.9,0-2.9s1.5,2.9,1.6,2.9
					c0,0-0.1-1.7,0-1.7s1.5-1.2,1.6-1.2s-0.1-1.4,0-1.4s1.5-0.7,1.6-0.7s-0.1-0.7,0-0.7s1.5,1.9,1.6,1.9s-0.1-2.4,0-2.4
					s1.3,1.6,1.4,1.6s-0.1-3.9,0-3.9c0.1,0,0.9,3.5,0.9,3.5c0.1,0-0.1-2.7,0-2.7s1.3,0.3,1.4,0.3s-0.1-0.6,0-0.6s1.6,0.1,1.7,0.1
					s-0.1-1.9,0-1.9s1.6-0.8,1.6-0.8c0.1,0-0.1-1.3,0-1.3s1.1-0.1,1.1-0.1s-0.1-2.7,0-2.7s1.3,0.5,1.3,0.5c0.1,0-0.1-3,0-3
					c0.1,0,0.9,3.5,1,3.5c0.1,0-0.1-3.5,0-3.5c0.1,0,1.6,0.1,1.6,0.1c0.1,0-0.1-1.5,0-1.5c0.1,0,1.7-1.5,1.7-1.5
					c0.1,0-0.1-1.4,0-1.4s1.4,0.3,1.5,0.3c0.1,0-0.1-2.1,0-2.1c0.1,0,1.2-1.1,1.2-1.1c0.1,0-0.1-2.9,0-2.9s0.8,3,0.9,3
					s-0.1-1.5,0-1.5s1.6-2.2,1.6-2.2s-0.1-2.1,0-2.1s1.5,0.2,1.6,0.2s-0.1-4.5,0-4.5s0.9,1.7,1,1.7s-0.1-2.3,0-2.3s1.6-0.7,1.7-0.7
					c0.1,0-0.1-3.3,0-3.3s1.1-1.7,1.1-1.7c0.1,0-0.1-3.7,0-3.7s1.7-2.5,1.7-2.5c0.1,0-0.1-6.3,0-6.3c0.2,0,1.6-5.7,1.7-5.7
					c0.2,0-0.3-10.4,0-10.4"/>
			</g>
		</g>
	</g>
	<g>
		<g>
			<g>
				<path class="st8" d="M2.6,404.5c0.3,0-0.3-11.6,0-11.6c0.1,0,1.4-1.5,1.5-1.5c0.1,0-0.1-3,0-3c0.1,0,1.6-0.9,1.7-0.9
					c0.1,0-0.1-5.2,0-5.2c0.1,0,1.4-1.6,1.4-1.6s-0.1-1.9,0-1.9c0.1,0,1,1.1,1.1,1.1c0.1,0-0.1-4.4,0-4.4c0.1,0,1.8-2.2,1.9-2.2
					c0.1,0-0.1-2.5,0-2.5c0.1,0,1.6-1.3,1.6-1.3c0.1,0-0.1-1.7,0-1.7c0.1,0,1,0.9,1.1,0.9c0.1,0-0.1-0.7,0-0.7
					c0.1,0,1.3-2.5,1.4-2.5c0.1,0-0.1-0.9,0-0.9c0.1,0,1.5,0.5,1.5,0.5c0.1,0-0.1-1.2,0-1.2c0.1,0,1.4-1.4,1.5-1.4
					c0.1,0-0.1-1.9,0-1.9c0.1,0,1.1,1.6,1.2,1.6c0.1,0-0.1-1.6,0-1.6c0.1,0,1.4-1.7,1.4-1.7c0.1,0-0.1-1.7,0-1.7
					c0.1,0,1,1.2,1.1,1.2s-0.1-3.4,0-3.4s1.2,1.6,1.3,1.6c0.1,0-0.1-2.7,0-2.7c0.1,0,1.1,0.1,1.1,0.1c0.1,0-0.1-2,0-2
					s1.7,0.5,1.7,0.5c0.1,0-0.1-0.3,0-0.3c0.1,0,1.7-1,1.7-1s-0.1-1.5,0-1.5s1.7-0.9,1.8-0.9c0.1,0-0.1-1.4,0-1.4s1.6,0.3,1.6,0.3
					s-0.1-0.9,0-0.9s1.4,0,1.5,0c0.1,0-0.1-1.4,0-1.4c0.1,0,1-0.2,1-0.2c0.1,0-0.1-0.3,0-0.3s1.7,0.8,1.7,0.8c0.1,0-0.1-1,0-1
					s1.1,0.2,1.1,0.2c0.1,0-0.1-1.8,0-1.8s1.4-0.2,1.5-0.2c0.1,0-0.1-3.2,0-3.2c0.1,0,1.7,3,1.8,3s-0.1-4.1,0-4.1
					c0.1,0,1.2,3.3,1.4,3.3c0.1,0-0.1-2.6,0-2.6s1.3,1.5,1.4,1.5c0.1,0-0.1-2.7,0-2.7c0.1,0,1.7-0.3,1.7-0.3c0.1,0-0.1-0.4,0-0.4
					s1.6,0.5,1.6,0.5c0.1,0-0.1-1.2,0-1.2s1.7,0.9,1.7,0.9c0.1,0-0.1-2.4,0-2.4s1.6,1,1.7,1s-0.1-1.2,0-1.2s1.1,2.5,1.2,2.5
					c0.1,0-0.1-2.4,0-2.4s1.3-0.1,1.4-0.1c0.1,0-0.1-1.2,0-1.2c0.1,0,1.1,1.1,1.1,1.1c0.1,0-0.1-0.8,0-0.8c0.1,0,1.7-0.3,1.8-0.3
					s-0.1-0.7,0-0.7s1,1.4,1.1,1.4s-0.1-3.9,0-3.9s1.6,0.4,1.7,0.4c0,0-0.1-0.4,0-0.4s1,1.8,1.1,1.8c0.1,0,0-1.1,0-1.1
					c0.1,0,1.5,0.6,1.5,0.6c0,0-0.1-1.1,0-1.1s1.3,2.5,1.4,2.5c0.1,0-0.1-4.4,0-4.4s1.8,2.5,1.8,2.5c0.1,0,0,0,0,0s1-0.3,1.1-0.3
					s0-0.6,0-0.6c0.1,0,1.6,1,1.7,1v-0.7c0,0,1,0.4,1,0.4s-0.1-1.1,0-1.1s1.1-0.5,1.1-0.5c0.1,0-0.1-0.9,0-0.9
					c0.1,0,1.6,0.7,1.7,0.7c0.1,0-0.1-1.1,0-1.1s1.5,0.8,1.6,0.8s-0.1-1.1,0-1.1s1.2,0.9,1.3,0.9c0.1,0,0-1.1,0-1.1
					c0.1,0,1.1,0.7,1.1,0.7c0.1,0-0.1-1,0-1s1.2,2.5,1.3,2.5c0.1,0,0-1.6,0-1.6c0.1,0,1.8-0.8,1.9-0.8s0-1.9,0-1.9
					c0.1,0,1.1,2.7,1.2,2.7s-0.1-1.1,0-1.1s1.7,1.9,1.7,1.9c0,0-0.1-0.4,0-0.4s1.2-1.1,1.3-1.1s-0.1-0.1,0-0.1s1.4,2.3,1.4,2.3
					c0.1,0-0.1-3.2,0-3.2s1.4,2.3,1.5,2.3c0.1,0-0.1-2.9,0-2.9s1,2.1,1,2.1v-1.1c0.1,0,1.7,2.3,1.8,2.3c0,0-0.1-1.2,0-1.2
					s1.6,1,1.6,1v-0.9c0.1,0,1.5,0.5,1.6,0.5v-2.3c0.1,0,1,1.9,1,1.9c0.1,0-0.1-1.1,0-1.1c0.1,0,1.2,2.7,1.3,2.7s-0.1-3.8,0-3.8
					c0.1,0,1.2,4.2,1.4,4.2c0.1,0,0-3.4,0-3.4c0.1,0,1.6,3.1,1.6,3.1s0-2.7,0-2.7c0.1,0,1.7,1.7,1.7,1.7c0,0-0.1-1.1,0-1.1
					s1.2,2.8,1.4,2.8c0,0-0.1-3.1,0-3.1c0.1,0,1.2,3.3,1.3,3.3c0.1,0-0.1-2.4,0-2.4c0.1,0,1.2,3.2,1.4,3.2c0,0-0.1-3.3,0-3.3
					s1.5,0.6,1.6,0.6s0-0.5,0-0.5c0.1,0,1.6,1.7,1.6,1.7s0-0.9,0-0.9c0.1,0,1.6,1.7,1.6,1.7c0,0-0.1-1.1,0-1.1s0.9,2.3,1,2.3
					c0,0-0.1-2,0-2s1,1.5,1.1,1.5s-0.1-0.5,0-0.5s1.8,0.9,1.9,0.9c0,0-0.1-1.1,0-1.1c0.1,0,1,3.3,1.1,3.3c0.1,0,0-1.8,0-1.8
					c0.1,0,1-0.6,1.1-0.6s-0.1-0.8,0-0.8c0.1,0,1.6,2.4,1.7,2.4c0.1,0-0.1-1.1,0-1.1c0.1,0,1.8,1.9,1.9,1.9v-1.1c0.1,0,1,0,1,0
					s-0.1-0.5,0-0.5s1.7,1.3,1.7,1.3c0.1,0-0.1-0.6,0-0.6c0.1,0,1.5,4.8,1.6,4.8c0.1,0,0-4.7,0-4.7c0.1,0,1.1,4.1,1.2,4.1
					c0,0-0.1-2,0-2c0.1,0,1.6,3.1,1.7,3.1c0,0-0.1-1.6,0-1.6s1.2,1.7,1.3,1.7s-0.1-0.8,0-0.8s1.5,1.3,1.6,1.3s-0.1-1.2,0-1.2
					c0.1,0,1,3.3,1.1,3.3c0.1,0-0.1-4.4,0-4.4c0.1,0,1,4.8,1.1,4.8c0.1,0-0.1-1.9,0-1.9s1.1,1.5,1.2,1.5s-0.1-1.3,0-1.3
					c0.1,0,1.7,3.2,1.8,3.2c0.1,0-0.1-1.4,0-1.4s1,1.3,1,1.3s-0.1-1.3,0-1.3c0.1,0,1.7,3.5,1.8,3.5c0.1,0-0.1-3.7,0-3.7
					c0.2,0,1.4,4.5,1.5,4.5c0.1,0-0.1-1.9,0-1.9c0.1,0,1.7,3.5,1.8,3.5c0.1,0-0.1-0.6,0-0.6c0.1,0,1.8,3.5,1.9,3.5
					c0.1,0-0.1-2.7,0-2.7c0.1,0,1.6,3.4,1.7,3.4c0.1,0-0.1-0.6,0-0.6c0.1,0,1.1,0.7,1.2,0.7c0.1,0-0.1-1.5,0-1.5c0.1,0,1.4,3,1.5,3
					c0.1,0-0.1-1.6,0-1.6c0.1,0,1.4,4.6,1.5,4.6c0.1,0-0.1-4.7,0-4.7c0.2,0,1.2,5.8,1.4,5.8c0.1,0-0.1-1,0-1s1.3,1.4,1.4,1.4
					s-0.1-2.1,0-2.1c0.2,0,1.8,5.9,1.9,5.9c0.1,0-0.1-4.8,0-4.8c0.2,0,1.5,7.7,1.7,7.7c0.1,0-0.1-4.1,0-4.1c0.1,0,1,3.9,1.1,3.9
					c0.1,0-0.1-1.9,0-1.9c0.2,0,1.5,6,1.7,6c0.1,0-0.1-3.8,0-3.8c0.1,0,1.2,4.1,1.4,4.1c0.1,0-0.1-1.5,0-1.5c0.1,0,1.1,5.2,1.2,5.2
					c0.1,0-0.1-2.4,0-2.4c0.1,0,1.1,5.4,1.2,5.4c0.1,0-0.1-2.4,0-2.4c0.1,0,1.2,3.6,1.4,3.6c0.1,0-0.1-1.6,0-1.6
					c0.2,0,1.7,7.5,1.9,7.5c0.1,0-0.1-3.9,0-3.9c0.2,0,1.4,5.2,1.6,5.2c0.1,0-0.1-0.1,0-0.1c0.2,0,1,7.5,1.2,7.5
					c0.1,0-0.1-5.8,0-5.8c0.2,0,0.8,8.7,1,8.7c0.2,0-0.1-4.8,0-4.8c0.5,0,0.9,16.6,1.2,16.6c0.3,0-0.2-10,0-10"/>
				<path class="st8" d="M1.5,412.9c0.2,0-0.2-8.6,0-8.6c0.5,0,0.8,21,1.2,21c0.2,0-0.2-9.1,0-9.1c0.4,0,1.2,13.7,1.6,13.7
					c0.1,0-0.1-2.6,0-2.6c0.2,0,1.1,6.4,1.2,6.4c0.1,0-0.1-1.8,0-1.8c0.2,0,1.2,7.6,1.4,7.6c0.1,0-0.1-2.7,0-2.7
					c0.1,0,1.3,4.5,1.4,4.5c0.1,0-0.1-2.4,0-2.4c0.2,0,1.2,6.7,1.5,6.7c0.1,0-0.1-2.5,0-2.5c0.2,0,1.7,5.6,1.8,5.6
					c0.1,0-0.1-1.2,0-1.2c0.1,0,1.1,1.9,1.1,1.9c0.1,0-0.1-2.3,0-2.3c0.2,0,0.8,5.8,1,5.8c0.1,0-0.1-3.6,0-3.6
					c0.2,0,1.4,6.3,1.5,6.3c0.1,0-0.1-2.4,0-2.4c0.1,0,1.1,3.8,1.2,3.8c0.1,0-0.1-0.9,0-0.9s1,1.6,1,1.6c0.1,0-0.1-2.4,0-2.4
					c0.2,0,1.2,5.8,1.4,5.8c0.1,0-0.1-3.3,0-3.3c0.1,0,1.2,3.7,1.4,3.7c0.1,0-0.1-3.2,0-3.2c0.1,0,1.6,4.8,1.7,4.8c0.1,0-0.1-2,0-2
					c0.1,0,1.2,3.5,1.3,3.5c0.1,0-0.1-1.6,0-1.6c0.1,0,1.2,3.4,1.4,3.4c0.1,0-0.1-1.6,0-1.6c0.1,0,0.9,3,1,3c0.1,0-0.1-3.3,0-3.3
					c0.2,0,1.5,6.4,1.6,6.4c0.1,0-0.1-1.8,0-1.8s1.7,2.2,1.7,2.2c0.1,0-0.1-0.6,0-0.6c0.1,0,1.6,1.5,1.7,1.5c0.1,0-0.1-0.6,0-0.6
					s1.8,1.2,1.8,1.2c0.1,0-0.1-0.8,0-0.8c0.1,0,1.3,2.6,1.4,2.6c0.1,0-0.1-1.4,0-1.4c0.1,0,1.8,3,1.9,3c0.1,0-0.1-1.5,0-1.5
					c0.1,0,1,4,1.1,4c0.1,0-0.1-4.3,0-4.3c0.1,0,1,2.5,1.1,2.5c0.1,0-0.1-2.5,0-2.5c0.1,0,0.9,3.3,1,3.3s-0.1-0.4,0-0.4s1,2.1,1,2.1
					c0.1,0-0.1-1.6,0-1.6c0.1,0,0.9,1.7,1,1.7s-0.1-1.2,0-1.2c0.1,0,1.1,3.4,1.2,3.4c0.1,0-0.1-4.4,0-4.4c0.1,0,0.9,4.3,1,4.3
					s-0.1-3.7,0-3.7c0.1,0,1.7,3.5,1.8,3.5c0.1,0-0.1-0.4,0-0.4s1.2,2.4,1.3,2.4s-0.1-3.3,0-3.3c0.1,0,1.3,4,1.4,4
					c0.1,0-0.1-3.2,0-3.2c0.1,0,1.5,3,1.6,3c0.1,0-0.1-1.2,0-1.2c0.1,0,1.5,1.7,1.6,1.7c0,0-0.1-0.8,0-0.8s1,2.2,1,2.2
					s-0.1-3.6,0-3.6c0.1,0,1.3,4.8,1.4,4.8c0.1,0-0.1-3.6,0-3.6c0.1,0,1.3,1.1,1.4,1.1s-0.1-0.6,0-0.6c0.1,0,1.7,2.8,1.7,2.8
					c0,0-0.1-1.1,0-1.1c0.1,0,1.7,2.7,1.8,2.7c0.1,0-0.1-0.4,0-0.4c0.1,0,1.7,1.7,1.8,1.7c0,0-0.1-1.5,0-1.5s1,1.2,1,1.2
					c0,0-0.1-1.1,0-1.1c0.1,0,1.1-1.4,1.2-1.4c0.1,0,0-0.6,0-0.6c0.1,0,1.7,3.5,1.8,3.5c0.1,0,0-0.9,0-0.9c0.1,0,1.8,0.5,1.8,0.5
					v-1.1c0.1,0,1.3,2.1,1.4,2.1s-0.1-2.2,0-2.2s1.2,1.9,1.3,1.9c0,0-0.1-0.6,0-0.6s1.3,0.8,1.4,0.8s0-1.1,0-1.1
					c0.1,0,1.2,2.3,1.2,2.3c0.1,0,0-0.3,0-0.3c0.1,0,1-0.6,1.1-0.6s-0.1-3,0-3s1.2,2.1,1.2,2.1v-1.9c0.1,0,1.5,3.8,1.6,3.8
					c0.1,0-0.1-3.6,0-3.6c0.1,0,1.7,3.1,1.8,3.1c0.1,0-0.1-0.9,0-0.9s1.6,0.8,1.7,0.8c0.1,0-0.1-1.5,0-1.5s1.5,2.9,1.6,2.9
					c0.1,0-0.1-3.6,0-3.6c0.2,0,1.6,4.2,1.7,4.2c0,0-0.1-1.2,0-1.2s1.8,0.6,1.9,0.6v-0.6c0.1,0,1.7-0.4,1.7-0.4s-0.1-1.1,0-1.1
					s1.3,1,1.4,1c0,0-0.1-1.1,0-1.1s1.1,1,1.1,1s-0.1-1.1,0-1.1s1.7,1,1.7,1V490c0.1,0,1,1,1,1s0-1.1,0-1.1c0.1,0,1,0.9,1,0.9
					s-0.1-2.2,0-2.2c0.1,0,1.7,3.6,1.8,3.6v-0.7c0.1,0,1.3,0.3,1.4,0.3s-0.1-1.6,0-1.6s1.7-1.4,1.8-1.4c0.1,0-0.1-1.4,0-1.4
					c0.1,0,1.2,2.1,1.3,2.1s-0.1-0.4,0-0.4s1.4,0.6,1.4,0.6c0.1,0-0.1-1.1,0-1.1s1,0.9,1,0.9s-0.1-1.1,0-1.1s1.6,0.8,1.6,0.8
					c0.1,0-0.1-1.1,0-1.1s1.7-0.1,1.7-0.1s-0.1-0.3,0-0.3s1.1,0.8,1.2,0.8s0-1.1,0-1.1c0.1,0,1.1,1.1,1.1,1.1c0,0-0.1-1.2,0-1.2
					s1,0.7,1,0.7c0.1,0,0-1.1,0-1.1c0.1,0,1.9,1.6,1.9,1.6c0.1,0,0-1.7,0-1.7c0.1,0,1.5,1.5,1.5,1.5c0.1,0,0-3.7,0-3.7
					c0.1,0,1.5,3.5,1.6,3.5c0.1,0-0.1-3.5,0-3.5s1.7,0.7,1.8,0.7c0.1,0-0.1-2.5,0-2.5s1.8,2.3,1.9,2.3c0,0-0.1-1.2,0-1.2
					s1,0.2,1.1,0.2s-0.1-0.1,0-0.1s1.4-0.1,1.4-0.1s-0.1-1.2,0-1.2s1.1,0.7,1.1,0.7c0.1,0-0.1-1.2,0-1.2s1.4,0.5,1.4,0.5
					c0.1,0-0.1-1.2,0-1.2s1.5-1.2,1.5-1.2c0.1,0-0.1-0.2,0-0.2s1.4,0.5,1.4,0.5c0.1,0-0.1-2.4,0-2.4c0.1,0,1.7,2.1,1.8,2.1
					c0,0-0.1,0,0,0s1.1-0.8,1.2-0.8s-0.1-1.2,0-1.2s1.9,0.1,1.9,0.1c0.1,0-0.1-1.3,0-1.3s1.8,0.7,1.9,0.7s-0.1-1.8,0-1.8
					s1.6,0.4,1.7,0.4c0.1,0-0.1-3,0-3s1.7,1.4,1.8,1.4c0.1,0-0.1-1.4,0-1.4s1.4-1.5,1.5-1.5c0.1,0-0.1-1,0-1s1,0.5,1,0.5
					c0.1,0-0.1-0.4,0-0.4s1.7,0.7,1.8,0.7c0.1,0-0.1-3.3,0-3.3c0.1,0,1.7,1.2,1.8,1.2s-0.1-1.5,0-1.5s1.7-1.4,1.8-1.4
					s-0.1-0.5,0-0.5s1,1.1,1,1.1c0.1,0-0.1-1.5,0-1.5l1.1,0.4c0.1,0-0.1-2,0-2s1.4-1,1.5-1c0.1,0-0.1-1.4,0-1.4s1.4,0.9,1.4,0.9
					s-0.1-0.2,0-0.2s0.9,0.6,1,0.6s-0.1-2.3,0-2.3s1.5-2.3,1.5-2.3s-0.1-0.7,0-0.7s1.4-2,1.5-2c0.1,0-0.1-0.5,0-0.5s1.7,0.4,1.7,0.4
					c0.1,0-0.1-2,0-2l1.1-0.4c0.1,0-0.1-2.5,0-2.5s1.2,0.7,1.2,0.7s-0.1-2.1,0-2.1s1.4,0.6,1.4,0.6s-0.1-4.3,0-4.3s1.1,1.2,1.2,1.2
					c0.1,0-0.1-3.4,0-3.4c0.1,0,1.5,0.7,1.6,0.7c0.1,0-0.1-2,0-2c0.1,0,1-1.1,1-1.1c0.1,0-0.1-1.4,0-1.4s1.4-2.1,1.4-2.1
					s-0.1-2.5,0-2.5c0.1,0,1.8-4.5,1.9-4.5s-0.1-4.5,0-4.5l1,0.4c0.1,0-0.2-3.7,0-3.7s1.7-6.5,1.9-6.5c0.3,0-0.3-14.4,0-14.4"/>
			</g>
		</g>
	</g>
</g>
</svg>
